<?xml version="1.0" encoding="utf-8"?>
<!-- Generator: Adobe Illustrator 26.0.1, SVG Export Plug-In . SVG Version: 6.00 Build 0)  -->
<svg version="1.1" id="Group_3441" xmlns="http://www.w3.org/2000/svg" xmlns:xlink="http://www.w3.org/1999/xlink" x="0px" y="0px"
	 viewBox="53.2 54.8 336.3 105.5" style="enable-background:new 0 0 442.7 215;" xml:space="preserve">
<style type="text/css">
	.st0{fill:#343333;}
</style>
<g>
	<g id="Group_3400" transform="translate(0 5.48)">
		<path id="Path_41909" class="st0" d="M70.4,124.9l-4.5-8.1h-0.1v8.1h-3.1V112h3.4l4.5,8h0.1v-8h3.1v12.9H70.4z"/>
		<path id="Path_41910" class="st0" d="M75,124.9l4.8-13h3.4l4.8,12.9h-3.5l-0.7-2.3h-4.6l-0.9,2.4H75z M79.9,120.1H83l-1.5-4.7
			h-0.1L79.9,120.1z"/>
		<path id="Path_41911" class="st0" d="M90.5,124.9v-10.1h-3.9V112h11v2.8h-3.9v10.1H90.5z"/>
		<rect id="Rectangle_183" x="99.3" y="111.9" class="st0" width="3.3" height="12.9"/>
		<path id="Path_41912" class="st0" d="M110.9,125.1c-0.9,0-1.8-0.2-2.7-0.5c-0.8-0.3-1.5-0.8-2-1.4c-0.6-0.6-1-1.4-1.2-2.1
			c-0.3-0.8-0.4-1.7-0.4-2.6s0.1-1.8,0.4-2.6c0.3-0.8,0.7-1.5,1.2-2.1c0.6-0.6,1.2-1.1,2-1.4c0.8-0.4,1.8-0.5,2.7-0.5
			c0.9,0,1.8,0.2,2.7,0.5c0.8,0.3,1.5,0.8,2,1.4c0.6,0.6,1,1.4,1.2,2.1c0.3,0.8,0.4,1.7,0.4,2.6s-0.1,1.8-0.4,2.6
			c-0.3,0.8-0.7,1.5-1.2,2.1c-0.6,0.6-1.2,1.1-2,1.4C112.7,125,111.8,125.1,110.9,125.1 M110.9,114.5c-0.5,0-1,0.1-1.4,0.3
			c-0.4,0.2-0.7,0.5-1,0.9s-0.4,0.8-0.5,1.3s-0.2,1-0.2,1.5s0.1,1,0.2,1.5c0.1,0.4,0.3,0.9,0.5,1.3s0.6,0.7,1,0.9
			c0.4,0.2,0.9,0.3,1.4,0.3s1-0.1,1.4-0.3c0.4-0.2,0.7-0.5,1-0.9s0.4-0.8,0.5-1.3s0.2-1,0.2-1.5s-0.1-1-0.2-1.5
			c-0.1-0.4-0.3-0.9-0.5-1.3s-0.6-0.7-1-0.9S111.4,114.5,110.9,114.5"/>
		<path id="Path_41913" class="st0" d="M126.9,124.9l-4.5-8.1h-0.1v8.1h-3.1V112h3.4l4.5,8h0.1v-8h3.1v12.9H126.9z"/>
		<path id="Path_41914" class="st0" d="M131.5,124.9l4.8-13h3.4l4.8,12.9H141l-0.7-2.3h-4.6l-0.9,2.4H131.5z M136.4,120.1h3.1
			l-1.5-4.7h-0.1L136.4,120.1z"/>
		<path id="Path_41915" class="st0" d="M145.6,124.9V112h3.3v10.1h6.1v2.8H145.6z"/>
		<path id="Path_41916" class="st0" d="M161.4,124.9V112h5.5c1.7-0.1,3.4,0.5,4.6,1.7c1.2,1.3,1.8,3,1.7,4.7
			c0.1,1.8-0.5,3.5-1.7,4.8c-1.3,1.2-2.9,1.8-4.7,1.7L161.4,124.9z M164.7,122.1h1.7c1,0.1,2-0.2,2.8-0.9c0.6-0.8,0.9-1.8,0.9-2.8
			c0.1-1-0.3-2-0.9-2.7c-0.8-0.6-1.7-1-2.7-0.9h-1.7L164.7,122.1z"/>
		<path id="Path_41917" class="st0" d="M175.3,124.9V112h10.3v2.6h-7v2.4h6.4v2.5h-6.4v2.6h7.2v2.8H175.3z"/>
		<path id="Path_41918" class="st0" d="M190.4,124.9l-4-12.9h3.5l2.5,9.7h0.1l2.6-9.7h3.4l-4.2,12.9H190.4z"/>
		<path id="Path_41919" class="st0" d="M199.6,124.9V112h10.3v2.6h-7v2.4h6.4v2.5h-6.4v2.6h7.2v2.8H199.6z"/>
		<path id="Path_41920" class="st0" d="M212.1,124.9V112h3.3v10.1h6.1v2.8H212.1z"/>
		<path id="Path_41921" class="st0" d="M229.2,125.1c-0.9,0-1.8-0.2-2.7-0.5c-0.8-0.3-1.5-0.8-2-1.4c-0.6-0.6-1-1.4-1.2-2.1
			c-0.3-0.8-0.4-1.7-0.4-2.6s0.1-1.8,0.4-2.6c0.3-0.8,0.7-1.5,1.2-2.1c0.6-0.6,1.2-1.1,2-1.4c0.8-0.4,1.8-0.5,2.7-0.5
			s1.8,0.2,2.7,0.5c0.8,0.3,1.5,0.8,2,1.4c0.6,0.6,1,1.4,1.2,2.1c0.3,0.8,0.4,1.7,0.4,2.6s-0.1,1.8-0.4,2.6
			c-0.3,0.8-0.7,1.5-1.2,2.1c-0.6,0.6-1.2,1.1-2,1.4C231,125,230.1,125.1,229.2,125.1 M229.2,114.5c-0.5,0-1,0.1-1.4,0.3
			c-0.4,0.2-0.7,0.5-1,0.9s-0.4,0.8-0.5,1.3s-0.2,1-0.2,1.5s0.1,1,0.2,1.5c0.1,0.4,0.3,0.9,0.5,1.3s0.6,0.7,1,0.9
			c0.4,0.2,0.9,0.3,1.4,0.3s1-0.1,1.4-0.3c0.4-0.2,0.7-0.5,1-0.9s0.4-0.8,0.5-1.3s0.2-1,0.2-1.5s-0.1-1-0.2-1.5
			c-0.1-0.4-0.3-0.9-0.5-1.3s-0.6-0.7-1-0.9C230.1,114.6,229.6,114.5,229.2,114.5"/>
		<path id="Path_41922" class="st0" d="M237.5,124.9V112h6.1c0.6,0,1.2,0.1,1.8,0.2c0.5,0.1,1,0.4,1.5,0.7c0.4,0.3,0.8,0.8,1,1.3
			c0.3,0.6,0.4,1.2,0.4,1.9c0.1,1.2-0.3,2.5-1.2,3.4c-1,0.8-2.2,1.1-3.4,1.1h-2.9v4.3H237.5z M240.8,118h2.3c0.5,0,1-0.1,1.4-0.4
			s0.6-0.8,0.5-1.3c0-0.5-0.2-1-0.5-1.3c-0.4-0.3-0.9-0.5-1.4-0.4h-2.3V118z"/>
		<path id="Path_41923" class="st0" d="M255.9,124.9l-2.7-9.9H253v9.9h-3V112h4.9l2.2,8.7h0.1l2.3-8.7h4.9v12.9h-3.1V115h-0.1l0,0
			l-2.7,9.9H255.9z"/>
		<path id="Path_41924" class="st0" d="M266.9,124.9V112h10.3v2.6h-7v2.4h6.4v2.5h-6.4v2.6h7.2v2.8H266.9z"/>
		<path id="Path_41925" class="st0" d="M287.1,124.9l-4.5-8.1h-0.1v8.1h-3.1V112h3.4l4.5,8h0.1v-8h3.1v12.9H287.1z"/>
		<path id="Path_41926" class="st0" d="M296,124.9v-10.1h-3.9V112h11v2.8h-3.9v10.1H296z"/>
		<path id="Path_41927" class="st0" d="M253.7,149.3v-12.9h9.5v2.6H257v2.8h5.4v2.5H257v5L253.7,149.3z"/>
		<path id="Path_41928" class="st0" d="M270.4,149.6c-1.5,0.1-3.1-0.4-4.3-1.4c-1-1.2-1.5-2.7-1.4-4.2v-7.6h3.3v7.8
			c-0.1,0.7,0.1,1.4,0.5,2c0.5,0.5,1.1,0.7,1.8,0.6c0.7,0.1,1.3-0.2,1.8-0.6c0.4-0.6,0.6-1.3,0.5-2v-7.8h3.3v7.6
			c0.1,1.5-0.4,3-1.4,4.2C273.5,149.2,272,149.7,270.4,149.6"/>
		<path id="Path_41929" class="st0" d="M286.1,149.3l-4.5-8.1h-0.1v8.1h-3.1v-12.9h3.4l4.5,8h0.1v-8h3.1v12.9H286.1z"/>
		<path id="Path_41930" class="st0" d="M292,149.3v-12.9h5.5c1.7-0.1,3.4,0.5,4.6,1.7c1.2,1.3,1.8,3,1.7,4.7
			c0.1,1.8-0.5,3.5-1.7,4.8c-1.3,1.2-2.9,1.8-4.7,1.7H292z M295.2,146.5h1.7c1,0.1,2-0.2,2.8-0.9c0.6-0.8,0.9-1.8,0.9-2.8
			c0.1-1-0.3-2-0.9-2.7c-0.8-0.6-1.7-1-2.7-0.9h-1.7L295.2,146.5z"/>
		<path id="Path_41931" class="st0" d="M231,62.9h-8.3V69h2.7v-3h2.5v3.8h-5.3H208v-3.7h1.2v-3.2h-4.5v10H231L231,62.9z"/>
		<path id="Path_41932" class="st0" d="M242.1,62.9h-9v10h5.7v2.3h-5.7v3.1h9V62.9z M236.2,69.8v-3.6h2.5v3.6H236.2z"/>
		<path id="Path_41933" class="st0" d="M286.8,64.3v-1.4h-3.1V69h3.1v-1.4h13.4v2.2h-30.4v-6.9h-3.3v6.9h-10.2v-6.7H244v3.1h9.3v3.7
			H244V73h59.4v-8.5h-16.6V64.3z"/>
		
			<rect id="Rectangle_184" x="267" y="58.3" transform="matrix(0.7071 -0.7071 0.7071 0.7071 36.4324 207.183)" class="st0" width="2.6" height="2.6"/>
		<path id="Path_41934" class="st0" d="M227,60l1.5,1.5l1.8-1.8l-1.8-1.8l-1.5,1.5l-1.5-1.5l-1.8,1.8l1.8,1.8L227,60z"/>
		<rect id="Rectangle_185" x="299.9" y="83.3" class="st0" width="3.3" height="14.2"/>
		<path id="Path_41935" class="st0" d="M187.3,82.7l-1.8,1.8l1.8,1.8l1.5-1.5l1.5,1.5l1.8-1.8l-1.8-1.8l-1.5,1.5L187.3,82.7z"/>
		<path id="Path_41936" class="st0" d="M213.9,102.6l1.8-1.8l-1.8-1.8l-1.5,1.5l-1.5-1.5l-1.8,1.8l1.8,1.8l1.5-1.5L213.9,102.6z"/>
		<path id="Path_41937" class="st0" d="M280,84.5l1.5,1.5l1.8-1.8l-1.8-1.8l-1.5,1.5l-1.5-1.5l-1.8,1.8l1.8,1.8L280,84.5z"/>
		
			<rect id="Rectangle_188" x="259.3" y="82.9" transform="matrix(0.7071 -0.7071 0.7071 0.7071 16.7955 208.9633)" class="st0" width="2.6" height="2.6"/>
		<path id="Path_41938" class="st0" d="M293.2,83.3v3.2h1.2v7.9h-12.6v-6.7h-3.2v6.7h-16.4v-6.9h-3.3v6.9h-17v-6.9h-8.3v6.9h-19.2
			v-6.9H211v6.9h-23.5v-3.8h2.5v3h2.8v-6.1h-8.3v10h113.1V83.3H293.2L293.2,83.3z M238.9,94.4h-2.5v-3.8h2.5V94.4z"/>
		<path id="Path_41939" class="st0" d="M128,83.3h-3.2v10.3h3.2v-1.4h13.6v2.2h-32.7v-6.9h-3.3v6.9H87.3v-6.9h-8.4v6.9h-13v-3.7h1.2
			v-3.2h-4.4v10H82v-6.7h2.1v6.7h60.6V89H128V83.3z"/>
		<rect id="Rectangle_189" x="173.3" y="83.3" class="st0" width="3.3" height="14.2"/>
		<path id="Path_41940" class="st0" d="M73.6,100l-1.5-1.5l-1.8,1.8l1.8,1.8l1.5-1.5l1.5,1.5l1.8-1.8l-1.8-1.8L73.6,100z"/>
		
			<rect id="Rectangle_193" x="106" y="82.9" transform="matrix(0.7071 -0.7071 0.7071 0.7071 -28.0802 100.5414)" class="st0" width="2.6" height="2.6"/>
		<path id="Path_41941" class="st0" d="M166.6,83.3v3.2h1.2v7.9h-11.9v-6.9h-9v10h5.7v2.3h-5.7v3.1h9v-5.4h15.2V83.3H166.6
			L166.6,83.3z M150,94.4v-3.6h2.5v3.6H150z"/>
	</g>
	<g id="Group_3399" transform="translate(251.063)">
		<path id="Path_41943" class="st0" d="M119.5,81.4l-9.3,9.3l-3.8,3.8l-1,1l-9.6,9.6l-7.4-7.4l3.8-3.8l3.6,3.6l5.4-5.4l1.4-1.4
			l3.8-3.8l5.5-5.5l-3.1-3.1l-13-13L79.7,81.4l2.4,2.4l-3.8,3.8l-6.1-6.1l23.7-23.7L119.5,81.4z"/>
		<path id="Path_41944" class="st0" d="M85.2,86.9l1.1-1.1l0,0l9.5-9.5l7.4,7.4l-3.8,3.8l-3.6-3.6l-5,5L89,90.7l-3.8,3.8l-5.5,5.5
			l3.1,3.1L95.7,116l16.1-16.1l-2.4-2.4l3.8-3.8l6.1,6.1l-23.7,23.7L72.2,100l5.7-5.7l0,0l3.6-3.6L85.2,86.9z"/>
		<path id="Path_41945" class="st0" d="M110.9,149.6l-8.1-8.1l-3.8,3.8l8,8l3.9,3.9l6.6-6.6l-3.8-3.8L110.9,149.6z"/>
		<path id="Path_41946" class="st0" d="M92.7,131.4L70.3,109h-7.6l26.2,26.2L92.7,131.4z"/>
		<path id="Path_41947" class="st0" d="M99.6,138.3l29.3-29.3h-7.6l-23.2,23.2l-6.2,6.2l-11.3,11.3l-2.9-2.8l-3.8,3.8l6.6,6.6
			l3.9-3.9l0,0l11.2-11.2L99.6,138.3L99.6,138.3z"/>
	</g>
</g>
</svg>
