<?xml version="1.0" encoding="utf-8"?>
<!-- Generator: Adobe Illustrator 26.0.1, SVG Export Plug-In . SVG Version: 6.00 Build 0)  -->
<svg version="1.1" id="Layer_1" xmlns="http://www.w3.org/2000/svg" xmlns:xlink="http://www.w3.org/1999/xlink" x="0px" y="0px"
	 viewBox="33.9 29.7 661.9 225.5" style="enable-background:new 0 0 729.64 289.9;" xml:space="preserve">
<style type="text/css">
	.st0{fill:#231F20;}
	.st1{fill:#03B585;}
	.st2{fill:url(#SVGID_1_);}
	.st3{fill:url(#SVGID_00000151544005061665275980000011416895872353111195_);}
	.st4{fill:url(#SVGID_00000154391788284798206840000012048339772996252037_);}
	.st5{fill:url(#SVGID_00000108300735139747796190000005787166504805466505_);}
	.st6{fill:url(#SVGID_00000077286927321915430760000012574004012585250734_);}
	.st7{fill:url(#SVGID_00000033328603888237372570000014129746930463671999_);}
	.st8{fill:url(#SVGID_00000158736123029617051500000005495838856836384686_);}
	.st9{fill:url(#SVGID_00000101784588296673533710000013748726234070160806_);}
	.st10{fill:url(#SVGID_00000142145331237669276030000013000361099421373623_);}
	.st11{fill:url(#SVGID_00000027585147181066338620000013087926443929641396_);}
	.st12{fill:url(#SVGID_00000044899034526689378220000003813672221572047771_);}
	.st13{fill:url(#SVGID_00000010990958512299393470000002353513150758341821_);}
	.st14{fill:url(#SVGID_00000119096942488141854950000017587745614248371610_);}
	.st15{fill:url(#SVGID_00000176750930978240692480000015292461789045395108_);}
	.st16{fill:url(#SVGID_00000070808245987230412790000016043750618729790132_);}
	.st17{fill:url(#SVGID_00000079461073046792863410000012224349968862098325_);}
	.st18{fill:url(#SVGID_00000013161368228484949660000015112543571646271371_);}
	.st19{fill:url(#SVGID_00000075125817551434880210000003492332266734676155_);}
	.st20{fill:url(#SVGID_00000173137000731687859050000002882618247418305415_);}
	.st21{fill:url(#SVGID_00000067944455314541808980000002613541032471696308_);}
	.st22{fill:url(#SVGID_00000083803580400019440990000009473416427692267706_);}
	.st23{fill:url(#SVGID_00000174592482890072305910000015347000826815205292_);}
	.st24{fill:url(#SVGID_00000075879154234884339200000017615693089704466567_);}
	.st25{fill:url(#SVGID_00000087391783765427143880000007100312476715717770_);}
	.st26{fill:url(#SVGID_00000173147691562513600970000011097129717015949711_);}
	.st27{fill:url(#SVGID_00000126300089368129069610000001002975067247067577_);}
	.st28{fill:url(#SVGID_00000132049710893135548260000011886908889373963960_);}
	.st29{fill:url(#SVGID_00000057858672653483948590000016194876836363611796_);}
	.st30{fill:url(#SVGID_00000129891824986129975440000008530346200899055778_);}
	.st31{fill:url(#SVGID_00000098917588952543722140000015152015052237702323_);}
	.st32{fill:url(#SVGID_00000096044908044135756700000015379347934644500143_);}
	.st33{fill:url(#SVGID_00000060737681241307469920000007297883258546287499_);}
	.st34{fill:url(#SVGID_00000041977543271536832960000011134474962887528614_);}
	.st35{fill:url(#SVGID_00000096036390456089134490000017133291152059985573_);}
	.st36{fill:url(#SVGID_00000022535997655775138860000009825525422607438222_);}
	.st37{fill:url(#SVGID_00000123409838039388880770000004823641171373742988_);}
	.st38{fill:url(#SVGID_00000067944532667598892210000003787998828103907212_);}
	.st39{fill:url(#SVGID_00000145051990283174654990000001058102370009025206_);}
	.st40{fill:url(#SVGID_00000116217537148826205560000011567783203832240542_);}
	.st41{fill:url(#SVGID_00000036935719079951269290000016502483601559727803_);}
	.st42{fill:url(#SVGID_00000114060017682123835460000003423571001274015873_);}
	.st43{fill:url(#SVGID_00000176020742341586348250000004687188182211122825_);}
	.st44{fill:url(#SVGID_00000162339645756207589060000011050154572009403529_);}
	.st45{fill:url(#SVGID_00000153694334278226720790000009009208561897140877_);}
	.st46{fill:url(#SVGID_00000163038828631115699140000001395866506256748733_);}
	.st47{fill:url(#SVGID_00000114754324878465648660000003749547672901633935_);}
	.st48{fill:url(#SVGID_00000033339671116099365360000016308368504444963995_);}
	.st49{fill:url(#SVGID_00000019669569936548642520000004801078986079322285_);}
	.st50{fill:url(#SVGID_00000104679810824778998850000013472140174802348966_);}
	.st51{fill:url(#SVGID_00000168828440215223534890000017136481052167660178_);}
	.st52{fill:url(#SVGID_00000049934253787557972780000005252016531576315538_);}
	.st53{fill:url(#SVGID_00000163042071542042114340000016442863790161421743_);}
	.st54{fill:url(#SVGID_00000099647264511798764000000014690527243679746969_);}
	.st55{fill:url(#SVGID_00000037658132992148482030000015419363254656323485_);}
</style>
<g>
	<path class="st0" d="M351.04,81.57v62.26h22.66V68.51L351.04,81.57z"/>
	<path class="st0" d="M426.77,127.09c-11.02,0-18.78-8.57-18.78-21.02s7.76-20.82,18.98-20.82c7.96,0,14.9,5.51,16.74,13.27
		l18.98-10.82c-5.72-13.06-19.6-21.84-36.54-21.84c-23.68,0-40.82,16.94-40.82,40.21s17.35,40.21,41.03,40.21
		c20.82,0,36.95-12.66,38.58-30.21l-21.23-2.45C441.87,121.58,434.93,127.09,426.77,127.09z"/>
	<polygon class="st0" points="315.12,80.76 315.12,116.07 289.19,68.51 265.51,82.18 265.51,143.83 286.74,143.83 286.74,95.86 
		312.67,143.83 336.34,143.83 336.34,68.51 	"/>
	<polygon class="st0" points="284.09,224.25 284.09,224.25 271.43,204.86 268.17,204.86 268.17,228.74 271.03,228.74 271.03,209.56 
		271.23,209.56 283.68,228.74 287.15,228.74 287.15,204.86 284.09,204.86 	"/>
	<path class="st0" d="M305.52,226.09c0-0.41-0.2-1.02-0.2-1.43v-8.78c0-0.82-0.2-1.63-0.61-2.45c-0.41-0.61-0.82-1.22-1.43-1.43
		c-0.61-0.41-1.22-0.61-2.04-0.61s-1.63-0.2-2.45,0c-1.02,0-1.84,0-2.65,0.2c-0.82,0.2-1.63,0.61-2.25,1.02s-1.22,1.02-1.63,1.84
		c-0.41,0.82-0.61,1.84-0.61,2.65h2.86c0-1.02,0.41-2.04,1.22-2.65c1.02-0.41,2.04-0.82,3.06-0.61c0.41,0,0.82,0,1.43,0
		c0.41,0,0.82,0.2,1.22,0.41c0.41,0.2,0.61,0.41,0.82,0.82c0.2,0.41,0.41,1.02,0.41,1.43s-0.2,0.82-0.41,1.22
		c-0.41,0.41-0.82,0.61-1.22,0.61c-0.61,0.2-1.22,0.2-1.84,0.41c-0.82,0-1.43,0.2-2.25,0.41s-1.43,0.2-2.25,0.61
		c-0.61,0.2-1.22,0.41-1.84,0.82c-0.61,0.41-1.02,0.82-1.43,1.43c-0.61,1.43-0.61,3.06,0,4.69c0.2,0.61,0.61,1.02,1.22,1.43
		s1.22,0.61,1.84,0.82c0.82,0.2,1.43,0.2,2.25,0.2c1.22,0,2.25-0.2,3.27-0.61c1.02-0.41,2.04-1.22,2.65-2.04
		c0,0.82,0.2,1.43,0.61,2.04c0.41,0.41,1.02,0.61,1.84,0.61c0.61,0,1.43-0.2,2.04-0.41v-2.25c-0.2,0-0.61,0.2-0.82,0.2
		C305.73,226.7,305.52,226.5,305.52,226.09z M302.46,222.82c0,0.41-0.2,0.82-0.2,1.22c-0.2,0.41-0.61,0.82-1.02,1.22
		c-0.41,0.41-1.02,0.82-1.63,1.02c-0.82,0.2-1.63,0.41-2.45,0.41c-0.41,0-0.82,0-1.22-0.2c-0.41,0-0.82-0.2-1.02-0.41
		c-0.41-0.2-0.61-0.41-0.82-0.82c-0.2-0.41-0.2-0.82-0.2-1.22s0-1.02,0.2-1.43s0.41-0.61,0.82-0.82c0.41-0.2,0.61-0.41,1.02-0.61
		c0.41-0.2,0.82-0.2,1.43-0.41c0.41,0,1.02-0.2,1.43-0.2l1.43-0.2c0.41,0,0.82-0.2,1.22-0.2c0.41,0,0.61-0.2,1.02-0.41
		C302.46,219.76,302.46,222.82,302.46,222.82z"/>
	<path class="st0" d="M313.69,206.29h-2.86v5.1h-2.86v2.45h2.86v11.23c0,0.61,0,1.22,0.2,1.84c0.2,0.41,0.41,0.82,0.82,1.22
		c0.41,0.2,0.82,0.41,1.22,0.61c0.61,0.2,1.22,0.2,1.84,0.2h2.25v-2.45h-1.22c-0.41,0-0.82,0-1.02,0c-0.2,0-0.41,0-0.61-0.2
		c-0.2-0.2-0.2-0.2-0.41-0.41c0-0.2,0-0.61,0-0.82v-10.82h3.47v-2.45h-3.47L313.69,206.29z"/>
	<rect x="320.42" y="211.39" class="st0" width="2.86" height="17.35"/>
	<path class="st0" d="M341.24,213.64c-0.82-0.82-1.63-1.43-2.65-1.84c-2.25-1.02-4.9-1.02-7.14,0c-1.02,0.41-1.84,1.02-2.65,1.84
		c-0.82,0.82-1.22,1.84-1.63,2.86c-0.61,2.25-0.61,4.69,0,7.14c0.41,1.02,0.82,2.04,1.63,2.86s1.63,1.63,2.65,2.04
		c2.25,1.02,4.9,1.02,7.14,0c1.02-0.41,1.84-1.22,2.65-2.04s1.22-1.84,1.63-2.86c0.61-2.25,0.61-4.69,0-7.14
		C342.47,215.47,342.06,214.45,341.24,213.64z M340.02,222.82c-0.2,0.82-0.61,1.43-1.22,2.04c-0.41,0.61-1.02,1.02-1.63,1.22
		c-0.61,0.2-1.43,0.41-2.04,0.41c-1.43,0-2.86-0.61-3.88-1.63c-0.61-0.61-0.82-1.22-1.22-2.04c-0.2-0.82-0.41-1.84-0.41-2.86
		s0.2-1.84,0.41-2.86c0.2-0.82,0.61-1.43,1.22-2.04c0.41-0.61,1.02-1.02,1.63-1.22c0.61-0.2,1.43-0.41,2.04-0.41
		c0.61,0,1.43,0.2,2.04,0.41s1.22,0.82,1.63,1.22c0.61,0.61,0.82,1.22,1.22,2.04c0.2,0.82,0.41,1.84,0.41,2.86
		C340.43,220.99,340.22,222.01,340.02,222.82L340.02,222.82z"/>
	<path class="st0" d="M359.82,212.82c-0.41-0.61-1.22-1.02-1.84-1.22c-0.82-0.41-1.84-0.41-2.86-0.41c-1.22,0-2.25,0.2-3.27,0.82
		c-1.02,0.61-1.84,1.43-2.25,2.45l0,0v-2.65h-2.65v17.35h2.86v-10.21c0-0.82,0-1.43,0.2-2.25c0.2-0.61,0.61-1.22,1.02-1.63
		c0.41-0.41,1.02-0.82,1.63-1.22c0.61-0.2,1.43-0.41,2.25-0.41c1.02,0,1.84,0.2,2.65,1.02c0.61,0.61,1.02,1.63,1.02,2.65v11.63h2.86
		v-11.43c0-0.82,0-1.63-0.2-2.65C360.63,214.05,360.43,213.43,359.82,212.82z"/>
	<path class="st0" d="M379,226.09c0-0.41-0.2-1.02-0.2-1.43v-8.78c0-0.82-0.2-1.63-0.61-2.45c-0.41-0.61-0.82-1.02-1.43-1.43
		c-0.61-0.41-1.43-0.61-2.04-0.61c-0.82-0.2-1.63-0.2-2.25-0.2c-1.02,0-1.84,0-2.86,0.2c-0.82,0.2-1.63,0.61-2.25,1.02
		c-0.61,0.41-1.22,1.02-1.63,1.84c-0.41,0.82-0.61,1.84-0.61,2.65h2.86c0-1.02,0.41-2.04,1.22-2.65c1.02-0.41,2.04-0.82,3.06-0.61
		c0.41,0,0.82,0,1.43,0c0.41,0,0.82,0.2,1.22,0.41c0.41,0.2,0.61,0.41,0.82,0.82c0.2,0.41,0.41,1.02,0.41,1.43s-0.2,0.82-0.41,1.22
		c-0.41,0.41-0.82,0.61-1.22,0.61c-0.61,0.2-1.22,0.2-1.84,0.41c-0.82,0-1.43,0.2-2.25,0.41s-1.43,0.2-2.25,0.61
		c-0.61,0.2-1.22,0.41-1.84,0.82c-0.61,0.41-1.02,0.82-1.22,1.43c-0.41,0.82-0.61,1.63-0.41,2.45c0,0.82,0.2,1.43,0.41,2.25
		c0.2,0.61,0.61,1.02,1.22,1.43c0.61,0.41,1.22,0.61,1.84,0.82c0.82,0.2,1.43,0.2,2.25,0.2c1.22,0,2.25-0.2,3.27-0.61
		s2.04-1.22,2.65-2.04c0,0.82,0.2,1.43,0.61,2.04c0.41,0.41,1.02,0.61,1.84,0.61c0.61,0,1.43-0.2,2.04-0.41v-2.04
		c-0.2,0-0.61,0.2-0.82,0.2C379.41,226.7,379.21,226.5,379,226.09z M376.15,222.82c0,0.41-0.2,0.82-0.2,1.22
		c-0.2,0.41-0.61,0.82-1.02,1.22c-0.41,0.41-1.02,0.82-1.63,1.02c-1.22,0.41-2.45,0.41-3.67,0.2c-0.41,0-0.82-0.2-1.02-0.41
		c-0.41-0.2-0.61-0.41-0.82-0.82c-0.2-0.41-0.2-0.82-0.2-1.22s0-1.02,0.2-1.43c0.2-0.41,0.41-0.61,0.82-0.82
		c0.41-0.2,0.61-0.41,1.02-0.61c0.41-0.2,0.82-0.2,1.22-0.41c0.41,0,1.02-0.2,1.43-0.2l1.43-0.2c0.41,0,0.82-0.2,1.22-0.2
		c0.41,0,0.61-0.2,1.02-0.41L376.15,222.82z"/>
	<rect x="383.49" y="204.86" class="st0" width="2.86" height="23.88"/>
	<rect x="400.64" y="204.86" class="st0" width="3.27" height="23.88"/>
	<path class="st0" d="M421.67,212.82c-0.41-0.61-1.22-1.02-1.84-1.22c-0.82-0.41-1.84-0.41-2.86-0.41c-1.22,0-2.25,0.2-3.27,0.82
		s-1.84,1.43-2.25,2.45l0,0v-2.65h-2.86v17.35h2.86v-10.21c0-0.82,0-1.43,0.41-2.25c0.2-0.61,0.41-1.22,1.02-1.63
		c0.41-0.41,1.02-0.82,1.63-1.22c0.61-0.2,1.43-0.41,2.25-0.41c1.02,0,1.84,0.2,2.65,1.02c0.61,0.61,1.02,1.63,1.02,2.65v11.63h2.86
		v-11.43c0-0.82,0-1.63-0.2-2.65C422.48,214.05,422.07,213.43,421.67,212.82z"/>
	<path class="st0" d="M433.1,204.66c-1.22,0-2.45,0.2-3.47,1.02c-0.82,0.82-1.22,2.04-1.22,3.27v2.65h-2.86v2.45h2.86v14.7h2.86
		v-14.7h3.27v-2.45h-3.27v-2.45c0-0.61,0.2-1.22,0.61-1.63c0.41-0.2,1.02-0.41,1.63-0.41c0.2,0,0.61,0,0.82,0c0.2,0,0.61,0,0.82,0.2
		v-2.45c-0.2,0-0.61-0.2-0.82-0.2L433.1,204.66z"/>
	<path class="st0" d="M450.85,213.64c-0.82-0.82-1.63-1.43-2.65-1.84c-1.22-0.41-2.45-0.82-3.67-0.61c-1.22,0-2.45,0.2-3.67,0.61
		c-1.02,0.41-1.84,1.02-2.65,1.84c-0.82,0.82-1.22,1.84-1.63,2.86c-0.61,2.25-0.61,4.69,0,7.14c0.41,1.02,0.82,2.04,1.63,2.86
		c0.61,0.82,1.63,1.63,2.65,2.04c1.22,0.41,2.45,0.61,3.67,0.61c1.22,0,2.45-0.2,3.67-0.61c1.02-0.41,1.84-1.22,2.65-2.04
		s1.22-1.84,1.63-2.86c0.82-2.25,0.82-4.69,0-7.14C452.08,215.47,451.47,214.45,450.85,213.64z M449.43,223.03
		c-0.2,0.82-0.61,1.43-1.22,2.04c-1.43,1.63-3.88,2.04-5.92,1.22c-0.61-0.2-1.22-0.61-1.84-1.22c-0.61-0.61-0.82-1.22-1.22-2.04
		c0-1.02-0.2-2.04-0.2-2.86c0-1.02,0.2-1.84,0.41-2.86c0.2-0.82,0.61-1.43,1.22-2.04c0.41-0.61,1.02-1.02,1.84-1.22
		c1.22-0.61,2.86-0.61,4.08,0c0.61,0.2,1.22,0.82,1.63,1.22c0.61,0.61,0.82,1.22,1.22,2.04c0.2,0.82,0.41,1.84,0.41,2.86
		C449.83,220.99,449.63,222.01,449.43,223.03z"/>
	<path class="st0" d="M459.02,215.07L459.02,215.07v-3.67h-2.65v17.35h2.86v-7.76c0-1.02,0.2-2.04,0.41-2.86
		c0.2-0.82,0.61-1.63,1.02-2.25c0.61-0.61,1.22-1.02,2.04-1.43c1.02-0.41,1.84-0.41,2.86-0.41v-2.86c-1.43,0-2.65,0.2-3.88,1.02
		C460.45,212.82,459.63,213.84,459.02,215.07z"/>
	<path class="st0" d="M490.05,212.21c-0.61-0.41-1.22-0.82-1.84-0.82c-0.82-0.2-1.63-0.2-2.25-0.2c-1.02,0-2.25,0.2-3.06,0.82
		c-1.02,0.41-1.84,1.22-2.25,2.25c-0.2-1.02-1.02-1.84-1.84-2.25c-0.82-0.41-1.84-0.61-2.86-0.61c-2.25,0-4.29,1.02-5.51,2.86l0,0
		v-2.65h-2.65v17.35h2.86v-10.82c0-0.41,0-0.82,0.2-1.22c0.2-0.61,0.41-1.02,0.82-1.43s0.82-0.82,1.43-1.22
		c0.61-0.41,1.43-0.61,2.04-0.61s1.02,0,1.63,0.2c0.41,0.2,0.82,0.41,1.02,0.82c0.2,0.41,0.41,0.82,0.61,1.22s0.2,1.02,0.2,1.63
		v11.23h2.86v-10.82c0-1.22,0.41-2.25,1.22-3.27c0.82-0.82,2.04-1.22,3.27-1.22c0.61,0,1.22,0,1.63,0.41
		c0.41,0.2,0.82,0.41,1.02,0.82c0.2,0.41,0.41,0.82,0.61,1.22c0,0.41,0.2,1.02,0.2,1.43v11.23h2.86v-12.66
		c0-0.82-0.2-1.63-0.41-2.25C490.86,213.23,490.45,212.62,490.05,212.21z"/>
	<path class="st0" d="M509.64,226.09c0-0.41-0.2-1.02-0.2-1.43v-8.78c0-0.82-0.2-1.63-0.61-2.45c-0.41-0.61-0.82-1.02-1.43-1.43
		s-1.43-0.61-2.04-0.61c-0.82-0.2-1.63-0.2-2.25-0.2c-1.02,0-1.84,0-2.65,0.2c-0.82,0.2-1.63,0.61-2.25,1.02
		c-0.61,0.41-1.22,1.02-1.63,1.84c-0.41,0.82-0.61,1.84-0.61,2.65h2.86c0-1.02,0.41-2.04,1.22-2.65c1.02-0.41,2.04-0.82,3.06-0.61
		c0.41,0,0.82,0,1.43,0c0.41,0,0.82,0.2,1.22,0.41s0.61,0.61,0.82,0.82c0.2,0.41,0.41,1.02,0.41,1.43s-0.2,0.82-0.41,1.22
		c-0.41,0.41-0.82,0.61-1.22,0.61c-0.61,0.2-1.22,0.2-1.84,0.41c-0.61,0-1.43,0.2-2.25,0.41c-0.61,0.2-1.43,0.2-2.04,0.61
		c-0.61,0.2-1.22,0.41-1.84,0.82c-0.61,0.41-1.02,0.82-1.22,1.43c-0.41,0.82-0.61,1.63-0.41,2.45c0,0.82,0.2,1.43,0.41,2.25
		c0.2,0.61,0.61,1.02,1.22,1.43s1.22,0.61,1.84,0.82c1.84,0.41,3.88,0.41,5.51-0.41c1.02-0.41,2.04-1.22,2.65-2.04
		c0,0.82,0.2,1.43,0.61,2.04c0.41,0.41,1.02,0.61,1.84,0.61c0.61,0,1.43-0.2,2.04-0.41v-2.04c-0.2,0-0.61,0.2-0.82,0.2
		C509.84,226.7,509.64,226.5,509.64,226.09z M506.58,222.82c0,0.41-0.2,0.82-0.2,1.22c-0.2,0.41-0.61,0.82-1.02,1.22
		c-0.41,0.41-1.02,0.82-1.63,1.02c-0.82,0.2-1.63,0.41-2.45,0.41c-0.41,0-0.82,0-1.22-0.2c-0.41,0-0.82-0.2-1.02-0.41
		c-0.41-0.2-0.61-0.41-0.82-0.82c-0.2-0.41-0.2-0.82-0.2-1.22s0-1.02,0.2-1.43c0.2-0.41,0.41-0.61,0.82-0.82
		c0.41-0.2,0.61-0.41,1.02-0.61c0.41-0.2,0.82-0.2,1.22-0.41c0.41,0,1.02-0.2,1.43-0.2l1.43-0.2c0.41,0,0.82-0.2,1.22-0.2
		s0.61-0.2,1.02-0.41L506.58,222.82z"/>
	<path class="st0" d="M517.81,206.29h-2.86v5.1h-2.86v2.45h2.86v11.23c0,0.61,0,1.22,0.2,1.84c0.2,0.41,0.41,0.82,0.82,1.22
		c0.41,0.2,0.82,0.41,1.22,0.61c0.61,0.2,1.22,0.2,1.84,0.2h2.25v-2.45h-1.22c-0.41,0-0.82,0-1.02,0c-0.2,0-0.41,0-0.61-0.2
		c-0.2,0-0.2-0.2-0.2-0.41s-0.2-0.61-0.2-0.82v-10.82h3.47v-2.45h-3.47L517.81,206.29z"/>
	<rect x="524.54" y="211.39" class="st0" width="2.86" height="17.35"/>
	<path class="st0" d="M545.36,213.64c-0.82-0.82-1.63-1.43-2.65-1.84c-1.02-0.41-2.25-0.61-3.47-0.61c-1.22,0-2.45,0.2-3.67,0.61
		c-1.02,0.41-1.84,1.02-2.65,1.84c-0.82,0.82-1.22,1.84-1.63,2.86c-0.61,2.25-0.61,4.69,0,7.14c0.41,1.02,0.82,2.04,1.63,2.86
		c0.61,0.82,1.63,1.63,2.65,2.04c1.22,0.41,2.45,0.61,3.67,0.61s2.45-0.2,3.67-0.61c1.02-0.41,1.84-1.22,2.65-2.04
		s1.22-1.84,1.63-2.86c0.82-2.25,0.82-4.69,0-7.14C546.79,215.47,546.18,214.45,545.36,213.64z M544.14,222.82
		c-0.2,0.82-0.61,1.43-1.22,2.04c-1.43,1.63-3.88,2.04-5.92,1.22c-0.61-0.2-1.22-0.61-1.84-1.22c-0.61-0.61-0.82-1.22-1.22-2.04
		c-0.2-0.82-0.41-1.84-0.41-2.86s0.2-1.84,0.41-2.86c0.2-0.82,0.61-1.43,1.22-2.04c0.41-0.61,1.02-1.02,1.84-1.22
		c1.22-0.61,2.86-0.61,4.08,0c0.61,0.2,1.22,0.82,1.63,1.22c0.61,0.61,0.82,1.22,1.22,2.04c0.2,0.82,0.41,1.84,0.41,2.86
		C544.54,220.99,544.34,222.01,544.14,222.82L544.14,222.82z"/>
	<path class="st0" d="M563.94,212.82c-0.41-0.61-1.22-1.02-1.84-1.22c-0.82-0.41-1.84-0.41-2.86-0.41c-1.22,0-2.25,0.2-3.27,0.82
		c-1.02,0.61-1.84,1.43-2.25,2.45l0,0v-2.65h-2.65v17.35h2.86v-10.21c0-0.82,0-1.43,0.41-2.25c0.2-0.61,0.61-1.22,1.02-1.63
		c0.41-0.41,1.02-0.82,1.63-1.22c0.82-0.2,1.43-0.41,2.25-0.41c1.02,0,1.84,0.2,2.65,1.02c0.61,0.61,1.02,1.63,1.02,2.65v11.63h2.86
		v-11.43c0-0.82,0-1.63-0.2-2.65C564.75,214.05,564.55,213.43,563.94,212.82z"/>
	<path class="st0" d="M595.78,222.41c-0.41,0.82-0.82,1.63-1.43,2.25s-1.22,1.02-2.04,1.43s-1.84,0.61-2.86,0.61
		c-1.22,0-2.45-0.2-3.67-0.82c-1.02-0.41-1.84-1.22-2.45-2.25s-1.22-2.04-1.43-3.27c-0.41-1.22-0.41-2.65-0.41-3.88
		s0.2-2.45,0.41-3.67c0.2-1.02,0.82-2.25,1.43-3.06s1.43-1.63,2.45-2.25c1.22-0.61,2.45-0.82,3.67-0.82c0.82,0,1.63,0.2,2.25,0.41
		c0.82,0.2,1.43,0.61,2.04,1.02s1.02,1.02,1.43,1.63c0.41,0.61,0.61,1.43,0.82,2.25h3.27c-0.2-1.22-0.61-2.25-1.22-3.47
		c-0.61-1.02-1.22-1.84-2.25-2.45c-0.82-0.61-1.84-1.22-3.06-1.43c-1.22-0.41-2.45-0.61-3.47-0.61c-1.63,0-3.27,0.2-4.9,1.02
		c-1.43,0.61-2.65,1.63-3.47,2.65c-1.02,1.22-1.63,2.65-2.25,4.08c-0.61,1.63-0.82,3.06-0.82,4.69c0,1.63,0.2,3.27,0.61,4.9
		c0.41,1.43,1.02,2.86,2.04,3.88c1.02,1.22,2.04,2.04,3.47,2.65s3.27,1.02,4.9,1.02c2.65,0.2,5.31-0.82,7.35-2.45
		c1.84-1.84,3.06-4.29,3.06-6.94h-3.06C596.19,220.78,595.98,221.6,595.78,222.41z"/>
	<path class="st0" d="M616.39,214.45c-0.61-1.02-1.43-1.84-2.45-2.45c-1.22-0.61-2.45-1.02-3.88-0.82c-1.02,0-2.25,0.2-3.27,0.61
		c-1.02,0.41-1.84,1.02-2.65,1.84c-0.82,0.82-1.22,1.84-1.63,2.86c-0.41,1.22-0.61,2.45-0.61,3.67c0,1.22,0.2,2.45,0.61,3.67
		c0.41,1.02,0.82,2.04,1.63,2.86c0.61,0.82,1.63,1.43,2.65,1.84c1.22,0.41,2.45,0.82,3.67,0.61c1.84,0,3.47-0.41,4.9-1.43
		s2.25-2.65,2.45-4.29h-2.86c-0.2,1.02-0.61,1.84-1.63,2.45c-0.82,0.61-1.84,0.82-2.86,0.82c-0.82,0-1.63-0.2-2.45-0.41
		c-1.22-0.61-2.25-1.63-2.65-3.06c-0.2-0.61-0.2-1.43-0.2-2.25h12.86c0-1.02,0-2.25-0.2-3.27
		C617.42,216.5,617.01,215.47,616.39,214.45z M604.96,218.54c0-0.61,0.2-1.22,0.41-1.84c0.2-0.61,0.61-1.02,1.02-1.63
		c0.41-0.41,1.02-0.82,1.43-1.02c0.61-0.2,1.43-0.41,2.04-0.41c0.61,0,1.22,0.2,2.04,0.41c0.61,0.2,1.02,0.61,1.63,1.02
		c0.41,0.41,0.82,1.02,1.02,1.63c0.2,0.61,0.41,1.22,0.41,1.84H604.96z"/>
	<path class="st0" d="M633.95,212.82c-0.41-0.61-1.22-1.02-1.84-1.22c-0.82-0.41-1.84-0.41-2.86-0.41c-1.22,0-2.25,0.2-3.27,0.82
		c-1.02,0.61-1.84,1.43-2.25,2.45l0,0v-2.65h-2.65v17.35h2.86v-10.21c0-0.82,0-1.43,0.2-2.25c0.2-0.61,0.61-1.22,1.02-1.63
		c0.41-0.41,1.02-0.82,1.63-1.22c0.61-0.2,1.43-0.41,2.25-0.41c1.02,0,1.84,0.2,2.65,1.02c0.61,0.61,1.02,1.63,1.02,2.65v11.63h2.86
		v-11.43c0-0.82,0-1.63-0.2-2.65C634.77,214.05,634.36,213.43,633.95,212.82z"/>
	<path class="st0" d="M643.34,206.29h-2.86v5.1h-2.86v2.45h2.86v11.23c0,0.61,0,1.22,0.2,1.84c0.2,0.41,0.41,0.82,0.82,1.22
		c0.41,0.2,0.82,0.41,1.22,0.61c0.61,0.2,1.22,0.2,1.84,0.2h2.25v-2.45h-1.43c-0.41,0-0.82,0-1.02,0c-0.2,0-0.41,0-0.61-0.2
		c-0.2-0.2-0.2-0.41-0.2-0.61c0-0.2,0-0.61,0-0.82v-10.61h3.47v-2.45h-3.47v-5.51H643.34z"/>
	<path class="st0" d="M663.34,214.45c-0.61-1.02-1.43-1.84-2.45-2.45c-1.22-0.61-2.45-1.02-3.88-1.02c-1.02,0-2.25,0.2-3.27,0.61
		c-1.02,0.41-1.84,1.02-2.65,1.84c-0.82,0.82-1.22,1.84-1.63,2.86c-0.41,1.22-0.61,2.45-0.61,3.67c0,1.22,0.2,2.45,0.61,3.67
		c0.41,1.02,0.82,2.04,1.63,2.86c0.61,0.82,1.63,1.43,2.65,1.84c1.22,0.41,2.45,0.82,3.67,0.61c1.84,0,3.47-0.41,4.9-1.43
		s2.25-2.65,2.45-4.29h-2.86c-0.2,1.02-0.61,1.84-1.63,2.45c-0.82,0.61-1.84,0.82-2.86,0.82c-0.82,0-1.63-0.2-2.45-0.41
		c-0.61-0.2-1.22-0.61-1.63-1.22c-0.41-0.61-0.82-1.22-1.02-1.84c-0.2-0.61-0.2-1.43-0.2-2.25h12.86c0-1.02,0-2.25-0.2-3.27
		C664.36,216.5,663.95,215.47,663.34,214.45z M652.12,218.54c0-0.61,0.2-1.22,0.41-1.84c0.2-0.61,0.61-1.02,1.02-1.63
		c0.41-0.41,1.02-0.82,1.43-1.02c0.61-0.2,1.43-0.41,2.04-0.41s1.22,0.2,1.84,0.41s1.02,0.61,1.63,1.02
		c0.41,0.41,0.82,1.02,1.02,1.63c0.2,0.61,0.41,1.22,0.41,1.84H652.12z"/>
	<path class="st0" d="M670.49,215.07L670.49,215.07v-3.67h-2.65v17.35h2.86v-7.76c0-1.02,0-2.04,0.41-2.86
		c0.2-0.82,0.61-1.63,1.02-2.25c0.61-0.61,1.22-1.02,2.04-1.43c1.02-0.41,1.84-0.41,2.86-0.41v-2.86c-1.43,0-2.65,0.2-3.88,1.02
		C672.12,212.82,671.1,213.84,670.49,215.07z"/>
	<polygon class="st0" points="323.28,204.86 320.42,204.86 320.42,208.33 323.28,206.7 	"/>
	<polygon class="st0" points="527.4,204.86 524.54,204.86 524.54,208.33 527.4,206.7 	"/>
	<path class="st0" d="M296.34,187.1c1.02-0.2,1.63-1.02,2.04-1.84c0.2,0.61,0.61,1.22,1.02,1.63c0.61,0.41,1.43,0.61,2.25,0.61
		h28.78v-5.92c0.2-2.04-0.61-4.29-1.84-5.92c-1.43-1.43-3.27-2.25-5.31-2.04c-2.04,0-3.88,0.61-5.51,1.63
		c-1.63,1.22-3.06,2.65-4.08,4.49v-17.15h-3.06v22.04h-8.98c-0.61,0-1.02,0-1.43-0.2s-0.61-0.41-1.02-0.82
		c-0.2-0.41-0.41-0.82-0.41-1.22c0-0.61-0.2-1.02-0.2-1.63v-6.74h-2.86V182c0,0.41,0,1.02-0.2,1.43c-0.2,0.41-0.41,0.61-0.61,0.82
		s-0.61,0.2-1.02,0.41c-0.41,0-1.02,0-1.43,0h-5.72c-2.86,0-5.72-0.61-8.37-1.63v2.86c0.82,0,1.43,0.2,2.45,0.41
		c0.82,0.2,1.63,0.61,2.65,0.82c0.82,0.2,1.43,0.61,2.04,1.02c0.41,0.41,0.82,0.82,0.82,1.43c0,0.41-0.2,1.02-0.61,1.22
		c-0.61,0.41-1.22,0.82-1.84,0.82c-1.22,0.61-2.04,0.82-3.06,0.82c-1.02,0.2-2.25,0.2-3.27,0.2c-2.45,0.2-4.69-0.41-6.94-1.43
		c-1.43-1.02-2.25-2.65-2.04-4.49V182h-2.86v5.31c0,1.02,0.2,2.25,0.61,3.27c0.41,1.02,1.02,1.84,1.84,2.65
		c1.02,0.82,2.25,1.43,3.67,1.84c1.84,0.41,3.88,0.61,5.72,0.61c1.84,0,3.67-0.2,5.31-0.41c1.22-0.2,2.45-0.61,3.47-1.22
		c0.82-0.41,1.63-1.02,2.04-1.84c0.41-0.61,0.61-1.22,0.61-2.04c0-0.41,0-1.02-0.2-1.43c-0.2-0.41-0.41-0.82-0.61-1.22h5.31
		C294.29,187.51,295.32,187.31,296.34,187.1z M314.91,181.79c0.61-1.02,1.22-1.84,2.04-2.65c0.82-0.82,1.63-1.43,2.65-1.84
		c0.82-0.61,2.04-0.82,3.06-0.82c0.82,0,1.63,0.2,2.25,0.41s1.22,0.61,1.63,1.22s0.61,1.22,0.82,1.84c0.2,0.82,0.2,1.43,0.2,2.25
		v2.45h-14.08C313.89,183.63,314.3,182.61,314.91,181.79L314.91,181.79z"/>
	<path class="st0" d="M357.78,187.51v-24.9h-2.86v22.04h-7.76v-1.63c0-1.22-0.2-2.45-0.41-3.67c-0.2-1.02-0.61-2.04-1.22-2.86
		c-0.61-0.82-1.22-1.43-2.04-1.84c-1.02-0.41-2.04-0.61-3.06-0.61s-2.04,0.2-2.86,0.61c-0.82,0.41-1.63,1.02-2.25,1.63
		c-0.61,0.61-1.02,1.43-1.43,2.45c-0.41,0.82-0.41,1.84-0.41,2.86s0.2,2.04,0.61,2.86c0.2,0.82,0.82,1.43,1.43,1.84
		c0.61,0.41,1.22,0.82,2.04,1.02c0.82,0.2,1.63,0.41,2.65,0.41h3.88c0,0.82-0.2,1.63-0.61,2.25c-0.41,0.61-1.02,1.02-1.63,1.43
		c-0.82,0.41-1.63,0.61-2.25,0.61c-1.02,0.2-2.04,0.2-3.06,0.2h-1.02v2.86h1.63c1.43,0,2.65,0,3.88-0.41
		c1.02-0.2,2.04-0.61,3.06-1.22c0.82-0.61,1.63-1.22,2.04-2.25c0.61-1.02,0.82-2.25,0.82-3.47L357.78,187.51z M344.3,184.65h-3.67
		c-1.02,0-2.04-0.2-3.06-0.82c-0.82-0.61-1.02-1.63-1.02-2.65c0-0.61,0-1.02,0.2-1.63c0.2-0.61,0.41-1.02,0.82-1.43
		c0.61-1.02,1.84-1.43,2.86-1.43c1.22-0.2,2.45,0.41,3.06,1.63c0.61,1.22,1.02,2.65,0.82,4.08
		C344.3,182.41,344.3,184.65,344.3,184.65z"/>
	<rect x="362.67" y="162.61" class="st0" width="2.86" height="24.7"/>
	<path class="st0" d="M402.89,184.65h-16.94c-1.02,0-2.04,0-2.65,0c-0.61,0-1.22-0.2-1.63-0.41s-0.82-0.61-0.82-1.02
		c-0.2-0.61-0.2-1.22-0.2-1.63v-4.49h-2.86v5.31c0,0.82,0,1.63,0.41,2.25c0.2,0.61,0.61,1.22,1.22,1.63
		c0.61,0.41,1.43,0.82,2.25,0.82c1.02,0.2,2.25,0.2,3.27,0.2h21.02v-13.27h-2.86L402.89,184.65z"/>
	<path class="st0" d="M427.18,185.47c1.02,0.82,2.25,1.43,3.47,1.84c1.02,0.41,2.25,0.61,3.27,0.61c1.63,0.2,3.27-0.61,4.49-1.84
		c1.02-1.43,1.43-3.06,1.43-4.69c0-1.02-0.2-2.04-0.41-2.86c-0.2-0.82-0.82-1.63-1.22-2.25c-0.61-0.61-1.22-1.02-1.84-1.43
		c-0.82-0.41-1.63-0.61-2.45-0.61c-0.61,0-1.22,0-1.84,0.2s-1.43,0.61-1.84,1.02c-0.61,0.61-1.22,1.22-1.84,2.04
		c-0.61,1.22-1.22,2.25-1.63,3.67c-0.2,0.61-0.41,1.22-0.82,1.63c-0.2,0.41-0.61,0.61-0.82,1.02c-0.2,0.2-0.61,0.41-0.82,0.41
		c-0.2,0.2-0.61,0.2-0.82,0.41h-7.14c-1.02,0-1.63-0.2-2.04-0.61c-0.41-0.61-0.41-1.43-0.41-2.04v-19.19h-3.47v20
		c0,0.82,0,1.63,0.41,2.25c0.2,0.61,0.61,1.02,1.02,1.43c0.41,0.41,1.02,0.61,1.63,0.82s1.43,0.2,2.04,0.2h7.35
		c0.41,0,0.82,0,1.22,0s0.82,0,1.02-0.2c0.41-0.2,0.61-0.41,1.02-0.61C426.56,186.29,426.97,185.88,427.18,185.47z M430.85,178.53
		c0.61-0.82,1.63-1.22,2.65-1.22c0.61,0,1.02,0.2,1.43,0.41c0.41,0.2,0.82,0.61,1.02,0.82c0.2,0.41,0.61,0.82,0.61,1.22
		c0.2,0.41,0.2,1.02,0.2,1.43c0,1.02-0.2,2.04-0.82,2.86c-0.61,0.61-1.43,0.82-2.25,0.82s-1.84-0.2-2.65-0.61
		c-0.82-0.41-1.84-0.82-2.65-1.43C429.01,181.39,429.83,179.96,430.85,178.53L430.85,178.53z"/>
	<path class="st0" d="M515.15,162.61v22.04h-5.51c-0.82,0-1.43-0.2-2.04-0.61c-0.41-0.41-0.82-1.02-1.02-1.63c0-0.2,0-0.2,0-0.41
		v-0.41c0-1.02-0.2-1.84-0.41-2.86c-0.41-0.82-0.82-1.43-1.22-2.04c-0.61-0.61-1.22-1.02-1.84-1.43c-0.82-0.41-1.63-0.61-2.45-0.61
		c-0.61,0-1.22,0-1.84,0.2s-1.22,0.61-1.84,1.02c-0.61,0.61-1.22,1.22-1.84,2.04c-0.61,1.22-1.22,2.25-1.63,3.67
		c-0.2,0.61-0.41,1.22-0.82,1.63c-0.2,0.41-0.61,0.61-0.82,1.02c-0.2,0.2-0.61,0.41-0.82,0.41c-0.2,0-0.61,0-0.82,0h-6.12
		c-0.61,0-1.22,0-1.84-0.2c1.22-0.82,2.25-1.84,2.86-3.06c0.61-1.02,1.02-2.25,1.02-3.67c0-0.61-0.2-1.02-0.41-1.63
		c-0.2-0.61-0.61-1.02-1.02-1.43c-0.61-0.41-1.22-0.82-1.84-1.02c-0.82-0.2-1.84-0.41-2.65-0.41c-1.22,0-2.25,0.2-3.47,0.61
		c-1.02,0.41-1.84,1.02-2.65,1.84c-0.2,0.2-0.2,0.41-0.41,0.61c-0.2,0.2-0.2,0.41-0.41,0.61c-0.2,0.2-0.2,0.61-0.41,0.82
		s-0.2,0.61-0.2,0.82l4.29,4.9c-1.63,0.41-3.27,0.82-5.1,0.61h-1.84c-0.82,0-1.63-0.41-2.25-1.02c-0.61-0.82-0.82-1.84-0.82-2.86
		V162.4h-2.86v19.39c0,0.41,0,1.02-0.2,1.43c-0.2,0.2-0.2,0.61-0.61,0.82c-0.2,0.2-0.61,0.2-0.82,0.41c-0.41,0-0.82,0-1.02,0h-5.31
		v-1.63c0-1.22-0.2-2.45-0.41-3.67c-0.2-1.02-0.61-2.04-1.22-2.86c-0.41-0.82-1.22-1.43-2.04-1.84c-1.02-0.41-2.04-0.61-3.06-0.61
		s-2.04,0.2-2.86,0.61c-0.82,0.41-1.43,1.02-2.04,1.63c-0.61,0.61-1.02,1.43-1.43,2.45c-0.41,0.82-0.41,1.84-0.41,2.86
		s0.2,2.04,0.41,2.86c0.41,0.61,0.82,1.43,1.43,1.84c0.61,0.41,1.22,0.82,2.04,1.02c0.82,0.2,1.84,0.41,2.65,0.41h3.88
		c0,0.82-0.2,1.63-0.61,2.25c-0.41,0.61-1.02,1.02-1.63,1.43c-0.82,0.41-1.63,0.61-2.25,0.61c-1.02,0.2-2.04,0.2-3.06,0.2h-1.02
		v2.86h1.43c1.43,0,2.65,0,4.08-0.41c1.02-0.2,2.04-0.61,3.06-1.22c0.82-0.61,1.63-1.22,2.04-2.25c0.61-1.02,0.82-2.25,0.82-3.47
		h4.9c1.22,0,2.45-0.2,3.47-0.41s1.63-1.02,2.04-1.84c0.2,0.61,0.61,1.22,1.02,1.63c0.61,0.41,1.22,0.61,2.04,0.61h2.04
		c1.22,0,2.45-0.2,3.67-0.41c1.22-0.2,2.25-0.61,3.47-1.02c0.61,0.61,1.22,0.82,2.04,1.22c0.61,0.2,1.22,0.2,1.84,0.2h7.14
		c0.41,0,0.82,0,1.22,0s0.82,0,1.02-0.2c0.41-0.2,0.61-0.41,1.02-0.61c0.41-0.41,0.61-0.61,0.82-1.02c1.02,0.82,2.25,1.43,3.47,1.84
		c1.02,0.41,2.25,0.61,3.27,0.61s2.25-0.2,3.27-0.82c0.82-0.41,1.43-1.22,1.84-2.04l0,0c0.41,0.82,0.82,1.43,1.63,1.84
		c0.61,0.41,1.43,0.61,2.25,0.61h8.37v-25.11H515.15z M453.3,184.65h-3.67c-1.02,0-2.04-0.2-3.06-0.82
		c-0.82-0.61-1.02-1.63-1.02-2.65c0-0.61,0-1.02,0.2-1.63c0.2-0.61,0.41-1.02,0.61-1.43c0.41-0.41,0.82-0.82,1.22-1.02
		c0.61-0.2,1.22-0.41,1.84-0.41c1.22-0.2,2.45,0.41,3.06,1.63c0.61,1.22,1.02,2.65,0.82,4.08V184.65z M479.23,182.82l-4.29-4.49
		c0.61-0.61,1.22-1.22,2.04-1.43c0.82-0.41,1.63-0.61,2.65-0.61c0.82,0,1.84,0.2,2.65,0.61c0.41,0.41,0.82,0.82,0.82,1.43
		c0,0.82-0.41,1.84-1.02,2.45C481.27,181.59,480.25,182.41,479.23,182.82L479.23,182.82z M502.9,184.24
		c-0.61,0.61-1.43,0.82-2.25,0.82c-0.82,0-1.84-0.2-2.65-0.61c-0.82-0.41-1.84-0.82-2.65-1.43c0.41-1.63,1.22-3.27,2.25-4.49
		c0.61-0.82,1.63-1.22,2.65-1.22c0.61,0,1.02,0.2,1.43,0.41c0.41,0.2,0.82,0.61,1.02,0.82c0.2,0.41,0.61,0.82,0.61,1.22
		c0.2,0.41,0.2,1.02,0.2,1.43C503.72,182.41,503.52,183.43,502.9,184.24L502.9,184.24z"/>
	<rect x="522.7" y="162.61" class="st0" width="2.86" height="24.7"/>
	<path class="st0" d="M555.98,171.18c-0.2,0.2-0.41,0.41-0.41,0.61c-0.2,0.2-0.2,0.61-0.41,0.82c-0.2,0.2-0.2,0.61-0.2,0.82
		c1.22,0.61,2.45,1.22,3.67,2.04c1.02,0.82,2.25,1.63,3.06,2.45c0.82,0.61,1.63,1.43,2.25,2.45c0.41,0.61,0.82,1.22,0.82,2.04
		c0,0.61-0.2,1.43-0.82,1.84c-0.61,0.2-1.43,0.41-2.04,0.41h-13.47c-0.82,0.2-1.84-0.2-2.45-1.02c-0.41-0.82-0.61-1.84-0.61-2.86
		v-4.9h-2.86v9.39c0,1.22,0,2.25,0,3.06s-0.2,1.43-0.61,2.04c-0.41,0.61-0.82,1.02-1.43,1.22c-0.82,0.2-1.84,0.41-2.65,0.41v2.86
		c1.22,0,2.65-0.2,3.88-0.41c0.82-0.2,1.63-0.82,2.25-1.43c0.61-0.82,1.02-1.84,1.02-2.86c0.2-1.43,0.41-2.86,0.41-4.29
		c0.2,0.41,0.61,0.82,1.22,1.22s1.22,0.61,1.84,0.61h13.27c1.02,0,2.04-0.2,3.06-0.41c0.61-0.2,1.22-0.61,1.84-1.22
		c0.41-0.41,0.61-1.02,0.82-1.63c0.2-0.61,0.2-1.02,0.2-1.63c0-0.82-0.2-1.43-0.41-2.25c-0.41-0.82-0.82-1.63-1.63-2.45
		c-0.82-1.02-1.84-1.84-2.86-2.65c-1.22-1.02-2.65-2.04-4.08-2.86l10.21-4.49v-2.86l-12.66,5.51
		C556.18,170.98,555.98,170.98,555.98,171.18z"/>
	<path class="st0" d="M597.82,186.08c1.02-1.43,1.63-3.06,1.43-4.69c0-1.02-0.2-2.04-0.41-2.86s-0.82-1.63-1.22-2.25
		c-0.61-0.61-1.22-1.02-2.04-1.43c-0.82-0.41-1.63-0.61-2.45-0.61c-0.61,0-1.22,0-1.84,0.2c-0.61,0.2-1.43,0.61-1.84,1.02
		c-0.61,0.61-1.22,1.22-1.84,2.04c-0.61,1.22-1.22,2.25-1.63,3.67c-0.2,0.61-0.41,1.22-0.82,1.63c-0.2,0.41-0.61,0.61-0.82,1.02
		c-0.2,0.2-0.61,0.41-1.02,0.41c-0.2,0-0.61,0-0.82,0h-1.43c-0.82,0-1.63-0.41-2.25-1.02c-0.41-0.82-0.61-1.84-0.61-2.86v-4.69
		h-2.86v9.39c0,1.22,0,2.25,0,3.06c0,0.61-0.2,1.43-0.61,2.04c-0.41,0.61-0.82,1.02-1.43,1.22c-0.82,0.2-1.84,0.41-2.65,0.41v2.86
		c1.22,0,2.45-0.2,3.88-0.41c0.82-0.2,1.63-0.82,2.25-1.43c0.61-0.82,1.02-1.84,1.02-2.86c0.2-1.43,0.41-2.86,0.2-4.29
		c0.2,0.41,0.61,0.82,1.22,1.22c0.61,0.41,1.02,0.61,1.63,0.61h1.63c0.41,0,0.82,0,1.22,0c0.41,0,0.82,0,1.02-0.2
		c0.41-0.2,0.61-0.41,1.02-0.61c0.41-0.41,0.61-0.61,1.02-1.02c1.02,0.82,2.25,1.43,3.47,1.84c1.02,0.41,2.25,0.61,3.27,0.61
		C595.17,188.12,596.8,187.51,597.82,186.08z M595.57,184.04c-0.61,0.61-1.43,0.82-2.25,0.82c-0.82,0-1.84-0.2-2.65-0.61
		c-0.82-0.41-1.84-0.82-2.65-1.43c0.41-1.63,1.22-3.27,2.25-4.49c0.61-0.82,1.63-1.22,2.65-1.22c0.41,0,1.02,0.2,1.43,0.41
		c0.41,0.2,0.82,0.41,1.02,0.82c0.2,0.41,0.61,0.82,0.61,1.22c0.2,0.41,0.2,1.02,0.2,1.43C596.6,182.41,596.19,183.43,595.57,184.04
		L595.57,184.04z"/>
	<polygon class="st0" points="545.36,167.51 542.71,167.51 542.71,170.98 545.36,169.34 	"/>
	<polygon class="st0" points="298.58,166.49 295.72,166.49 295.72,169.96 298.58,168.32 	"/>
	<polygon class="st0" points="395.54,168.53 392.68,168.53 392.68,172 395.54,170.36 	"/>
	<polygon class="st0" points="391.05,168.53 388.19,168.53 388.19,172 391.05,170.36 	"/>
	<polygon class="st0" points="280.41,197.72 277.56,197.72 277.56,201.19 280.41,199.55 	"/>
	<polygon class="st0" points="276.13,197.72 273.27,197.72 273.27,201.19 276.13,199.55 	"/>
	<g id="Layer_2_1_">
		<g id="Layer_1-2">
			<polygon class="st1" points="150.6,109.13 123.86,124.64 123.86,155.87 150.6,171.38 177.54,155.87 177.54,124.64 			"/>
			
				<linearGradient id="SVGID_1_" gradientUnits="userSpaceOnUse" x1="281.9377" y1="951.1091" x2="89.331" y2="1156.2079" gradientTransform="matrix(1 0 0 1 0 -894)">
				<stop  offset="0" style="stop-color:#A6CE39"/>
				<stop  offset="0.5" style="stop-color:#03B585"/>
				<stop  offset="1" style="stop-color:#273470"/>
			</linearGradient>
			<polygon class="st2" points="153.45,176.08 175.09,188.74 153.45,201.19 			"/>
			
				<linearGradient id="SVGID_00000146497956669627249510000008284450448526776471_" gradientUnits="userSpaceOnUse" x1="226.431" y1="899.9747" x2="33.8448" y2="1105.0326" gradientTransform="matrix(1 0 0 1 0 -894)">
				<stop  offset="0" style="stop-color:#A6CE39"/>
				<stop  offset="0.5" style="stop-color:#03B585"/>
				<stop  offset="1" style="stop-color:#273470"/>
			</linearGradient>
			<polygon style="fill:url(#SVGID_00000146497956669627249510000008284450448526776471_);" points="126.3,94.84 147.94,107.29 
				126.3,119.95 			"/>
			
				<linearGradient id="SVGID_00000005263228419379931430000009231743478137051289_" gradientUnits="userSpaceOnUse" x1="257.2237" y1="929.8444" x2="65.9438" y2="1133.5348" gradientTransform="matrix(1 0 0 1 0 -894)">
				<stop  offset="0" style="stop-color:#A6CE39"/>
				<stop  offset="0.5" style="stop-color:#03B585"/>
				<stop  offset="1" style="stop-color:#273470"/>
			</linearGradient>
			<polygon style="fill:url(#SVGID_00000005263228419379931430000009231743478137051289_);" points="123.86,155.87 150.6,140.15 
				150.6,171.38 			"/>
			
				<linearGradient id="SVGID_00000076594608045632077270000008498139454304600473_" gradientUnits="userSpaceOnUse" x1="248.1838" y1="921.3209" x2="56.8631" y2="1125.0316" gradientTransform="matrix(1 0 0 1 0 -894)">
				<stop  offset="0" style="stop-color:#A6CE39"/>
				<stop  offset="0.5" style="stop-color:#03B585"/>
				<stop  offset="1" style="stop-color:#273470"/>
			</linearGradient>
			<polygon style="fill:url(#SVGID_00000076594608045632077270000008498139454304600473_);" points="150.6,109.13 177.54,124.64 
				150.6,140.15 			"/>
			
				<linearGradient id="SVGID_00000030454711645889248870000010597014702503010720_" gradientUnits="userSpaceOnUse" x1="177.3983" y1="876.9431" x2="23.2885" y2="1041.014" gradientTransform="matrix(1 0 0 1 0 -894)">
				<stop  offset="0" style="stop-color:#A6CE39"/>
				<stop  offset="0.5" style="stop-color:#03B585"/>
				<stop  offset="1" style="stop-color:#273470"/>
			</linearGradient>
			<polygon style="fill:url(#SVGID_00000030454711645889248870000010597014702503010720_);" points="98.54,53.61 114.87,44.22 
				114.87,62.79 			"/>
			
				<linearGradient id="SVGID_00000088115024974719099640000001928623758167902386_" gradientUnits="userSpaceOnUse" x1="215.7074" y1="914.4768" x2="61.6177" y2="1078.5476" gradientTransform="matrix(1 0 0 1 0 -894)">
				<stop  offset="0" style="stop-color:#A6CE39"/>
				<stop  offset="0.5" style="stop-color:#03B585"/>
				<stop  offset="1" style="stop-color:#273470"/>
			</linearGradient>
			<polygon style="fill:url(#SVGID_00000088115024974719099640000001928623758167902386_);" points="156.11,70.55 172.44,61.16 
				172.44,79.94 			"/>
			
				<linearGradient id="SVGID_00000048474927711389434480000006885896916486007479_" gradientUnits="userSpaceOnUse" x1="255.567" y1="945.4998" x2="101.4776" y2="1109.5704" gradientTransform="matrix(1 0 0 1 0 -894)">
				<stop  offset="0" style="stop-color:#A6CE39"/>
				<stop  offset="0.5" style="stop-color:#03B585"/>
				<stop  offset="1" style="stop-color:#273470"/>
			</linearGradient>
			<polygon style="fill:url(#SVGID_00000048474927711389434480000006885896916486007479_);" points="212.65,84.02 228.77,93.21 
				212.65,102.6 			"/>
			
				<linearGradient id="SVGID_00000149345580064352223180000014439070784978165169_" gradientUnits="userSpaceOnUse" x1="268.0831" y1="963.5051" x2="113.9937" y2="1127.5759" gradientTransform="matrix(1 0 0 1 0 -894)">
				<stop  offset="0" style="stop-color:#A6CE39"/>
				<stop  offset="0.5" style="stop-color:#03B585"/>
				<stop  offset="1" style="stop-color:#273470"/>
			</linearGradient>
			<polygon style="fill:url(#SVGID_00000149345580064352223180000014439070784978165169_);" points="212.65,115.25 228.77,124.64 
				212.65,134.03 			"/>
			
				<linearGradient id="SVGID_00000115483117995950352710000014850988604767184043_" gradientUnits="userSpaceOnUse" x1="289.5341" y1="983.6129" x2="135.465" y2="1147.6429" gradientTransform="matrix(1 0 0 1 0 -894)">
				<stop  offset="0" style="stop-color:#A6CE39"/>
				<stop  offset="0.5" style="stop-color:#03B585"/>
				<stop  offset="1" style="stop-color:#273470"/>
			</linearGradient>
			<polygon style="fill:url(#SVGID_00000115483117995950352710000014850988604767184043_);" points="229.59,140.15 245.71,130.77 
				245.71,149.54 			"/>
			
				<linearGradient id="SVGID_00000075156298248124055330000003248676271441299613_" gradientUnits="userSpaceOnUse" x1="280.5467" y1="993.8488" x2="126.4571" y2="1157.9197" gradientTransform="matrix(1 0 0 1 0 -894)">
				<stop  offset="0" style="stop-color:#A6CE39"/>
				<stop  offset="0.5" style="stop-color:#03B585"/>
				<stop  offset="1" style="stop-color:#273470"/>
			</linearGradient>
			<polygon style="fill:url(#SVGID_00000075156298248124055330000003248676271441299613_);" points="183.25,190.16 199.38,180.77 
				199.38,199.55 			"/>
			
				<linearGradient id="SVGID_00000102537200387769892190000001471091634183566752_" gradientUnits="userSpaceOnUse" x1="235.0786" y1="970.749" x2="80.9891" y2="1134.8199" gradientTransform="matrix(1 0 0 1 0 -894)">
				<stop  offset="0" style="stop-color:#A6CE39"/>
				<stop  offset="0.5" style="stop-color:#03B585"/>
				<stop  offset="1" style="stop-color:#273470"/>
			</linearGradient>
			<polygon style="fill:url(#SVGID_00000102537200387769892190000001471091634183566752_);" points="98.54,208.74 114.87,199.15 
				114.87,218.13 			"/>
			
				<linearGradient id="SVGID_00000093890265124238551220000012211177269966396822_" gradientUnits="userSpaceOnUse" x1="194.0592" y1="927.6534" x2="39.9698" y2="1091.7242" gradientTransform="matrix(1 0 0 1 0 -894)">
				<stop  offset="0" style="stop-color:#A6CE39"/>
				<stop  offset="0.5" style="stop-color:#03B585"/>
				<stop  offset="1" style="stop-color:#273470"/>
			</linearGradient>
			<polygon style="fill:url(#SVGID_00000093890265124238551220000012211177269966396822_);" points="66.7,155.87 83.03,146.48 
				83.03,165.26 			"/>
			
				<linearGradient id="SVGID_00000089538899578828582100000002243305496792173754_" gradientUnits="userSpaceOnUse" x1="236.468" y1="1002.9245" x2="74.5404" y2="1002.9245" gradientTransform="matrix(1 0 0 1 0 -894)">
				<stop  offset="0" style="stop-color:#A6CE39"/>
				<stop  offset="0.5" style="stop-color:#03B585"/>
				<stop  offset="1" style="stop-color:#273470"/>
			</linearGradient>
			<polygon style="fill:url(#SVGID_00000089538899578828582100000002243305496792173754_);" points="178.36,96.47 199.99,108.92 
				178.36,121.38 			"/>
			
				<linearGradient id="SVGID_00000116935720152907054190000010641230685100933823_" gradientUnits="userSpaceOnUse" x1="238.6317" y1="1018.5396" x2="76.6632" y2="1018.5396" gradientTransform="matrix(1 0 0 1 0 -894)">
				<stop  offset="0" style="stop-color:#A6CE39"/>
				<stop  offset="0.5" style="stop-color:#03B585"/>
				<stop  offset="1" style="stop-color:#273470"/>
			</linearGradient>
			<polygon style="fill:url(#SVGID_00000116935720152907054190000010641230685100933823_);" points="180.6,124.64 202.24,111.99 
				202.24,137.09 			"/>
			
				<linearGradient id="SVGID_00000123443207438007206050000010712146426770682019_" gradientUnits="userSpaceOnUse" x1="238.6113" y1="1034.2567" x2="76.6836" y2="1034.2567" gradientTransform="matrix(1 0 0 1 0 -894)">
				<stop  offset="0" style="stop-color:#A6CE39"/>
				<stop  offset="0.5" style="stop-color:#03B585"/>
				<stop  offset="1" style="stop-color:#273470"/>
			</linearGradient>
			<polygon style="fill:url(#SVGID_00000123443207438007206050000010712146426770682019_);" points="180.6,127.7 202.24,140.15 
				180.6,152.81 			"/>
			
				<linearGradient id="SVGID_00000094591433329317303450000017307364886674586755_" gradientUnits="userSpaceOnUse" x1="238.6317" y1="1049.8718" x2="76.6632" y2="1049.8718" gradientTransform="matrix(1 0 0 1 0 -894)">
				<stop  offset="0" style="stop-color:#A6CE39"/>
				<stop  offset="0.5" style="stop-color:#03B585"/>
				<stop  offset="1" style="stop-color:#273470"/>
			</linearGradient>
			<polygon style="fill:url(#SVGID_00000094591433329317303450000017307364886674586755_);" points="180.6,155.87 202.24,143.42 
				202.24,168.32 			"/>
			
				<linearGradient id="SVGID_00000183220900427797776290000002976549664231133317_" gradientUnits="userSpaceOnUse" x1="236.468" y1="1065.4869" x2="74.5404" y2="1065.4869" gradientTransform="matrix(1 0 0 1 0 -894)">
				<stop  offset="0" style="stop-color:#A6CE39"/>
				<stop  offset="0.5" style="stop-color:#03B585"/>
				<stop  offset="1" style="stop-color:#273470"/>
			</linearGradient>
			<polygon style="fill:url(#SVGID_00000183220900427797776290000002976549664231133317_);" points="178.36,158.93 199.99,171.59 
				178.36,184.04 			"/>
			
				<linearGradient id="SVGID_00000012454854150915915860000013671617885758983610_" gradientUnits="userSpaceOnUse" x1="233.2021" y1="1067.0178" x2="71.2541" y2="1067.0178" gradientTransform="matrix(1 0 0 1 0 -894)">
				<stop  offset="0" style="stop-color:#A6CE39"/>
				<stop  offset="0.5" style="stop-color:#03B585"/>
				<stop  offset="1" style="stop-color:#273470"/>
			</linearGradient>
			<polygon style="fill:url(#SVGID_00000012454854150915915860000013671617885758983610_);" points="153.45,173.02 175.09,160.57 
				175.09,185.47 			"/>
			
				<linearGradient id="SVGID_00000097498388798305877120000002725869084840832681_" gradientUnits="userSpaceOnUse" x1="227.7929" y1="1082.6329" x2="65.8245" y2="1082.6329" gradientTransform="matrix(1 0 0 1 0 -894)">
				<stop  offset="0" style="stop-color:#A6CE39"/>
				<stop  offset="0.5" style="stop-color:#03B585"/>
				<stop  offset="1" style="stop-color:#273470"/>
			</linearGradient>
			<polygon style="fill:url(#SVGID_00000097498388798305877120000002725869084840832681_);" points="126.3,188.74 147.94,176.08 
				147.94,201.19 			"/>
			
				<linearGradient id="SVGID_00000159469321428162597160000002711701295169974958_" gradientUnits="userSpaceOnUse" x1="227.7725" y1="1067.0178" x2="65.8449" y2="1067.0178" gradientTransform="matrix(1 0 0 1 0 -894)">
				<stop  offset="0" style="stop-color:#A6CE39"/>
				<stop  offset="0.5" style="stop-color:#03B585"/>
				<stop  offset="1" style="stop-color:#273470"/>
			</linearGradient>
			<polygon style="fill:url(#SVGID_00000159469321428162597160000002711701295169974958_);" points="126.3,160.57 147.94,173.02 
				126.3,185.47 			"/>
			
				<linearGradient id="SVGID_00000075142347668802811950000016865644229664999557_" gradientUnits="userSpaceOnUse" x1="224.527" y1="1065.4869" x2="62.5586" y2="1065.4869" gradientTransform="matrix(1 0 0 1 0 -894)">
				<stop  offset="0" style="stop-color:#A6CE39"/>
				<stop  offset="0.5" style="stop-color:#03B585"/>
				<stop  offset="1" style="stop-color:#273470"/>
			</linearGradient>
			<polygon style="fill:url(#SVGID_00000075142347668802811950000016865644229664999557_);" points="101.4,171.59 123.04,158.93 
				123.04,184.04 			"/>
			
				<linearGradient id="SVGID_00000039850529136033537270000009059802839249116842_" gradientUnits="userSpaceOnUse" x1="222.3634" y1="1049.8718" x2="60.4153" y2="1049.8718" gradientTransform="matrix(1 0 0 1 0 -894)">
				<stop  offset="0" style="stop-color:#A6CE39"/>
				<stop  offset="0.5" style="stop-color:#03B585"/>
				<stop  offset="1" style="stop-color:#273470"/>
			</linearGradient>
			<polygon style="fill:url(#SVGID_00000039850529136033537270000009059802839249116842_);" points="120.79,155.87 99.16,168.32 
				99.16,143.42 			"/>
			
				<linearGradient id="SVGID_00000009572932359909852600000016745998357239136391_" gradientUnits="userSpaceOnUse" x1="222.3634" y1="1034.2567" x2="60.4153" y2="1034.2567" gradientTransform="matrix(1 0 0 1 0 -894)">
				<stop  offset="0" style="stop-color:#A6CE39"/>
				<stop  offset="0.5" style="stop-color:#03B585"/>
				<stop  offset="1" style="stop-color:#273470"/>
			</linearGradient>
			<polygon style="fill:url(#SVGID_00000009572932359909852600000016745998357239136391_);" points="99.16,140.15 120.79,127.7 
				120.79,152.81 			"/>
			
				<linearGradient id="SVGID_00000156560344891769862910000016090460813363068290_" gradientUnits="userSpaceOnUse" x1="222.3634" y1="1018.5396" x2="60.4153" y2="1018.5396" gradientTransform="matrix(1 0 0 1 0 -894)">
				<stop  offset="0" style="stop-color:#A6CE39"/>
				<stop  offset="0.5" style="stop-color:#03B585"/>
				<stop  offset="1" style="stop-color:#273470"/>
			</linearGradient>
			<polygon style="fill:url(#SVGID_00000156560344891769862910000016090460813363068290_);" points="99.16,111.99 120.79,124.64 
				99.16,137.09 			"/>
			
				<linearGradient id="SVGID_00000175304218512172003530000011335013072207319709_" gradientUnits="userSpaceOnUse" x1="224.527" y1="1002.9245" x2="62.5586" y2="1002.9245" gradientTransform="matrix(1 0 0 1 0 -894)">
				<stop  offset="0" style="stop-color:#A6CE39"/>
				<stop  offset="0.5" style="stop-color:#03B585"/>
				<stop  offset="1" style="stop-color:#273470"/>
			</linearGradient>
			<polygon style="fill:url(#SVGID_00000175304218512172003530000011335013072207319709_);" points="101.4,108.92 123.04,96.47 
				123.04,121.38 			"/>
			
				<linearGradient id="SVGID_00000020390929463749356370000017427310390342256570_" gradientUnits="userSpaceOnUse" x1="227.7929" y1="985.6765" x2="65.8245" y2="985.6765" gradientTransform="matrix(1 0 0 1 0 -894)">
				<stop  offset="0" style="stop-color:#A6CE39"/>
				<stop  offset="0.5" style="stop-color:#03B585"/>
				<stop  offset="1" style="stop-color:#273470"/>
			</linearGradient>
			<polygon style="fill:url(#SVGID_00000020390929463749356370000017427310390342256570_);" points="126.3,91.78 147.94,79.12 
				147.94,104.23 			"/>
			
				<linearGradient id="SVGID_00000066488362448782932440000015851129657991202716_" gradientUnits="userSpaceOnUse" x1="233.2021" y1="985.6765" x2="71.2541" y2="985.6765" gradientTransform="matrix(1 0 0 1 0 -894)">
				<stop  offset="0" style="stop-color:#A6CE39"/>
				<stop  offset="0.5" style="stop-color:#03B585"/>
				<stop  offset="1" style="stop-color:#273470"/>
			</linearGradient>
			<polygon style="fill:url(#SVGID_00000066488362448782932440000015851129657991202716_);" points="153.45,79.12 175.09,91.78 
				153.45,104.23 			"/>
			
				<linearGradient id="SVGID_00000110437942743434710310000003616387183829272216_" gradientUnits="userSpaceOnUse" x1="233.2021" y1="1001.3936" x2="71.2541" y2="1001.3936" gradientTransform="matrix(1 0 0 1 0 -894)">
				<stop  offset="0" style="stop-color:#A6CE39"/>
				<stop  offset="0.5" style="stop-color:#03B585"/>
				<stop  offset="1" style="stop-color:#273470"/>
			</linearGradient>
			<polygon style="fill:url(#SVGID_00000110437942743434710310000003616387183829272216_);" points="153.45,107.29 175.09,94.84 
				175.09,119.95 			"/>
			
				<linearGradient id="SVGID_00000010305939317626696860000010337366890575792272_" gradientUnits="userSpaceOnUse" x1="249.7766" y1="1049.7698" x2="48.6989" y2="1049.7698" gradientTransform="matrix(1 0 0 1 0 -894)">
				<stop  offset="0" style="stop-color:#A6CE39"/>
				<stop  offset="0.5" style="stop-color:#03B585"/>
				<stop  offset="1" style="stop-color:#273470"/>
			</linearGradient>
			<polygon style="fill:url(#SVGID_00000010305939317626696860000010337366890575792272_);" points="150.6,140.15 177.54,155.87 
				150.6,171.38 			"/>
			
				<linearGradient id="SVGID_00000093161847752567767700000003375506334264565178_" gradientUnits="userSpaceOnUse" x1="249.7766" y1="1034.2567" x2="48.6989" y2="1034.2567" gradientTransform="matrix(1 0 0 1 0 -894)">
				<stop  offset="0" style="stop-color:#A6CE39"/>
				<stop  offset="0.5" style="stop-color:#03B585"/>
				<stop  offset="1" style="stop-color:#273470"/>
			</linearGradient>
			<polygon style="fill:url(#SVGID_00000093161847752567767700000003375506334264565178_);" points="150.6,140.15 177.54,124.64 
				177.54,155.87 			"/>
			
				<linearGradient id="SVGID_00000011725660886196303870000012498754830264624042_" gradientUnits="userSpaceOnUse" x1="249.7561" y1="1034.2567" x2="48.7193" y2="1034.2567" gradientTransform="matrix(1 0 0 1 0 -894)">
				<stop  offset="0" style="stop-color:#A6CE39"/>
				<stop  offset="0.5" style="stop-color:#03B585"/>
				<stop  offset="1" style="stop-color:#273470"/>
			</linearGradient>
			<polygon style="fill:url(#SVGID_00000011725660886196303870000012498754830264624042_);" points="123.86,124.64 150.6,140.15 
				123.86,155.87 			"/>
			
				<linearGradient id="SVGID_00000145779816145797227910000012012177989082311056_" gradientUnits="userSpaceOnUse" x1="249.797" y1="1018.6417" x2="48.6785" y2="1018.6417" gradientTransform="matrix(1 0 0 1 0 -894)">
				<stop  offset="0" style="stop-color:#A6CE39"/>
				<stop  offset="0.5" style="stop-color:#03B585"/>
				<stop  offset="1" style="stop-color:#273470"/>
			</linearGradient>
			<polygon style="fill:url(#SVGID_00000145779816145797227910000012012177989082311056_);" points="123.86,124.64 150.6,109.13 
				150.6,140.15 			"/>
			
				<linearGradient id="SVGID_00000072968563222566719930000000455805300115672453_" gradientUnits="userSpaceOnUse" x1="227.9767" y1="969.449" x2="66.0286" y2="969.449" gradientTransform="matrix(1 0 0 1 0 -894)">
				<stop  offset="0" style="stop-color:#A6CE39"/>
				<stop  offset="0.5" style="stop-color:#03B585"/>
				<stop  offset="1" style="stop-color:#273470"/>
			</linearGradient>
			<polygon style="fill:url(#SVGID_00000072968563222566719930000000455805300115672453_);" points="146.31,75.45 129.98,84.84 
				129.98,66.06 			"/>
			
				<linearGradient id="SVGID_00000025409728186444670320000004236488778674838176_" gradientUnits="userSpaceOnUse" x1="226.6703" y1="939.4435" x2="64.7223" y2="939.4435" gradientTransform="matrix(1 0 0 1 0 -894)">
				<stop  offset="0" style="stop-color:#A6CE39"/>
				<stop  offset="0.5" style="stop-color:#03B585"/>
				<stop  offset="1" style="stop-color:#273470"/>
			</linearGradient>
			<polygon style="fill:url(#SVGID_00000025409728186444670320000004236488778674838176_);" points="123.45,45.44 139.78,36.05 
				139.78,54.83 			"/>
			
				<linearGradient id="SVGID_00000113329639524158325050000005781811110050154630_" gradientUnits="userSpaceOnUse" x1="233.5899" y1="942.3011" x2="71.6419" y2="942.3011" gradientTransform="matrix(1 0 0 1 0 -894)">
				<stop  offset="0" style="stop-color:#A6CE39"/>
				<stop  offset="0.5" style="stop-color:#03B585"/>
				<stop  offset="1" style="stop-color:#273470"/>
			</linearGradient>
			<polygon style="fill:url(#SVGID_00000113329639524158325050000005781811110050154630_);" points="158.15,38.91 174.27,48.3 
				158.15,57.69 			"/>
			
				<linearGradient id="SVGID_00000074404999879290144940000012806346143175855515_" gradientUnits="userSpaceOnUse" x1="249.3887" y1="953.3235" x2="87.4611" y2="953.3235" gradientTransform="matrix(1 0 0 1 0 -894)">
				<stop  offset="0" style="stop-color:#A6CE39"/>
				<stop  offset="0.5" style="stop-color:#03B585"/>
				<stop  offset="1" style="stop-color:#273470"/>
			</linearGradient>
			<polygon style="fill:url(#SVGID_00000074404999879290144940000012806346143175855515_);" points="194.07,49.93 210.2,59.32 
				194.07,68.71 			"/>
			
				<linearGradient id="SVGID_00000124156852418026562380000008886415446301979823_" gradientUnits="userSpaceOnUse" x1="237.6519" y1="981.6961" x2="75.7039" y2="981.6961" gradientTransform="matrix(1 0 0 1 0 -894)">
				<stop  offset="0" style="stop-color:#A6CE39"/>
				<stop  offset="0.5" style="stop-color:#03B585"/>
				<stop  offset="1" style="stop-color:#273470"/>
			</linearGradient>
			<polygon style="fill:url(#SVGID_00000124156852418026562380000008886415446301979823_);" points="178.36,87.7 194.68,78.31 
				194.68,97.09 			"/>
			
				<linearGradient id="SVGID_00000006669707689326663720000006752685431496820896_" gradientUnits="userSpaceOnUse" x1="246.5311" y1="1001.6998" x2="84.583" y2="1001.6998" gradientTransform="matrix(1 0 0 1 0 -894)">
				<stop  offset="0" style="stop-color:#A6CE39"/>
				<stop  offset="0.5" style="stop-color:#03B585"/>
				<stop  offset="1" style="stop-color:#273470"/>
			</linearGradient>
			<polygon style="fill:url(#SVGID_00000006669707689326663720000006752685431496820896_);" points="222.85,107.7 238.98,98.31 
				238.98,117.09 			"/>
			
				<linearGradient id="SVGID_00000117669397787215898200000011409134301217381508_" gradientUnits="userSpaceOnUse" x1="244.2858" y1="1050.8925" x2="82.3377" y2="1050.8925" gradientTransform="matrix(1 0 0 1 0 -894)">
				<stop  offset="0" style="stop-color:#A6CE39"/>
				<stop  offset="0.5" style="stop-color:#03B585"/>
				<stop  offset="1" style="stop-color:#273470"/>
			</linearGradient>
			<polygon style="fill:url(#SVGID_00000117669397787215898200000011409134301217381508_);" points="211.63,166.28 211.63,147.5 
				227.75,156.89 			"/>
			
				<linearGradient id="SVGID_00000059311396565508433590000004627157244562865570_" gradientUnits="userSpaceOnUse" x1="244.5103" y1="1065.589" x2="82.5418" y2="1065.589" gradientTransform="matrix(1 0 0 1 0 -894)">
				<stop  offset="0" style="stop-color:#A6CE39"/>
				<stop  offset="0.5" style="stop-color:#03B585"/>
				<stop  offset="1" style="stop-color:#273470"/>
			</linearGradient>
			<polygon style="fill:url(#SVGID_00000059311396565508433590000004627157244562865570_);" points="212.65,171.59 228.77,162.2 
				228.77,180.98 			"/>
			
				<linearGradient id="SVGID_00000016760743312447130030000014356237818587913360_" gradientUnits="userSpaceOnUse" x1="254.4917" y1="1099.6769" x2="92.5437" y2="1099.6769" gradientTransform="matrix(1 0 0 1 0 -894)">
				<stop  offset="0" style="stop-color:#A6CE39"/>
				<stop  offset="0.5" style="stop-color:#03B585"/>
				<stop  offset="1" style="stop-color:#273470"/>
			</linearGradient>
			<polygon style="fill:url(#SVGID_00000016760743312447130030000014356237818587913360_);" points="227.96,196.29 244.29,205.68 
				227.96,215.07 			"/>
			
				<linearGradient id="SVGID_00000071551630279444536130000014113584415889694854_" gradientUnits="userSpaceOnUse" x1="239.3052" y1="1105.5963" x2="77.3368" y2="1105.5963" gradientTransform="matrix(1 0 0 1 0 -894)">
				<stop  offset="0" style="stop-color:#A6CE39"/>
				<stop  offset="0.5" style="stop-color:#03B585"/>
				<stop  offset="1" style="stop-color:#273470"/>
			</linearGradient>
			<polygon style="fill:url(#SVGID_00000071551630279444536130000014113584415889694854_);" points="186.52,220.99 186.52,202.21 
				202.85,211.6 			"/>
			
				<linearGradient id="SVGID_00000047754409847765484020000005759784678746014374_" gradientUnits="userSpaceOnUse" x1="233.2021" y1="1099.2687" x2="71.2541" y2="1099.2687" gradientTransform="matrix(1 0 0 1 0 -894)">
				<stop  offset="0" style="stop-color:#A6CE39"/>
				<stop  offset="0.5" style="stop-color:#03B585"/>
				<stop  offset="1" style="stop-color:#273470"/>
			</linearGradient>
			<polygon style="fill:url(#SVGID_00000047754409847765484020000005759784678746014374_);" points="156.11,205.27 172.44,195.88 
				172.44,214.66 			"/>
			
				<linearGradient id="SVGID_00000183218136712561969710000005297765211168495755_" gradientUnits="userSpaceOnUse" x1="225.9559" y1="1133.3566" x2="63.9874" y2="1133.3566" gradientTransform="matrix(1 0 0 1 0 -894)">
				<stop  offset="0" style="stop-color:#A6CE39"/>
				<stop  offset="0.5" style="stop-color:#03B585"/>
				<stop  offset="1" style="stop-color:#273470"/>
			</linearGradient>
			<polygon style="fill:url(#SVGID_00000183218136712561969710000005297765211168495755_);" points="119.77,239.36 136.1,229.97 
				136.1,248.75 			"/>
			
				<linearGradient id="SVGID_00000080899089566607015210000008344785613308976037_" gradientUnits="userSpaceOnUse" x1="228.1195" y1="1100.3914" x2="66.1919" y2="1100.3914" gradientTransform="matrix(1 0 0 1 0 -894)">
				<stop  offset="0" style="stop-color:#A6CE39"/>
				<stop  offset="0.5" style="stop-color:#03B585"/>
				<stop  offset="1" style="stop-color:#273470"/>
			</linearGradient>
			<polygon style="fill:url(#SVGID_00000080899089566607015210000008344785613308976037_);" points="130.8,196.9 146.92,206.29 
				130.8,215.88 			"/>
			
				<linearGradient id="SVGID_00000015325436399174577680000001989312596252203663_" gradientUnits="userSpaceOnUse" x1="222.3634" y1="1084.1638" x2="60.4153" y2="1084.1638" gradientTransform="matrix(1 0 0 1 0 -894)">
				<stop  offset="0" style="stop-color:#A6CE39"/>
				<stop  offset="0.5" style="stop-color:#03B585"/>
				<stop  offset="1" style="stop-color:#273470"/>
			</linearGradient>
			<polygon style="fill:url(#SVGID_00000015325436399174577680000001989312596252203663_);" points="101.81,180.77 118.14,190.16 
				101.81,199.55 			"/>
			
				<linearGradient id="SVGID_00000160882012031409013920000008777354046362700163_" gradientUnits="userSpaceOnUse" x1="201.9106" y1="1097.4316" x2="39.9422" y2="1097.4316" gradientTransform="matrix(1 0 0 1 0 -894)">
				<stop  offset="0" style="stop-color:#A6CE39"/>
				<stop  offset="0.5" style="stop-color:#03B585"/>
				<stop  offset="1" style="stop-color:#273470"/>
			</linearGradient>
			<polygon style="fill:url(#SVGID_00000160882012031409013920000008777354046362700163_);" points="59.76,203.43 76.09,194.04 
				76.09,212.82 			"/>
			
				<linearGradient id="SVGID_00000169559794920987328040000017298249053166720407_" gradientUnits="userSpaceOnUse" x1="206.3196" y1="1031.6031" x2="44.3716" y2="1031.6031" gradientTransform="matrix(1 0 0 1 0 -894)">
				<stop  offset="0" style="stop-color:#A6CE39"/>
				<stop  offset="0.5" style="stop-color:#03B585"/>
				<stop  offset="1" style="stop-color:#273470"/>
			</linearGradient>
			<polygon style="fill:url(#SVGID_00000169559794920987328040000017298249053166720407_);" points="62.42,128.32 78.54,137.71 
				62.42,146.89 			"/>
			
				<linearGradient id="SVGID_00000009560027254838441390000015839447268387716511_" gradientUnits="userSpaceOnUse" x1="216.7093" y1="1018.6417" x2="54.7408" y2="1018.6417" gradientTransform="matrix(1 0 0 1 0 -894)">
				<stop  offset="0" style="stop-color:#A6CE39"/>
				<stop  offset="0.5" style="stop-color:#03B585"/>
				<stop  offset="1" style="stop-color:#273470"/>
			</linearGradient>
			<polygon style="fill:url(#SVGID_00000009560027254838441390000015839447268387716511_);" points="73.64,124.64 89.77,115.25 
				89.77,134.03 			"/>
			
				<linearGradient id="SVGID_00000075884637915052505860000012833076653732345751_" gradientUnits="userSpaceOnUse" x1="212.484" y1="1002.9245" x2="50.5564" y2="1002.9245" gradientTransform="matrix(1 0 0 1 0 -894)">
				<stop  offset="0" style="stop-color:#A6CE39"/>
				<stop  offset="0.5" style="stop-color:#03B585"/>
				<stop  offset="1" style="stop-color:#273470"/>
			</linearGradient>
			<polygon style="fill:url(#SVGID_00000075884637915052505860000012833076653732345751_);" points="52.62,99.54 68.95,108.92 
				52.62,118.31 			"/>
			
				<linearGradient id="SVGID_00000154422026686663953230000015161527982545586562_" gradientUnits="userSpaceOnUse" x1="215.1376" y1="981.9002" x2="53.1691" y2="981.9002" gradientTransform="matrix(1 0 0 1 0 -894)">
				<stop  offset="0" style="stop-color:#A6CE39"/>
				<stop  offset="0.5" style="stop-color:#03B585"/>
				<stop  offset="1" style="stop-color:#273470"/>
			</linearGradient>
			<polygon style="fill:url(#SVGID_00000154422026686663953230000015161527982545586562_);" points="65.68,87.9 82.01,78.51 
				82.01,97.29 			"/>
			
				<linearGradient id="SVGID_00000136381298163323129950000003492222410246583698_" gradientUnits="userSpaceOnUse" x1="222.3634" y1="979.859" x2="60.4153" y2="979.859" gradientTransform="matrix(1 0 0 1 0 -894)">
				<stop  offset="0" style="stop-color:#A6CE39"/>
				<stop  offset="0.5" style="stop-color:#03B585"/>
				<stop  offset="1" style="stop-color:#273470"/>
			</linearGradient>
			<polygon style="fill:url(#SVGID_00000136381298163323129950000003492222410246583698_);" points="101.81,76.47 118.14,85.86 
				101.81,95.25 			"/>
			
				<linearGradient id="SVGID_00000037692451683273616470000018251306045089855929_" gradientUnits="userSpaceOnUse" x1="188.745" y1="1070.8961" x2="26.7969" y2="1070.8961" gradientTransform="matrix(1 0 0 1 0 -894)">
				<stop  offset="0" style="stop-color:#A6CE39"/>
				<stop  offset="0.5" style="stop-color:#03B585"/>
				<stop  offset="1" style="stop-color:#273470"/>
			</linearGradient>
			<polygon style="fill:url(#SVGID_00000037692451683273616470000018251306045089855929_);" points="56.7,168.73 70.78,176.9 
				56.7,185.06 			"/>
			
				<linearGradient id="SVGID_00000167376505569528789680000012027221095992426150_" gradientUnits="userSpaceOnUse" x1="233.2021" y1="1125.6" x2="71.2541" y2="1125.6" gradientTransform="matrix(1 0 0 1 0 -894)">
				<stop  offset="0" style="stop-color:#A6CE39"/>
				<stop  offset="0.5" style="stop-color:#03B585"/>
				<stop  offset="1" style="stop-color:#273470"/>
			</linearGradient>
			<polygon style="fill:url(#SVGID_00000167376505569528789680000012027221095992426150_);" points="156.11,240.99 156.11,222.21 
				172.44,231.6 172.44,231.6 			"/>
		</g>
	</g>
</g>
</svg>
