<?xml version="1.0" encoding="utf-8"?>
<!-- Generator: Adobe Illustrator 26.0.1, SVG Export Plug-In . SVG Version: 6.00 Build 0)  -->
<svg version="1.1" id="Layer_1" xmlns="http://www.w3.org/2000/svg" xmlns:xlink="http://www.w3.org/1999/xlink" x="0px" y="0px"
	 viewBox="39.4 125.4 952.8 103.7" style="enable-background:new 0 0 1034.8 356.1;" xml:space="preserve">
<style type="text/css">
	.st0{fill:#3D3935;}
	.st1{fill:#00758D;}
</style>
<g>
	<path class="st0" d="M408,224.1l1.3-5.9c2.9,1.2,5.9,1.8,9,1.9c3.8,0,5.7-1.3,5.7-3.9c0.1-1.2-0.4-2.4-1.4-3.2
		c-1.6-1-3.4-1.7-5.2-2.2c-2.6-0.8-4.9-2.1-6.9-3.9c-1.6-1.7-2.5-4-2.3-6.4c-0.2-2.8,1-5.5,3.1-7.3c2.1-1.7,5-2.6,8.7-2.6
		c3.2-0.1,6.3,0.5,9.2,1.8l-1.4,5.8c-2.4-1-4.9-1.5-7.4-1.5c-3.4,0-5.1,1.2-5.1,3.6c-0.1,1.1,0.4,2.1,1.2,2.8
		c1.3,0.9,2.8,1.6,4.4,2.1c1.4,0.5,2.8,1,4.1,1.6c1.1,0.5,2.2,1.2,3.2,2s1.8,1.8,2.3,3c0.5,1.4,0.8,2.8,0.7,4.2
		c0.1,2.9-1.1,5.7-3.4,7.4c-2.3,1.8-5.3,2.6-9,2.6C414.9,226.1,411.3,225.4,408,224.1"/>
	<path class="st0" d="M457.2,225.5l-2.1-7.6h-12.6c-0.7,2.3-1.4,4.8-2.1,7.6h-7.2c3.9-14.3,7.9-25.8,11.9-34.3h7.3
		c4.1,8.8,8.1,20.2,12,34.3H457.2z M448.8,198.6c-1.8,4.3-3.3,8.8-4.6,13.3h9.2C452.1,207.4,450.6,202.9,448.8,198.6"/>
	<path class="st0" d="M465.7,211.8v-20.7h7v20.2c0,5.7,2.2,8.5,6.6,8.5s6.6-2.8,6.6-8.5v-20.2h7v20.7c0,4.6-1.2,8.1-3.5,10.6
		s-5.7,3.7-10.1,3.7s-7.8-1.2-10.1-3.7C466.8,220,465.7,216.5,465.7,211.8"/>
	<path class="st0" d="M499.7,225.5v-34.3h11.5c5.2,0,9.3,1.5,12.4,4.6c3.1,3.1,4.6,7.2,4.6,12.5s-1.6,9.5-4.7,12.6
		c-3.1,3.1-7.2,4.6-12.4,4.6L499.7,225.5L499.7,225.5z M511,197.1h-4.3v22.4h4.3c6.7,0,10-3.8,10-11.3
		C521,200.8,517.7,197.1,511,197.1"/>
	<rect x="533.6" y="191.1" class="st0" width="7" height="34.3"/>
	<path class="st0" d="M580.3,225.5l-2.1-7.6h-12.7c-0.7,2.3-1.4,4.8-2.1,7.6h-7.2c3.9-14.3,7.9-25.8,11.9-34.3h7.3
		c4.1,8.8,8.1,20.2,12,34.3H580.3z M571.9,198.6c-1.8,4.3-3.3,8.8-4.6,13.3h9.2C575.2,207.4,573.7,202.9,571.9,198.6"/>
	<path class="st0" d="M601,212.7h-2.1v12.8h-7v-34.3H602c4.3,0,7.6,0.9,10,2.6c2.4,1.8,3.7,4.6,3.6,7.6c0,4.9-2.3,8-6.8,9.2
		c1.5,0.6,2.8,2.1,4.1,4.6l5,10.4h-7.5l-4.7-9.7c-0.4-0.9-1.1-1.7-1.9-2.3C602.9,212.9,602,212.7,601,212.7 M601.6,197.1h-2.8v9.7
		h2.7c4.4,0,6.7-1.6,6.7-4.9c0.2-1.5-0.5-2.9-1.7-3.7C605,197.4,603.2,197,601.6,197.1"/>
	<path class="st0" d="M643.6,225.5l-2.1-7.6h-12.7c-0.7,2.3-1.4,4.8-2.1,7.6h-7.2c3.9-14.3,7.9-25.8,11.9-34.3h7.4
		c4.1,8.8,8.1,20.2,12,34.3H643.6z M635.2,198.6c-1.8,4.3-3.3,8.8-4.6,13.3h9.2C638.5,207.4,637,202.9,635.2,198.6"/>
	<path class="st0" d="M666.7,225.5h-11.6v-34.3h10.6c4,0,7.1,0.8,9.3,2.3s3.5,4,3.4,6.6c0.2,2.9-1.3,5.6-3.8,7.1
		c3.4,1.6,5.1,4.3,5.1,8.2c0,3.4-1.1,5.9-3.4,7.6S670.7,225.5,666.7,225.5 M661.9,197.1v8.3h5c2.9,0,4.4-1.4,4.4-4.3
		c0-2.7-1.9-4-5.7-4H661.9z M661.9,210.7v8.8h4.2c1.7,0.1,3.4-0.3,4.9-1c1.1-0.7,1.8-2,1.6-3.3c0-3-2-4.5-5.9-4.5H661.9z"/>
	<rect x="684.8" y="191.1" class="st0" width="7" height="34.3"/>
	<path class="st0" d="M720.1,225.5l-2.1-7.6h-12.7c-0.7,2.3-1.4,4.8-2.1,7.6H696c3.9-14.3,7.9-25.8,11.9-34.3h7.3
		c4.1,8.8,8.1,20.2,12,34.3H720.1z M711.7,198.6c-1.8,4.3-3.4,8.8-4.6,13.3h9.2C715,207.4,713.5,202.9,711.7,198.6"/>
	<path class="st0" d="M752.2,212.7h-2.1v12.8H743v-34.3h10.1c4.3,0,7.6,0.9,10,2.6c2.4,1.8,3.7,4.6,3.6,7.6c0,4.9-2.3,8-6.8,9.2
		c1.5,0.6,2.8,2.1,4.1,4.6l5,10.4h-7.5l-4.7-9.7c-0.4-0.9-1.1-1.7-1.9-2.3C754,212.9,753.1,212.7,752.2,212.7 M752.8,197.1h-2.7v9.7
		h2.7c4.4,0,6.7-1.6,6.7-4.9c0.1-1.4-0.5-2.8-1.7-3.7C756.3,197.4,754.6,197,752.8,197.1"/>
	<path class="st0" d="M794.8,225.5l-2.1-7.6H780c-0.7,2.3-1.4,4.8-2.1,7.6h-7.2c3.9-14.3,7.9-25.8,11.9-34.3h7.3
		c4.1,8.8,8.1,20.2,12,34.3H794.8z M786.4,198.6c-1.8,4.3-3.4,8.8-4.6,13.3h9.2C789.7,207.4,788.2,202.9,786.4,198.6"/>
	<rect x="806.3" y="191.1" class="st0" width="7" height="34.3"/>
	<polygon class="st0" points="820.4,225.5 820.4,191.1 827.4,191.1 827.4,219.5 841.3,219.5 841.3,225.5 	"/>
	<path class="st0" d="M873.7,218.9c1-3.1,2.2-7.2,3.4-12.5s2.2-10.3,2.8-15.3h7.2c-2.3,14.1-5.4,25.6-9.3,34.3h-7.7
		c-2.7-7-4.8-14.1-6.4-21.4c-1.6,7.3-3.8,14.4-6.4,21.4h-7.7c-2.2-5.3-3.9-10.7-5.3-16.2c-1.6-6.2-2.9-12.2-3.9-18.1h7.1
		c0.8,5,1.7,10.1,2.9,15.4c0.9,4.2,2,8.3,3.4,12.3c1.5-4.2,2.8-8.5,3.8-12.8c1.3-4.9,2.3-9.9,3-14.9h6.3c0.7,5.1,1.7,10.1,3,15.1
		C870.9,210.5,872.2,214.7,873.7,218.9"/>
	<path class="st0" d="M910,225.5l-2.1-7.6h-12.7c-0.7,2.3-1.4,4.8-2.1,7.6H886c3.9-14.3,7.9-25.8,11.9-34.3h7.3
		c4.2,8.8,8.2,20.2,12,34.3H910z M901.6,198.6c-1.8,4.3-3.4,8.8-4.6,13.3h9.2C904.9,207.4,903.3,202.9,901.6,198.6"/>
	<path class="st0" d="M928.3,225.5h-7v-13.7c-5.6-8-9.4-14.9-11.4-20.6h7.2c2,5.2,4.6,10.3,7.7,14.9c3.1-4.7,5.7-9.7,7.7-14.9h7.2
		c-2.2,5.9-5.9,12.8-11.4,20.6V225.5z"/>
	<path class="st0" d="M941.7,224.1l1.3-5.9c2.9,1.2,5.9,1.8,9,1.9c3.8,0,5.7-1.3,5.7-3.9c0.1-1.2-0.5-2.4-1.5-3.2
		c-1.6-1-3.4-1.7-5.2-2.2c-2.6-0.8-4.9-2.1-6.9-3.9c-1.6-1.7-2.5-4-2.3-6.4c-0.2-2.8,1-5.5,3.1-7.3c2.1-1.7,5-2.6,8.7-2.6
		c3.2-0.1,6.3,0.5,9.2,1.8l-1.4,5.8c-2.3-1-4.9-1.5-7.4-1.5c-3.4,0-5.2,1.2-5.2,3.6c-0.1,1.1,0.4,2.1,1.2,2.8
		c1.3,0.9,2.8,1.6,4.4,2.1c1.4,0.5,2.8,1,4.1,1.6c1.1,0.5,2.2,1.2,3.2,2s1.8,1.8,2.3,3c0.5,1.4,0.8,2.8,0.7,4.2
		c0.1,2.9-1.1,5.7-3.4,7.4c-2.3,1.8-5.3,2.6-9,2.6C948.7,226.1,945.1,225.4,941.7,224.1"/>
	<polygon class="st1" points="157,223.7 188.4,223.7 217.8,128.5 207.2,128.5 	"/>
	<polygon class="st1" points="232.8,128.5 222.3,128.5 251.7,223.7 283,223.7 	"/>
	<path class="st0" d="M71.4,205.2v18.4H124c15.7-0.1,28.3-12.9,28.2-28.6s-12.9-28.3-28.6-28.2l0,0H95.2c-5.4,0-9.9-4.4-9.9-9.9
		v-0.2c0-5.4,4.4-9.9,9.9-9.9h47.4v-18.5h-48c-15.7,0.1-28.3,12.9-28.2,28.6c0.1,15.7,12.9,28.3,28.6,28.2h28.3
		c5.4,0,9.9,4.4,9.9,9.9v0.2c0,5.4-4.4,9.9-9.9,9.9H71.4V205.2z"/>
	<path class="st0" d="M297.9,223.7h18c0.1,0,0.2-0.1,0.2-0.2l0,0v-76.4c0-0.1,0.1-0.2,0.2-0.2l0,0h32c5.6,0,10.1,4.5,10.1,10.1
		c0,5.4-4.4,9.9-9.9,9.9h-22.4c-0.1,0-0.2,0.1-0.2,0.2v0.1l32,56.3c0,0.1,0.1,0.1,0.2,0.1H378c0.1,0,0.2-0.1,0.2-0.2v-0.1L357,186.6
		l-1-1.8c-0.1-0.1,0-0.2,0.1-0.3l0,0l2-0.7c14.8-5.2,22.5-21.5,17.3-36.3c-3.8-10.7-13.6-18.1-24.9-18.9c-0.5,0-1-0.1-1.5-0.1h-51.2
		c-0.1,0-0.2,0.1-0.2,0.2v94.9C297.7,223.6,297.8,223.7,297.9,223.7L297.9,223.7"/>
	<polygon class="st0" points="424.3,134.1 428.1,137.8 432.7,133.1 428,128.5 424.3,132.2 420.5,128.5 415.9,133.1 420.5,137.8 	"/>
	<path class="st0" d="M418.1,161.1c-2.9,0-4.5-1.5-4.5-3.9c0-3.9,3.4-6.9,9.5-8.1v8.1c0,1,0.1,2,0.2,2.9
		C421.6,160.8,419.9,161.1,418.1,161.1 M432.7,167.5h4.1c7.2,0,11-3.8,11-9.8c0-3.3-0.5-7.1-1.5-14.3H440c1.1,7,1.5,10.5,1.5,13.2
		s-1.1,4.3-4.8,4.3h-4.1c-2.6,0-3.4-1.3-3.4-3.5v-16.6H423v2.7c-11.6,1.9-15.6,8.9-15.6,14.3c0,6,4.1,9.7,10.5,9.7
		c2.7,0,5-1,7.7-2.5C427.6,166.8,430.1,167.6,432.7,167.5"/>
	<polygon class="st0" points="440,174 436.3,170.5 431.7,175.1 436.4,179.7 440,176.1 443.7,179.7 448.3,175.1 443.6,170.5 	"/>
	<path class="st0" d="M459.6,143.4c3.4,7,5.2,12.8,5.2,14.6c0,2.1-1.5,2.9-5.1,2.9c-2.8,0-5.5-0.4-8.2-1.2l-1.2,6.2
		c3.5,1,7.1,1.5,10.8,1.5c6.5,0,9.8-3.1,9.8-8.5c0-3.4-1.9-9.4-5.1-15.6L459.6,143.4z"/>
	<path class="st0" d="M515.6,159.8c-1.9-3.4-4-6.6-6.5-9.5c1.9-0.8,3.9-1.3,5.9-1.4c3.9,0,6.1,1.7,6.1,4.3S518.8,158.3,515.6,159.8
		 M488.4,161.1c-5,0-7.7-1.9-7.7-5.7c0-3.5,2.4-5.9,5.3-5.9s4.7,1.8,4.9,5.7c0.1,1.8,0.2,3.6,0.3,5.8
		C490.5,161,489.7,161.1,488.4,161.1 M579.9,156.7c0,2.9-1.1,4.3-4.8,4.3c-2.1,0-4.1-0.5-5.9-1.5c0.8-3.4,1.2-6.8,1.1-10.3v-3.5
		h-5.8v3.5c0,4.7-0.2,7.7-1.1,9.5c-0.8,1.8-2.1,2.3-4.3,2.3c-1.7,0-3.4-0.4-4.9-1.1c0.9-3.5,1.3-7.1,1.2-10.6h-5.8
		c0,4.7-0.2,7.7-1.1,9.5c-0.9,1.8-2.1,2.3-4.3,2.3c-1.8,0-3.6-0.5-5.2-1.3c0.8-3.4,1.2-7,1.1-10.5h-5.8c0,4.7-0.2,7.7-1.1,9.5
		c-0.6,1.6-2.1,2.5-3.8,2.3l0,0l0,0c-2.2,0-4.4-0.1-6.6-0.4c2.7-2.2,4.3-5.5,4.4-9c0-5-4.6-9.1-11.6-9.1c-4.3,0-9.8,2-15.4,5.7
		l2.6,5.2c0.5-0.2,0.9-0.5,1.4-0.8c2.2,2.4,4.1,5,5.6,7.8c-3.2,0.4-6.4,0.6-9.7,0.5h-2.8c0-2.7-0.1-4.5-0.2-6.2
		c-0.4-7.4-4.6-11.7-10.8-11.7c-6.6,0-11.6,5.3-11.6,12.5c0,7.4,5.1,11.9,13,11.9h3.4c-1.1,3.1-5.2,5-12.1,5v5.7
		c12.3,0,17.5-4.3,18.4-10.7h2.8c7.6,0,11.2-0.5,16.3-2.7c4.1,1.9,8.5,2.8,13,2.7l0,0l0,0c2.8,0.1,5.5-1.1,7.3-3.2
		c3.3,2.2,5.4,3.2,7.9,3.2c2.7,0.1,5.3-1,7.1-3.1c3.2,2.1,5.3,3.1,7.7,3.1c2.9,0.1,5.7-1.1,7.6-3.4c2.1,2.1,5,3.3,8,3.4l0,0
		c7.2,0,11-3.8,11-9.8v-26.2h-6.2L579.9,156.7L579.9,156.7z"/>
	<rect x="594.2" y="131.6" class="st0" width="6.2" height="35.9"/>
	<polygon class="st0" points="633.6,134.1 637.4,137.8 642,133.1 637.3,128.5 633.6,132.2 629.8,128.5 625.2,133.1 629.8,137.8 	"/>
	<polygon class="st0" points="649.3,174 645.6,170.5 641,175.1 645.7,179.7 649.3,176.1 653,179.7 657.6,175.1 652.9,170.5 	"/>
	<path class="st0" d="M627.4,161.1c-2.9,0-4.5-1.5-4.5-3.9c0-3.9,3.4-6.9,9.5-8.1v8.1c0,1,0.1,2,0.2,2.9
		C630.9,160.8,629.1,161.1,627.4,161.1 M642,167.5h4.1c7.2,0,11-3.8,11-9.8c0-3.3-0.5-7.1-1.5-14.3h-6.2c1.1,7,1.5,10.5,1.5,13.2
		s-1.1,4.3-4.8,4.3H642c-2.6,0-3.4-1.3-3.4-3.5v-16.6h-6.2v2.7c-11.6,1.9-15.6,8.9-15.6,14.3c0,6,4.1,9.7,10.5,9.7
		c2.7,0,5-1,7.7-2.5C636.5,166.6,638.9,167.5,642,167.5"/>
	<path class="st0" d="M684.5,167.5h4.1c7.2,0,11-3.8,11-9.8c0-3.3-0.4-7.1-1.5-14.3h-6.2c1.1,7,1.5,10.5,1.5,13.2s-1.2,4.3-4.8,4.3
		h-4.1c-2.6,0-4.4-1.4-5.2-4.3c-1.1-3.4-1.8-8.2-2.6-13.2h-6.4c0.8,5.2,2.1,10.4,3.6,15.4l0.6,1.5c-1.9,0.4-3.9,0.6-5.8,0.5
		c-2.6,0-5.2-0.4-7.7-1.2l-1.2,6.2c2.8,1,5.7,1.5,8.7,1.5c3.2,0,6.3-0.9,9-2.7C679.3,166.6,681.8,167.6,684.5,167.5"/>
	<polygon class="st0" points="691.8,174 688.1,170.5 683.5,175.1 688.2,179.7 691.8,176.1 695.5,179.7 700.1,175.1 695.4,170.5 	"/>
	<path class="st0" d="M763,156.7c0,2.9-1.1,4.3-4.8,4.3c-3,0-4.7-0.7-5.4-1.9l1.5-0.3l1.8-6.3c-9.1-2.3-12.4-9.4-19.9-9.4
		c-2.5,0.1-4.9,0.8-7,2l1.7,5.6c1.6-0.7,3.3-1.1,5-1.1c4.4,0,6.8,3.2,12.4,5.9c-5.8,2.2-9.8,5.5-21.3,5.5l0,0
		c-2.6,0-4.4-1.4-5.3-4.3c-1.1-3.4-1.8-8.2-2.6-13.2h-6.4c0.8,5.2,2.1,10.4,3.6,15.4l0.6,1.5c-1.9,0.4-3.9,0.6-5.8,0.5
		c-2.6,0-5.2-0.4-7.7-1.2l-1.2,6.2c2.8,1,5.7,1.6,8.6,1.6c3.2,0,6.3-0.9,9-2.7c1.9,1.8,4.5,2.8,7.1,2.7l0,0
		c13.1,0,15.2-4.6,21.9-7.2c0.6,4.8,3.8,7.2,9.3,7.2c7.2,0,11-3.8,11-9.8v-26.2H763V156.7z"/>
	<rect x="777.2" y="131.6" class="st0" width="6.2" height="35.9"/>
	<path class="st0" d="M818.1,160.9c-2.7,0-5.2-0.1-7.6-0.3c8.9-9.7,12.1-13,16.6-13c3.3,0,5.8,2.3,5.8,5.4
		C832.8,157.6,827,160.9,818.1,160.9 M828.2,141.1c-5.2,0-9.5,2.9-17,11.2c0.8-3.2,1.2-6.4,1.3-9.6v-11.1h-6.2v26.3
		c-0.5,0.7-1.1,1.3-1.7,2c-1.5-0.2-3-0.5-4.5-0.8l-1.3,6.2c6.1,1.4,12.4,2.2,18.7,2.2c13.8,0,21.5-6.1,21.5-15.3
		C839.1,145.9,834.6,141.1,828.2,141.1"/>
	<polygon class="st0" points="926,135.4 921.3,130.8 916.7,135.4 921.4,140 	"/>
	<path class="st0" d="M884.8,160.9h-7.7c8.6-9.6,12.2-13.3,16.6-13.3c3-0.2,5.6,2.1,5.7,5.1c0,0.1,0,0.2,0,0.3
		C899.4,157.6,893.6,161,884.8,160.9 M856.6,161.1c-5,0-7.7-1.9-7.7-5.7c0-3.5,2.4-5.9,5.3-5.9s4.7,1.8,4.9,5.7
		c0.1,1.8,0.2,3.6,0.3,5.8C858.7,161,857.9,161.1,856.6,161.1 M944.8,156.7c0,2.9-1.1,4.3-4.8,4.3c-3,0-4.7-0.7-5.4-1.9l1.5-0.3
		l1.8-6.3c-9.1-2.3-12.4-9.4-19.9-9.4c-2.5,0.1-4.9,0.8-7,2l1.7,5.6c1.6-0.7,3.2-1.1,5-1.1c4.4,0,6.8,3.2,12.5,5.9
		c-5.8,2.2-9.8,5.5-21.3,5.5l0,0c-1.8,0-3.7-0.4-5.3-1.2c1.5-2.3,2.2-4.9,2.2-7.6c0.2-5.9-4.4-10.8-10.3-11c-0.2,0-0.4,0-0.7,0
		c-5,0-9.5,3-16.7,11.3c0.8-3.2,1.2-6.4,1.3-9.7v-11.1h-6.2v26.7c-0.7,0.9-1.4,1.7-2.1,2.7h-5.7c0-2.7-0.1-4.5-0.2-6.2
		c-0.4-7.4-4.6-11.7-10.8-11.7c-6.7,0-11.7,5.3-11.7,12.5c0,7.4,5.1,11.9,13,11.9h3.4c-1.1,3.1-5.2,5-12.2,5v5.7
		c12.3,0,17.5-4.3,18.4-10.7h19.8c6.2,0,11.2-1.5,14.7-4.1c2.8,2.8,5.8,4.1,8.8,4.1l0,0c13.1,0,15.2-4.6,21.9-7.2
		c0.6,4.8,3.8,7.2,9.3,7.2c7.2,0,11-3.8,11-9.8v-26.2h-6.2v25.1H944.8z"/>
	<rect x="959.1" y="131.6" class="st0" width="6.2" height="35.9"/>
</g>
</svg>
