<?xml version="1.0" encoding="UTF-8"?>
<svg id="Layer_1" xmlns="http://www.w3.org/2000/svg" version="1.1" viewBox="202.4 417.2 595.3 165.6">
  <!-- Generator: Adobe Illustrator 30.1.0, SVG Export Plug-In . SVG Version: 2.1.1 Build 136)  -->
  <defs>
    <style>
      .st0 {
        fill: #58595b;
      }

      .st1 {
        fill: #529c44;
      }

      .st2 {
        fill: #fff;
      }

      .st3 {
        fill: #0096b6;
      }

      .st4 {
        fill: #8d5316;
      }
    </style>
  </defs>
  <g id="Group_1154">
    <g id="Group_1153">
      <path id="Path_1289" class="st0" d="M219.22,559.86l.84-5.08c2.89,1.41,6.06,2.15,9.28,2.17,1.79.08,3.57-.31,5.17-1.12,2.05-1.11,2.8-3.66,1.7-5.71-.26-.47-.6-.89-1.01-1.24-1.81-1.38-3.77-2.53-5.86-3.44-2.5-1.09-4.86-2.5-7.01-4.19-1.72-1.42-2.72-3.53-2.73-5.76-.21-3,1.17-5.9,3.65-7.62,2.58-1.58,5.57-2.34,8.59-2.17,3.02-.01,6,.65,8.74,1.94l-.84,4.85c-2.51-1.25-5.25-1.96-8.05-2.09-4.41,0-6.61,1.47-6.61,4.41.02,1.06.54,2.04,1.41,2.65,1.7,1.22,3.53,2.26,5.45,3.09,2.58,1.09,5.01,2.52,7.22,4.25,1.86,1.49,2.95,3.74,2.97,6.12.17,3.35-1.42,6.54-4.19,8.44-2.56,1.64-5.55,2.45-8.59,2.32-3.46.11-6.9-.52-10.1-1.83Z"/>
      <path id="Path_1290" class="st0" d="M269.27,557.91l.6,2.84c-1.26.57-2.64.85-4.03.82-1.1.06-2.18-.29-3.04-.98-.76-.65-1.18-1.62-1.14-2.62-1.56,2.47-4.38,3.86-7.29,3.58-5.38,0-8.06-2.42-8.05-7.25-.18-2.87,1.33-5.59,3.87-6.95,2.29-1.14,4.82-1.68,7.37-1.56,1.37.02,2.74.12,4.1.3v-2.31c.12-1.14-.39-2.26-1.33-2.92-1.49-.67-3.12-.95-4.74-.82-2.55,0-5.07.46-7.45,1.35l.84-4.1c2.58-.94,5.31-1.39,8.05-1.35,3.6,0,6.1.72,7.52,2.17,1.61,1.97,2.37,4.5,2.12,7.03v11.58c0,.89.43,1.35,1.28,1.35.45.02.9-.04,1.32-.17ZM261.68,552.09v-2.46c-1.67-.14-2.89-.22-3.65-.22-1.69-.13-3.38.23-4.87,1.05-1.06.78-1.63,2.05-1.52,3.36,0,2.44,1.49,3.66,4.49,3.66,1.47.04,2.89-.51,3.95-1.54,1.06-1,1.64-2.4,1.6-3.85h0Z"/>
      <path id="Path_1291" class="st0" d="M297.85,557.91l.54,2.84c-1.25.61-2.64.89-4.03.82-1.11.06-2.19-.3-3.04-1.02-.76-.67-1.18-1.64-1.14-2.65-1.24,1.11-2.65,2-4.18,2.65-1.36.62-2.83.97-4.33,1.02-2.09.22-4.19-.37-5.86-1.65-1.35-1.85-1.97-4.14-1.74-6.42v-17.09h5.1v16.57c-.11,1.11.12,2.23.65,3.22.68.64,1.61.95,2.54.82,1.52-.06,3-.43,4.38-1.08,1.34-.5,2.53-1.34,3.46-2.43v-17.11h5.01v20.31c0,.89.43,1.35,1.28,1.35.46.02.93-.04,1.37-.15Z"/>
      <path id="Path_1292" class="st0" d="M328.15,557.91l.68,2.84c-1.29.56-2.69.84-4.1.82-1.11.07-2.21-.28-3.08-.98-.75-.69-1.15-1.68-1.09-2.69-1.11,2.44-3.9,3.66-8.36,3.66-2.72.12-5.35-1.01-7.14-3.06-2.07-2.77-3.07-6.19-2.81-9.64-.22-3.48.87-6.92,3.04-9.64,2.08-2.26,5.07-3.46,8.13-3.28,2.42-.05,4.82.28,7.14.98v-10.61h5.01v30.4c0,.89.43,1.35,1.28,1.35.43.02.86-.02,1.28-.14ZM320.56,550.82v-9.78c-1.92-.6-3.92-.93-5.93-.98-2-.2-3.98.51-5.39,1.94-1.24,1.95-1.81,4.26-1.6,6.57-.21,2.36.29,4.73,1.44,6.8,1.14,1.4,2.91,2.13,4.71,1.94,1.99.13,3.93-.67,5.25-2.17,1.02-1.2,1.57-2.74,1.52-4.32h0Z"/>
      <path id="Path_1293" class="st0" d="M339.25,528.34c.02.85-.31,1.67-.9,2.28-.6.62-1.42.96-2.28.94-.85,0-1.67-.34-2.28-.94-.62-.53-.97-1.31-.98-2.12,0-.87.34-1.71.98-2.32.59-.63,1.42-.98,2.28-.98.86-.02,1.68.32,2.28.94.59.58.91,1.37.9,2.2ZM341.08,557.9l.68,2.84c-1.31.61-2.74.9-4.19.82-1.09.06-2.17-.3-3-1.02-.73-.68-1.13-1.65-1.09-2.65v-21.49h5.09v20.32c0,.89.41,1.35,1.22,1.35.43,0,.87-.05,1.28-.18Z"/>
      <path id="Path_1294" class="st0" d="M365,559.86l.84-5.08c2.89,1.41,6.06,2.15,9.28,2.17,1.79.07,3.57-.31,5.17-1.13,2.05-1.11,2.8-3.66,1.7-5.71-.26-.47-.6-.89-1.01-1.24-1.81-1.38-3.77-2.53-5.86-3.44-2.5-1.09-4.85-2.5-6.99-4.19-1.72-1.42-2.72-3.53-2.73-5.76-.21-3,1.17-5.9,3.65-7.62,2.58-1.58,5.57-2.33,8.59-2.16,3.02-.01,6,.65,8.74,1.94l-.84,4.85c-2.51-1.25-5.25-1.96-8.05-2.09-4.41,0-6.61,1.47-6.61,4.41.02,1.06.55,2.04,1.41,2.65,1.7,1.22,3.52,2.26,5.44,3.09,2.58,1.09,5.01,2.52,7.22,4.25,1.86,1.49,2.95,3.74,2.97,6.12.17,3.35-1.42,6.54-4.19,8.44-2.55,1.63-5.54,2.44-8.57,2.32-3.46.11-6.91-.52-10.12-1.83Z"/>
      <path id="Path_1295" class="st0" d="M405.12,556.87l.76,3.73c-1.81.64-3.71.97-5.63.98-1.49.14-2.97-.39-4.03-1.46-.94-1.44-1.37-3.16-1.22-4.88v-14.87h-4.03l.84-3.96h3.19v-6.64l5.01-1.65v8.29h5.25v3.96h-5.25v14.25c-.09.79.08,1.6.49,2.28.6.46,1.35.66,2.09.55.88.01,1.74-.19,2.52-.59Z"/>
      <path id="Path_1296" class="st0" d="M432.54,557.91l.6,2.84c-1.26.57-2.64.85-4.03.82-1.1.06-2.18-.29-3.04-.98-.76-.65-1.18-1.62-1.14-2.62-1.56,2.47-4.38,3.86-7.29,3.58-5.38,0-8.06-2.42-8.05-7.25-.18-2.87,1.33-5.59,3.87-6.95,2.29-1.14,4.82-1.68,7.37-1.56,1.37.02,2.74.12,4.1.3v-2.31c.12-1.14-.39-2.26-1.33-2.92-1.49-.67-3.12-.95-4.74-.82-2.55,0-5.07.46-7.45,1.35l.84-4.1c2.58-.94,5.31-1.39,8.05-1.35,3.6,0,6.1.72,7.52,2.17,1.61,1.97,2.37,4.5,2.12,7.03v11.58c0,.89.43,1.35,1.28,1.35.45.02.9-.04,1.32-.17ZM424.94,552.09v-2.46c-1.67-.14-2.89-.22-3.65-.22-1.69-.13-3.38.23-4.87,1.05-1.06.78-1.63,2.05-1.52,3.36,0,2.44,1.49,3.66,4.49,3.66,1.47.04,2.89-.51,3.95-1.54,1.05-1,1.63-2.4,1.6-3.85h0Z"/>
      <path id="Path_1297" class="st0" d="M461.48,557.91l.6,2.84c-1.28.61-2.69.89-4.1.82-1.1.06-2.18-.29-3.04-.98-.77-.67-1.2-1.67-1.14-2.69v-13.44c.11-1.09-.13-2.19-.68-3.14-.67-.63-1.59-.94-2.51-.82-1.45.07-2.87.42-4.19,1.05-1.48.61-2.84,1.47-4.03,2.54v17.09h-5.1v-24.77h5.09v3.28c1.28-1.12,2.74-2.02,4.33-2.65,1.46-.66,3.03-1.03,4.63-1.08,2.07-.23,4.14.37,5.77,1.65,1.35,1.86,1.97,4.14,1.74,6.42v12.69c0,.89.41,1.35,1.22,1.35.47,0,.94-.05,1.4-.17Z"/>
      <path id="Path_1298" class="st0" d="M491.87,557.91l.68,2.84c-1.29.56-2.69.84-4.1.82-1.11.07-2.21-.28-3.08-.98-.75-.69-1.15-1.68-1.09-2.69-1.11,2.44-3.9,3.66-8.36,3.66-2.72.12-5.35-1-7.14-3.06-2.07-2.77-3.07-6.19-2.81-9.64-.22-3.48.87-6.92,3.04-9.64,2.08-2.26,5.07-3.46,8.13-3.28,2.42-.05,4.82.28,7.14.98v-10.61h5.01v30.4c0,.89.43,1.35,1.28,1.35.43.02.86-.03,1.28-.14ZM484.28,550.82v-9.78c-1.92-.6-3.92-.93-5.93-.98-2-.2-3.98.51-5.39,1.94-1.24,1.95-1.81,4.26-1.6,6.57-.21,2.36.29,4.73,1.44,6.8,1.14,1.4,2.91,2.13,4.71,1.94,1.99.13,3.93-.67,5.25-2.17,1.02-1.2,1.57-2.74,1.52-4.32h0Z"/>
      <path id="Path_1299" class="st0" d="M518.76,557.91l.6,2.84c-1.26.57-2.64.85-4.03.82-1.1.06-2.18-.29-3.04-.98-.76-.65-1.18-1.62-1.14-2.62-1.56,2.47-4.38,3.86-7.29,3.58-5.38,0-8.06-2.42-8.05-7.25-.18-2.87,1.33-5.59,3.87-6.95,2.29-1.14,4.82-1.68,7.37-1.56,1.37.02,2.74.12,4.1.3v-2.31c.12-1.14-.39-2.26-1.33-2.92-1.49-.67-3.12-.95-4.74-.82-2.55,0-5.07.46-7.45,1.35l.84-4.1c2.58-.94,5.31-1.39,8.05-1.35,3.6,0,6.1.72,7.52,2.17,1.61,1.97,2.37,4.5,2.12,7.03v11.58c0,.89.43,1.35,1.28,1.35.45.02.9-.04,1.32-.17ZM511.17,552.1v-2.46c-1.67-.14-2.89-.22-3.65-.22-1.69-.13-3.38.23-4.87,1.05-1.06.78-1.63,2.05-1.52,3.36,0,2.44,1.49,3.66,4.49,3.66,1.47.04,2.89-.51,3.95-1.54,1.05-1,1.63-2.4,1.6-3.85Z"/>
      <path id="Path_1300" class="st0" d="M528.65,561.21h-5.09v-24.8h5.09v3.22c.42-1.05,1.12-1.96,2.01-2.65.76-.62,1.71-.98,2.69-1.02,1.66.04,3.28.5,4.71,1.35l-.92,4.1c-1.35-.46-2.76-.72-4.19-.75-1.67,0-3.11,1.09-4.33,3.28v17.25h.02Z"/>
      <path id="Path_1301" class="st0" d="M566.92,557.91l.68,2.84c-1.29.56-2.69.84-4.1.82-1.11.07-2.21-.28-3.08-.98-.75-.69-1.15-1.68-1.09-2.69-1.11,2.44-3.9,3.66-8.36,3.66-2.72.12-5.35-1-7.14-3.06-2.07-2.77-3.07-6.19-2.81-9.64-.22-3.48.87-6.92,3.04-9.64,2.08-2.26,5.07-3.46,8.13-3.28,2.42-.05,4.82.28,7.14.98v-10.61h5.01v30.4c0,.89.43,1.35,1.28,1.35.43.02.86-.02,1.28-.14ZM559.33,550.82v-9.78c-1.92-.6-3.92-.93-5.93-.98-2-.2-3.98.51-5.39,1.94-1.24,1.95-1.81,4.26-1.6,6.57-.21,2.36.29,4.73,1.44,6.8,1.14,1.4,2.91,2.13,4.71,1.94,1.99.13,3.93-.67,5.25-2.17,1.02-1.2,1.57-2.74,1.52-4.32h0Z"/>
      <path id="Path_1302" class="st0" d="M571.19,560.45l1.14-4.33c1.06.46,2.17.81,3.3,1.05,1.08.26,2.19.41,3.3.44,4.04,0,6.07-1.19,6.07-3.58,0-.8-.4-1.54-1.06-1.98-1.31-.8-2.72-1.44-4.19-1.9-1.98-.64-3.85-1.57-5.55-2.76-1.45-1.06-2.31-2.75-2.28-4.55-.09-2.03.89-3.95,2.59-5.08,2.22-1.32,4.79-1.95,7.37-1.79,2.44-.06,4.87.37,7.14,1.27l-.84,4.03c-1.93-.88-4.03-1.34-6.15-1.35-3.39,0-5.09.87-5.09,2.62.02.68.37,1.3.95,1.65,1.19.7,2.45,1.28,3.76,1.71,2.11.68,4.11,1.66,5.93,2.92,2.86,2.38,3.25,6.62.87,9.47-.5.61-1.11,1.12-1.79,1.51-2.06,1.24-4.43,1.86-6.83,1.79-2.92.05-5.82-.33-8.63-1.14Z"/>
    </g>
  </g>
  <g>
    <path id="Path_1303" class="st1" d="M666.9,449.7c-6.54,7.44-12.49,15.37-17.81,23.72-1.81,2.81-3.51,5.66-5.14,8.53-1.67,2.84-3.3,5.74-4.84,8.69-4.58,8.79-8.47,17.93-11.65,27.31-4.38,12.89-7.46,26.2-9.18,39.71l52.5-30.26c2.97-8.17,6.58-16.08,10.82-23.67h.03v-.04c4.45-7.44,9.48-14.52,15.06-21.15v-60.65c-10.84,8.24-20.83,17.55-29.81,27.8"/>
    <path class="st3" d="M702.33,482.58c5.6,6.63,10.64,13.7,15.09,21.15l.02.03h.02c4.23,7.59,7.85,15.5,10.83,23.66l52.5,30.26c-1.71-13.51-4.79-26.81-9.18-39.71-3.17-9.39-7.07-18.52-11.66-27.3-1.55-2.97-3.17-5.86-4.84-8.69-1.63-2.87-3.33-5.72-5.14-8.53-5.32-8.35-11.27-16.28-17.81-23.72-8.98-10.26-18.98-19.58-29.85-27.83v60.68Z"/>
    <path class="st4" d="M673.75,532.13c8.55,1.5,17.21,2.32,25.89,2.44h.05c8.68-.13,17.33-.97,25.88-2.51l52.53,30.24c-12.56,5.29-25.62,9.32-38.98,12-9.71,1.96-19.55,3.17-29.45,3.61-3.33.16-6.64.21-9.96.17-3.28.03-6.63,0-9.96-.14-9.89-.42-19.73-1.58-29.45-3.47-13.38-2.64-26.47-6.62-39.05-11.88l52.49-30.48Z"/>
    <g>
      <path class="st2" d="M666.2,566c-2.63-.32-5.05-1.62-6.77-3.63l2.49-2.73c1.27,1.28,2.88,2.17,4.65,2.55,2.08.33,3.58-.46,3.84-2.01.1-.56-.03-1.13-.35-1.6-1.09-1.56-4.82-2.69-6.68-5.3-.92-1.23-1.29-2.79-1.02-4.3.63-3.82,4.14-5.8,8.42-5.08,2.46.31,4.71,1.54,6.31,3.44l-2.54,2.55c-1.11-1.16-2.54-1.97-4.1-2.33-1.87-.32-3.36.37-3.58,1.71-.11.48.02.99.33,1.37.84,1.17,5.06,2.87,6.9,5.44.95,1.28,1.3,2.9.95,4.46-.67,3.99-4.19,6.24-8.85,5.46Z"/>
      <path class="st2" d="M693.02,568.25l-1.32-4.58-7.74-.49-1.86,4.38-4.6-.26,9.12-21.03,4.57.29,6.52,21.99-4.69-.29ZM688.6,551.27l-3.27,8.47,5.42.33-2.16-8.8Z"/>
      <path class="st2" d="M707.91,568.63c-2.64.21-5.27-.58-7.36-2.22l1.89-3.17c1.51,1,3.28,1.54,5.09,1.56,2.09-.08,3.41-1.19,3.35-2.76-.03-.56-.27-1.09-.67-1.49-1.4-1.3-5.27-1.68-7.62-3.84-1.15-1.02-1.82-2.48-1.86-4.01-.16-3.85,2.89-6.5,7.22-6.66,2.47-.18,4.91.56,6.87,2.08l-1.95,3.03c-1.33-.91-2.89-1.41-4.5-1.46-1.9.06-3.24,1.03-3.16,2.38-.02.49.19.97.57,1.28,1.08.98,5.53,1.79,7.83,3.93,1.2,1.05,1.88,2.57,1.86,4.17.17,4.07-2.82,6.98-7.56,7.17Z"/>
      <path class="st2" d="M730.81,566.62c-6.18.94-11.13-3.03-12.13-9.76-.98-6.57,2.57-11.62,8.74-12.56,6.31-.95,11.08,3.03,12.03,9.42,1.03,6.89-2.58,11.98-8.64,12.9ZM727.79,548c-3.41.52-5.17,4.01-4.5,8.44.67,4.47,3.65,6.9,7.01,6.37,4.41-.67,5.09-5.03,4.58-8.45-.63-4.2-3.51-6.88-7.09-6.36Z"/>
    </g>
  </g>
  <g id="Group_1156">
    <g id="Group_1155">
      <path id="Path_1304" class="st0" d="M232.68,472.63c.8,0,1.57-.32,2.11-.9.57-.56.89-1.33.89-2.12,0-.79-.31-1.54-.89-2.08-1.17-1.16-3.05-1.16-4.22,0-.57.54-.89,1.29-.89,2.08,0,.8.32,1.56.89,2.12.54.59,1.31.91,2.11.9Z"/>
      <path id="Path_1305" class="st0" d="M225.15,472.63c.8,0,1.57-.32,2.11-.9.57-.56.89-1.33.89-2.12,0-.79-.31-1.54-.89-2.08-.55-.57-1.32-.88-2.11-.87-.8,0-1.58.31-2.15.87-.59.53-.93,1.28-.93,2.08,0,.81.33,1.57.92,2.12.57.58,1.34.91,2.16.9Z"/>
      <path id="Path_1306" class="st0" d="M249.01,502.05c2.06-1.6,3.19-4.12,3-6.72v-16.71h-4.91v16.94c0,2.22-1.2,3.33-3.61,3.33h-5.42v-20.27h-9.76c-2.1-.08-4.16.56-5.85,1.82-1.94,1.67-2.99,4.16-2.83,6.72v8.01c-.12,2.17.59,4.31,2,5.98,1.93,1.85,4.56,2.78,7.23,2.57h1.84l2.38-3.17v3.17h10.04c2.1.1,4.18-.47,5.92-1.65ZM233.06,498.88h-4.61c-1.06.1-2.11-.19-2.97-.82-.66-.77-.98-1.77-.89-2.78v-8.25c-.25-1.71.92-3.3,2.63-3.55.3-.04.61-.05.91,0h4.91v15.41h.02Z"/>
      <path id="Path_1307" class="st0" d="M240.3,511.04c-.79-.01-1.56.3-2.11.87-.57.54-.89,1.29-.89,2.08-.02.79.28,1.56.84,2.12.58.55,1.35.85,2.15.82.79.01,1.56-.3,2.11-.87,1.15-1.1,1.19-2.92.09-4.06-.03-.03-.06-.06-.09-.09-.55-.56-1.31-.88-2.1-.87Z"/>
      <path id="Path_1308" class="st0" d="M247.99,511.04c-.82-.02-1.61.29-2.19.87-1.16,1.13-1.19,2.98-.06,4.14.02.02.04.04.06.06.59.55,1.38.85,2.19.82.79.02,1.54-.3,2.08-.87.55-.55.86-1.3.84-2.08-.03-1.6-1.31-2.9-2.92-2.95Z"/>
      <path id="Path_1309" class="st0" d="M263.66,478.61h-3.61v4.84h3.3c4.82,0,7.23,2.42,7.23,7.26v4.75c0,2.27-1.2,3.41-3.61,3.41h-11.22v4.84h10.83c2.49.18,4.95-.7,6.75-2.43,1.4-1.52,2.15-3.53,2.08-5.59v-5.52c.12-3.08-1.06-6.07-3.24-8.25-2.26-2.22-5.33-3.42-8.5-3.31Z"/>
      <path id="Path_1310" class="st0" d="M377.66,495.17c.11,1.04-.21,2.07-.89,2.87-.87.64-1.95.93-3.03.82h-3.68v-20.25h-4.91v20.26h-8.53v-20.26h-4.91v20.26h-8.61v-20.26h-4.84v20.26h-15.49c2.51-2.74,5.23-5.27,8.15-7.56v-.6c.15-3.24-1.02-6.4-3.24-8.77-2.4-2.44-5.72-3.76-9.15-3.63-2.98-.08-5.89.88-8.23,2.73-2.78,2.36-4.29,5.89-4.08,9.53v.76c2.89,2.3,5.59,4.83,8.07,7.56h-14.99v-20.28h-9.75c-2.24-.11-4.43.62-6.15,2.05-1.77,1.68-2.7,4.06-2.54,6.5v8.01c-.15,2.29.66,4.53,2.24,6.2,1.92,1.69,4.44,2.53,6.99,2.34h4.23v1.51c0,4.88-3.43,7.34-10.29,7.34h-.78l3.31,4.4c3.38,0,6.66-1.08,9.37-3.09,2.25-2.01,3.38-5.2,3.38-9.53v-.62h14.98c1.55-.03,3.04-.54,4.3-1.44,1.24.88,2.71,1.38,4.23,1.44h51.06c2.28.15,4.54-.59,6.3-2.05,1.66-1.59,2.53-3.83,2.38-6.12v-27.15h-4.91v26.77h.02ZM294.3,498.88h-3.84c-1.28.13-2.57-.13-3.69-.76-.72-.8-1.06-1.88-.92-2.95v-8.01c-.09-1.01.2-2.03.81-2.84.75-.66,1.74-.98,2.73-.87h4.91v15.43ZM318.57,496.29c-2.27-2.68-4.76-5.16-7.45-7.4.19-1.59,1.02-3.04,2.3-4.01,1.47-1.15,3.29-1.77,5.15-1.74,1.55,0,3.07.44,4.38,1.28,1.6.97,2.67,2.6,2.92,4.46-2.66,2.24-5.1,4.72-7.29,7.42Z"/>
      <path id="Path_1311" class="st0" d="M388.01,506.42l5-2.71v-35.31h-5v38.02Z"/>
      <path id="Path_1312" class="st0" d="M421.64,472.63c.81,0,1.58-.32,2.15-.9.58-.52.91-1.27.92-2.05,0-.79-.33-1.55-.92-2.08-.57-.57-1.34-.88-2.15-.87-.77,0-1.5.32-2.03.87-1.15,1.1-1.19,2.92-.09,4.06.03.03.06.06.09.09.53.56,1.26.88,2.03.87Z"/>
      <path id="Path_1313" class="st0" d="M431.38,495.55c0,2.22-1.17,3.33-3.54,3.33h-18.47c-.98.09-1.95-.23-2.69-.87-.64-.8-.94-1.82-.84-2.84v-10.74l-5,3.17v7.34c-.13,2.28.61,4.53,2.07,6.29,1.82,1.77,4.3,2.68,6.83,2.49h17.71c2.34.15,4.66-.61,6.45-2.12,1.66-1.65,2.53-3.94,2.38-6.28v-16.7h-4.91v16.94Z"/>
      <path id="Path_1314" class="st0" d="M414.11,472.63c.8,0,1.57-.32,2.11-.9.57-.56.89-1.33.89-2.12,0-.79-.31-1.54-.89-2.08-.55-.57-1.32-.88-2.11-.87-.8,0-1.58.31-2.15.87-.59.53-.93,1.28-.92,2.08,0,.81.33,1.57.92,2.12.56.58,1.34.91,2.15.9Z"/>
      <path id="Path_1315" class="st0" d="M462.79,472.63c.8,0,1.57-.32,2.11-.9.57-.56.89-1.33.89-2.12,0-.79-.31-1.54-.89-2.08-.55-.57-1.32-.88-2.11-.87-.8,0-1.58.31-2.15.87-.59.53-.93,1.28-.92,2.08,0,.81.33,1.57.92,2.12.56.58,1.34.91,2.15.9Z"/>
      <path id="Path_1316" class="st0" d="M513.34,506.42l5-2.71v-35.31h-5v38.02Z"/>
      <path id="Path_1317" class="st0" d="M574.31,495.17c.11,1.04-.21,2.07-.89,2.87-.87.64-1.95.93-3.03.82h-1.43v-12.02c.12-2.35-.77-4.64-2.46-6.28-1.86-1.59-4.25-2.4-6.69-2.27-2.09-.08-4.15.47-5.91,1.59-2.24,1.58-3.48,4.23-3.24,6.96v12.02h-8.53v-20.25h-9.74c-2.24-.11-4.43.62-6.15,2.05-1.77,1.68-2.7,4.06-2.54,6.5v8.01c-.15,2.29.66,4.53,2.24,6.2,1.92,1.69,4.44,2.53,6.99,2.34h4.23v1.51c0,4.88-3.44,7.34-10.29,7.34h-.76l3.3,4.39c3.38,0,6.66-1.08,9.37-3.09,2.25-2.01,3.38-5.2,3.38-9.53v-.62h8.61c.35,1.77,1.37,3.34,2.84,4.39,1.81,1.31,4,1.97,6.23,1.89,2.15.11,4.27-.46,6.07-1.63,1.55-1.09,2.57-2.77,2.84-4.65h1.79c2.28.15,4.54-.59,6.3-2.05,1.66-1.59,2.53-3.83,2.38-6.12v-27.14h-4.91v26.77h.01ZM537.14,498.88h-3.84c-1.28.13-2.57-.13-3.69-.76-.72-.8-1.06-1.88-.92-2.95v-8.01c-.09-1.01.2-2.03.81-2.84.75-.66,1.74-.98,2.73-.87h4.91v15.43ZM564.12,501.51c0,2.47-1.43,3.71-4.3,3.71s-4.3-1.24-4.3-3.71v-14.75c0-2.47,1.43-3.71,4.3-3.71s4.3,1.24,4.3,3.71v14.75Z"/>
      <path id="Path_1318" class="st0" d="M584.67,468.4v38.02l5-2.71v-35.31h-5Z"/>
    </g>
    <path id="Path_1319" class="st0" d="M505.75,480.88c-1.48-1.62-3.58-2.52-5.77-2.49-1.02,0-2.03.16-3,.46l-11.69,4.08v-4.31h-4.83v20.26h-8.53v-20.26h-9.91c-2.15-.09-4.25.61-5.91,1.97-1.82,1.69-2.78,4.1-2.62,6.58v11.72h-4.06c-1.79,0-2.69-1.03-2.69-3.11v-27.37h-5v27.59c-.1,4.16,3.2,7.62,7.36,7.72.11,0,.22,0,.33,0h19.95l2.38-3.17v3.17h8.61v4.69l4.91-2.57v-2.12h13.99c2.46.16,4.87-.75,6.61-2.49,1.35-1.51,2.07-3.49,2-5.52v-9.67c.03-1.94-.73-3.8-2.12-5.15ZM466.93,498.88h-8.45v-11.72c0-2.47,1.17-3.71,3.54-3.71h4.91v15.43ZM502.97,495.61c0,2.17-1.17,3.25-3.54,3.25h-14.14v-8.31c-.08-.77.1-1.54.51-2.19.68-.6,1.48-1.04,2.34-1.28l9.45-3.33c.81-.33,1.67-.5,2.54-.52.79-.04,1.56.3,2.08.9.54.69.81,1.55.76,2.43v9.05h0Z"/>
  </g>
</svg>