<?xml version="1.0" encoding="iso-8859-1"?>
<!-- Generator: Adobe Illustrator 23.0.1, SVG Export Plug-In . SVG Version: 6.00 Build 0)  -->
<svg version="1.1" id="Layer_1" xmlns="http://www.w3.org/2000/svg" xmlns:xlink="http://www.w3.org/1999/xlink" x="0px" y="0px"
	 viewBox="17.5 211.2 477.0 89.6" style="enable-background:new 0 0 512 512;" xml:space="preserve">
<g>
	<path style="fill:#00B397;" d="M481,255.999l-18.168-18.177h-5.939l0.006-5.931l-18.172-18.172l-18.174,18.172v5.931h-5.937
		l-18.174,18.177l18.174,18.177h5.937v5.929l18.174,18.177l18.172-18.177v-5.929h5.933L481,255.999z M456.893,244.324v1.882h2.459
		l9.787,9.793l-9.787,9.785h-2.453v-2.258l7.527-7.527l-7.533-7.527V244.324z M423.35,233.048l15.377-15.373l15.377,15.373v16.576
		l5.383,5.385l0.987,0.99l-6.37,6.368v3.417h-2.797v-4.573l5.212-5.212l-5.212-5.21v-16.582l-12.58-12.578l-12.586,12.578v3.615
		h-2.791V233.048z M428.931,274.175h2.262l7.533,7.521l7.52-7.523h4.144h-1.875v2.45l-9.789,9.798l-9.796-9.798V274.175z
		 M424.885,255.999l4.047-4.055v-5.738h5.738l4.057-4.051l4.045,4.051h5.745v5.736l4.045,4.057l-4.045,4.049v5.736h-5.74
		l-4.049,4.053l-4.051-4.053h-5.745v-5.73L424.885,255.999z M448.516,237.822h-2.269l-7.52-7.525l-7.533,7.525h-4.144h1.886v-2.453
		l9.791-9.793l9.789,9.793V237.822z M415.776,271.374l-15.377-15.375l15.377-15.377h16.578l5.383-5.385l0.99-0.99l6.37,6.375h3.419
		v2.797h-4.58l-5.21-5.214l-5.218,5.214h-16.572l-12.589,12.58l12.589,12.582h3.615v2.793H415.776z M420.552,267.668v-1.884h-2.461
		l-9.785-9.785l9.785-9.793h2.461v2.267l-7.531,7.527l7.531,7.527V267.668z M454.104,278.95l-15.377,15.369L423.35,278.95v-16.582
		l-5.389-5.381l-0.983-0.987l6.372-6.366v-3.427h2.791v4.584l-5.205,5.21l5.205,5.212v16.582l12.586,12.578l12.58-12.578v-3.62
		h2.797V278.95z M445.097,271.374l-5.379,5.385l-0.992,0.989l-6.372-6.375h-3.423v-2.793h4.577l5.218,5.21l5.21-5.21h16.58
		l12.58-12.582l-12.58-12.58h-3.624v-2.801h4.778l15.384,15.381l-15.384,15.375H445.097z"/>
	<g>
		<path style="fill:#5B5B5D;" d="M35.543,226.551c0-1.62,1.271-2.973,2.886-2.973c1.662,0,2.933,1.311,2.933,2.973
			c0,1.613-1.271,2.966-2.933,2.966C36.813,229.517,35.543,228.21,35.543,226.551 M45.683,229.517c1.62,0,2.884-1.353,2.884-2.966
			c0-1.662-1.264-2.973-2.884-2.973c-1.615,0-2.886,1.353-2.886,2.973C42.797,228.21,44.068,229.517,45.683,229.517 M42.755,253.383
			c-8.523,0-11.711-3.93-11.711-10.14c0-5.721,3.537-10.967,11.582-10.967c5.153,0,9.132,1.529,9.132,1.529v15.035h3.626h0.658
			h7.559v-15.997h5.77v20.54H56.041h-0.658H42.755z M43.368,248.839h2.795v-11.233c0,0-1.662-0.784-4.15-0.784
			c-3.277,0-5.199,2.491-5.199,5.899C36.813,246.7,38.778,248.839,43.368,248.839 M69.24,259.935c0-1.66-1.271-2.973-2.886-2.973
			c-1.62,0-2.886,1.357-2.886,2.973c0,1.668,1.266,2.977,2.886,2.977C67.97,262.912,69.24,261.557,69.24,259.935 M59.094,256.963
			c-1.615,0-2.88,1.357-2.88,2.973c0,1.668,1.264,2.977,2.88,2.977c1.668,0,2.933-1.355,2.933-2.977
			C62.026,258.276,60.762,256.963,59.094,256.963 M93.225,250.501c0-10.844-5.064-16.217-14.546-18.707l-1.4,4.804
			c6.857,1.749,10.056,5.772,10.316,12.242H74.613v4.544h18.612V250.501z M177.238,253.383c-3.804,0-6.115-0.875-7.081-3.235
			c-1.047,2.446-3.582,3.628-6.334,3.628c-3.188,0-5.468-1.355-6.21-3.628c-0.784,2.104-2.577,3.235-5.812,3.235h-0.7h-0.655h-2.88
			c-3.804,0-6.647-1.131-9.005-2.71c-3.711,1.662-8.567,2.71-14.419,2.71h-0.482h-0.7h-5.212v0.087
			c0,6.032-3.888,10.929-13.684,10.929c-3.271,0-6.643-0.573-6.643-0.573l0.355-4.719c0,0,3.408,0.742,6.816,0.742
			c4.546,0,7.563-1.702,7.563-5.812v-0.653h-3.412c-8.521,0-11.709-3.93-11.709-10.14c0-5.721,3.533-10.967,11.578-10.967
			c5.159,0,9.136,1.529,9.136,1.529v15.035h5.212h0.7h0.827c4.15,0,7.521-0.482,10.185-1.357c-2.795-2.62-5.377-5.332-9.182-6.381
			l0.482-4.108c3.455-2.491,8.305-4.85,12.633-4.85c6.508,0,9.218,3.364,9.218,7.17c0,2.924-1.524,5.939-4.446,8.394
			c1.436,0.691,3.011,1.133,4.844,1.133h2.226h0.655h0.742c2.842,0,3.935-1.133,3.935-5.465v-7.907h5.77v8.65
			c0,3.277,0.736,5.072,3.319,5.072c2.535,0,3.241-1.884,3.241-5.028v-10.442h5.503v10.271c0,3.624,0.956,4.85,4.804,4.85h1.531
			c0.167-1.751,0.309-3.892,0.309-5.248c0-4.37-0.522-8.392-1.271-11.711l5.635-0.786c0.837,3.491,1.402,7.781,1.402,12.104
			c0,1.749-0.089,3.717-0.216,5.641h3.622h0.66h4.761v-27.071h5.77v31.615h-10.531h-0.66H177.238z M112.156,237.606
			c0,0-1.666-0.784-4.155-0.784c-3.279,0-5.197,2.491-5.197,5.899c0,3.979,1.962,6.119,6.55,6.119h2.801V237.606z M142.095,240.055
			c0-2.055-1.349-3.677-4.15-3.677c-2.357,0-5.064,1.577-6.633,2.628c3.015,1.224,5.41,3.799,8.081,6.03
			C141.228,243.592,142.095,241.845,142.095,240.055 M213.815,221.768h-5.77v31.617h5.77V221.768z M243.043,229.517
			c1.615,0,2.886-1.353,2.886-2.966c0-1.662-1.271-2.973-2.886-2.973c-1.615,0-2.884,1.353-2.884,2.973
			C240.16,228.21,241.428,229.517,243.043,229.517 M246.629,248.839h-5.943c-8.174,0-10.834-2.884-10.834-9.051
			c0-2.311,0.562-5.203,1.482-7.208l-6.167,1.004c-0.651,1.795-1.133,4.503-1.133,6.863c0,7.998,4.155,12.935,16.041,12.935h12.324
			v-20.54h-5.77V248.839z M235.789,229.517c1.662,0,2.93-1.353,2.93-2.966c0-1.662-1.269-2.973-2.93-2.973
			c-1.615,0-2.886,1.353-2.886,2.973C232.903,228.21,234.174,229.517,235.789,229.517 M265.117,221.768h-5.772v31.617h5.772V221.768
			z M263.544,264.045c1.091,0.266,2.309,0.436,3.673,0.436c8.907,0,10.793-5.33,10.793-10.925v-20.714h-5.77v21.024
			c0,4.719-1.751,6.115-4.679,6.115c-1.395,0-2.529-0.222-3.544-0.531L263.544,264.045z M301.865,250.501
			c0-10.844-5.066-16.217-14.553-18.707l-1.393,4.804c6.857,1.749,10.045,5.772,10.311,12.242h-12.978v4.544h18.612V250.501z
			 M317.206,253.383h-9.483v-31.615h5.766v27.071h3.717h0.658h9.43v-15.997h5.77v1.095c0,1.918-0.131,4.37-0.482,6.468h0.042
			c2.144-5.161,6.554-8.13,11.237-8.13c6.028,0,8.869,4.017,8.869,10.574c0,1.964-0.047,4.021-0.178,5.99h3.366h0.653h4.761v-27.071
			h5.772v31.615h-10.533h-0.653h-38.055H317.206z M333.021,248.839h13.595c0.125-1.751,0.214-3.761,0.214-5.332
			c0-4.11-1.051-6.601-4.155-6.601C337.998,236.906,334.114,242.721,333.021,248.839 M374.098,253.383h5.766v-31.617h-5.766V253.383
			z"/>
		<path style="fill:#5B5B5D;" d="M33.77,270.179c0-0.996,0.78-1.829,1.774-1.829c1.023,0,1.801,0.806,1.801,1.829
			c0,0.994-0.778,1.827-1.801,1.827C34.55,272.006,33.77,271.202,33.77,270.179 M40.007,272.006c0.998,0,1.778-0.833,1.778-1.827
			c0-1.023-0.78-1.829-1.778-1.829c-0.994,0-1.778,0.833-1.778,1.829C38.229,271.202,39.013,272.006,40.007,272.006 M51.035,274.052
			h3.544v12.637H38.203c-5.241,0-7.203-2.423-7.203-6.239c0-3.522,2.18-6.751,7.125-6.751c3.174,0,5.618,0.941,5.618,0.941v9.252
			h7.292V274.052z M40.305,276.98c0,0-1.025-0.484-2.556-0.484c-2.017,0-3.199,1.533-3.199,3.632c0,2.444,1.207,3.763,4.03,3.763
			h1.725V276.98z M52.729,288.892c-0.998,0-1.778,0.833-1.778,1.829c0,1.021,0.78,1.829,1.778,1.829
			c0.992,0,1.772-0.833,1.772-1.829C54.5,289.702,53.72,288.892,52.729,288.892 M48.259,288.892c-0.992,0-1.772,0.833-1.772,1.829
			c0,1.021,0.78,1.829,1.772,1.829c1.025,0,1.803-0.833,1.803-1.829C50.062,289.702,49.284,288.892,48.259,288.892 M60.306,273.405
			l-0.856,2.958c4.218,1.074,6.182,3.548,6.345,7.529h-7.986v2.797h11.457v-1.778C69.267,278.243,66.146,274.938,60.306,273.405
			 M130.816,267.73h3.55v18.959H119.98c-2.341,0-3.768-0.537-4.36-1.99c-0.647,1.503-2.205,2.229-3.899,2.229
			c-1.96,0-3.36-0.829-3.818-2.229c-0.482,1.292-1.586,1.99-3.571,1.99h-0.436h-2.178c-2.336,0-4.087-0.698-5.539-1.668
			c-2.286,1.021-5.271,1.668-8.872,1.668H84.35v0.053c0,3.713-2.393,6.721-8.421,6.721c-2.011,0-4.087-0.351-4.087-0.351
			l0.216-2.901c0,0,2.102,0.459,4.197,0.459c2.797,0,4.651-1.049,4.651-3.579v-0.402H78.81c-5.243,0-7.21-2.423-7.21-6.239
			c0-3.522,2.18-6.751,7.125-6.751c3.174,0,5.624,0.941,5.624,0.941v9.252h3.174c2.554,0,4.624-0.298,6.267-0.833
			c-1.725-1.613-3.315-3.281-5.645-3.926l0.292-2.524c2.123-1.537,5.108-2.987,7.772-2.987c4.004,0,5.671,2.072,5.671,4.408
			c0,1.799-0.939,3.66-2.742,5.163c0.888,0.433,1.854,0.7,2.983,0.7h1.776h0.461c1.746,0,2.421-0.7,2.421-3.364v-4.865h3.544v5.326
			c0,2.017,0.459,3.112,2.049,3.112c1.558,0,1.985-1.15,1.985-3.091v-6.423h3.387v6.32c0,2.233,0.596,2.985,2.958,2.985h0.947
			c0.104-1.078,0.182-2.396,0.182-3.229c0-2.689-0.317-5.161-0.778-7.203l3.47-0.484c0.507,2.148,0.865,4.78,0.865,7.451
			c0,1.07-0.059,2.281-0.137,3.465h5.567V267.73z M80.906,276.98c0,0-1.023-0.484-2.556-0.484c-2.013,0-3.199,1.533-3.199,3.632
			c0,2.444,1.207,3.763,4.034,3.763h1.721V276.98z M98.357,278.486c0-1.264-0.831-2.26-2.556-2.26c-1.453,0-3.119,0.973-4.087,1.615
			c1.856,0.755,3.341,2.341,4.977,3.713C97.818,280.664,98.357,279.59,98.357,278.486 M138.932,286.689h3.548v-18.961h-3.548
			V286.689z M163.676,283.892h-3.66c-5.021,0-6.662-1.778-6.662-5.567c0-1.423,0.349-3.201,0.909-4.434l-3.791,0.617
			c-0.402,1.102-0.693,2.772-0.693,4.222c0,4.92,2.55,7.958,9.863,7.958h7.584v-12.637h-3.55V283.892z M157.007,272.006
			c1.023,0,1.803-0.833,1.803-1.827c0-1.023-0.78-1.829-1.803-1.829c-0.994,0-1.772,0.833-1.772,1.829
			C155.236,271.202,156.014,272.006,157.007,272.006 M161.471,272.006c0.998,0,1.776-0.833,1.776-1.827
			c0-1.023-0.778-1.829-1.776-1.829c-0.994,0-1.772,0.833-1.772,1.829C159.699,271.202,160.477,272.006,161.471,272.006
			 M175.049,267.73h-3.544v18.959h3.544V267.73z M179.434,286.983c0,2.903-1.076,3.766-2.88,3.766c-0.856,0-1.562-0.135-2.173-0.321
			l-0.298,2.82c0.674,0.165,1.421,0.271,2.262,0.271c5.482,0,6.639-3.283,6.639-6.721v-12.745h-3.55V286.983z M188.711,273.405
			l-0.863,2.958c4.224,1.074,6.184,3.548,6.345,7.529h-7.979v2.797h11.451v-1.778C197.665,278.243,194.545,274.938,188.711,273.405
			 M234.232,267.73h3.548v18.959h-36.514V267.73h3.554v16.162h8.461v-9.84h3.55v0.672c0,1.18-0.078,2.689-0.292,3.977h0.025
			c1.317-3.176,4.03-5.002,6.91-5.002c3.717,0,5.457,2.474,5.457,6.508c0,1.211-0.027,2.474-0.106,3.685h5.406V267.73z
			 M225.303,280.609c0-2.524-0.643-4.057-2.556-4.057c-2.873,0-5.267,3.577-5.937,7.341h8.358
			C225.25,282.814,225.303,281.579,225.303,280.609 M242.353,286.689h3.544v-18.961h-3.544V286.689z M257.411,272.006
			c1.025,0,1.804-0.833,1.804-1.827c0-1.023-0.778-1.829-1.804-1.829c-0.987,0-1.772,0.833-1.772,1.829
			C255.639,271.202,256.423,272.006,257.411,272.006 M261.88,272.006c0.994,0,1.772-0.833,1.772-1.827
			c0-1.023-0.778-1.829-1.772-1.829c-0.998,0-1.778,0.833-1.778,1.829C260.102,271.202,260.882,272.006,261.88,272.006
			 M277.497,288.892c-0.992,0-1.772,0.833-1.772,1.829c0,1.021,0.78,1.829,1.772,1.829c1,0,1.774-0.833,1.774-1.829
			C279.271,289.702,278.497,288.892,277.497,288.892 M273.035,288.892c-0.994,0-1.772,0.833-1.772,1.829
			c0,1.021,0.778,1.829,1.772,1.829c1.023,0,1.801-0.833,1.801-1.829C274.837,289.702,274.059,288.892,273.035,288.892
			 M304.604,271.796c1.019,0,1.856-0.839,1.856-1.863c0-1.021-0.837-1.854-1.856-1.854c-1.025,0-1.856,0.833-1.856,1.854
			C302.748,270.984,303.578,271.796,304.604,271.796 M311.408,272.006c1.019,0,1.803-0.833,1.803-1.827
			c0-1.023-0.784-1.829-1.803-1.829c-0.998,0-1.776,0.833-1.776,1.829C309.632,271.202,310.41,272.006,311.408,272.006
			 M312.376,274.052h3.548v12.637h-24.847c-3.171,0-4.736-0.753-5.535-2.072c-0.668,1.389-1.924,2.061-3.522,2.068v0.004h-0.032
			h-21.91c-5.241,0-7.203-2.423-7.203-6.239c0-3.522,2.176-6.751,7.121-6.751c3.176,0,5.624,0.941,5.624,0.941v9.252h10.187v-9.84
			h3.548v9.84h2.666h0.104c1.292,0,2.017-0.778,2.017-3.229c0-3.844,2.336-6.964,6.855-6.964c4.332,0,6.214,2.474,6.214,6.4v3.793
			h5.618v-9.84h3.55v9.84h6V274.052z M262.172,276.98c0,0-1.019-0.484-2.554-0.484c-2.013,0-3.195,1.533-3.195,3.632
			c0,2.444,1.207,3.763,4.03,3.763h1.719V276.98z M293.736,280.505c0-2.825-1.019-4.009-2.983-4.009
			c-1.966,0-3.121,1.558-3.121,3.844c0,2.368,1.025,3.552,3.795,3.552h2.309V280.505z M315.873,268.35
			c-0.998,0-1.778,0.833-1.778,1.829c0,1.023,0.78,1.827,1.778,1.827c0.994,0,1.772-0.833,1.772-1.827
			C317.645,269.155,316.867,268.35,315.873,268.35 M331.606,272.006c0.992,0,1.772-0.833,1.772-1.827
			c0-1.023-0.78-1.829-1.772-1.829c-0.994,0-1.778,0.833-1.778,1.829C329.827,271.202,330.612,272.006,331.606,272.006
			 M327.136,272.006c1.03,0,1.808-0.833,1.808-1.827c0-1.023-0.778-1.829-1.808-1.829c-0.994,0-1.768,0.833-1.768,1.829
			C325.368,271.202,326.142,272.006,327.136,272.006 M348.915,269.775h-1.531c-1.374,0-1.856-0.431-1.856-1.021
			c0-0.539,0.461-0.916,1.285-0.916c0.622,0,1.214,0.108,1.349,0.135l0.326-2.017c-0.194-0.025-0.863-0.137-1.59-0.137
			c-2.823,0-3.899,1.51-3.899,3.015c0,0.404,0.192,0.89,0.512,1.051c-0.376-0.085-0.941-0.11-1.505-0.11v2.021h6.91V269.775z
			 M356.772,288.892c-0.994,0-1.782,0.833-1.782,1.829c0,1.021,0.789,1.829,1.782,1.829c0.992,0,1.772-0.833,1.772-1.829
			C358.544,289.702,357.764,288.892,356.772,288.892 M352.302,288.892c-0.992,0-1.772,0.833-1.772,1.829
			c0,1.021,0.78,1.829,1.772,1.829c1.025,0,1.803-0.833,1.803-1.829C354.106,289.702,353.328,288.892,352.302,288.892
			 M379.868,283.812v2.878h-50.066c-5.243,0-7.208-2.423-7.208-6.239c0-3.522,2.18-6.751,7.123-6.751
			c3.178,0,5.624,0.941,5.624,0.941v9.252h8.897v-9.84h3.548v9.84h7.286v-9.84h3.554v9.84h4.516c0.727,0,1.214,0.133,1.214,0.133
			s-0.702-0.698-0.702-1.797c0-2.556,1.856-4.548,5.081-4.548c3.525,0,4.924,2.395,4.924,5.512v0.7h2.823v-0.326
			c0-5.563-2.258-8.282-7.609-8.282c-1.831,0-4.036,0.433-5.755,0.998l-0.323-2.499c1.907-0.617,4.379-1.049,6.506-1.049
			C376.027,272.735,379.868,275.959,379.868,283.812 M331.897,276.98c0,0-1.019-0.484-2.55-0.484c-2.017,0-3.205,1.533-3.205,3.632
			c0,2.444,1.207,3.763,4.036,3.763h1.719V276.98z M370.779,283.165c0-1.909-0.727-3.254-2.286-3.254
			c-1.237,0-1.939,0.863-1.939,1.935c0,1.402,1.135,2.155,2.531,2.155h1.694V283.165z"/>
	</g>
</g>
</svg>
