<?xml version="1.0" encoding="iso-8859-1"?>
<!-- Generator: Adobe Illustrator 23.0.1, SVG Export Plug-In . SVG Version: 6.00 Build 0)  -->
<svg version="1.1" id="Layer_1" xmlns="http://www.w3.org/2000/svg" xmlns:xlink="http://www.w3.org/1999/xlink" x="0px" y="0px"
	 viewBox="36.8 183.8 438.1 144.3" style="enable-background:new 0 0 512 512;" xml:space="preserve">
<g>
	<g>
		<g>
			<g>
				<g>
					<g>
						<path style="fill:#002850;" d="M276.861,263.669c0.879,0,1.269-0.488,1.269-1.367s-0.391-1.367-1.269-1.367
							s-1.269,0.488-1.269,1.367C275.689,263.279,276.08,263.669,276.861,263.669z"/>
						<rect x="310.15" y="259.276" style="fill:#002850;" width="2.148" height="18.353"/>
						<path style="fill:#002850;" d="M237.324,263.669c0.879,0,1.269-0.488,1.269-1.367s-0.39-1.367-1.269-1.367
							s-1.269,0.488-1.269,1.367C236.055,263.279,236.543,263.669,237.324,263.669z"/>
						<path style="fill:#002850;" d="M231.955,283.487h5.662c4.1,0,6.15-1.855,6.15-5.662v-11.91h-3.124
							c-3.807,0-6.638,2.148-6.638,6.248c0,3.612,1.952,5.467,5.564,5.467h2.245v0.195c0,1.269-0.39,2.245-1.074,2.831
							c-0.683,0.586-1.855,0.879-3.417,0.879h-4.881c-4.783,0-4.588-5.564-3.124-9.665h-2.148
							C225.023,277.434,226,283.487,231.955,283.487z M239.472,275.774c-2.245,0-3.319-1.171-3.319-3.612
							c0-2.636,1.562-4.295,4.588-4.295h1.074v8.005h-2.343L239.472,275.774L239.472,275.774z"/>
						<path style="fill:#002850;" d="M303.805,275.774c-1.074-0.293-5.662,0.976-5.662-2.245v-1.757c0-4.1-1.855-6.15-5.564-6.15
							c-2.929,0-5.174,1.855-6.736,5.467v-4.491h-2.05v9.079h-3.514c-1.464,0-2.441-0.879-2.441-2.343v-7.517h-2.148v9.86h-3.514
							c-0.683,0-1.269-0.293-1.855-0.781c-0.586-0.488-0.879-1.074-1.074-1.66c-1.171-4.393-3.124-7.126-5.955-8.2l-0.781,1.855
							c2.636,1.171,4.295,4.1,5.174,8.786h-8.103v1.855h10.153v-1.367c0.586,0.879,1.367,1.269,2.343,1.367l0,0h5.76v-1.367
							c0.488,0.879,1.367,1.367,2.733,1.367h5.272v-1.855c0.683,1.269,1.464,1.855,2.441,1.855h9.762v-1.367
							c0.391,0.781,1.171,1.269,2.343,1.367l0,0h5.467v-18.353h-2.148v16.596H303.805z M296.19,275.774h-7.81
							c-1.367,0-2.148-0.683-2.343-2.05c1.66-4.1,3.71-6.053,6.248-6.053c2.636,0,3.905,1.464,3.905,4.295V275.774z"/>
						<path style="fill:#002850;" d="M254.115,280.753c-0.586,0.586-1.464,0.879-2.538,0.879s-2.148-0.293-3.417-0.976l-0.976,1.66
							c1.269,0.781,2.733,1.269,4.393,1.269c1.757,0,3.124-0.488,4.1-1.367s1.464-2.245,1.464-3.807v-12.3h-3.124
							c-3.807,0-6.638,2.148-6.638,6.248c0,3.71,2.05,5.467,5.369,5.467h2.343v0.683
							C255.091,279.386,254.701,280.167,254.115,280.753z M254.993,275.774h-2.245c-2.245,0-3.319-1.171-3.319-3.612
							c0-2.636,1.562-4.295,4.588-4.295h1.074v7.907H254.993z"/>
						<path style="fill:#002850;" d="M241.033,263.669c0.879,0,1.269-0.488,1.269-1.367s-0.39-1.367-1.269-1.367
							s-1.269,0.488-1.269,1.367C239.764,263.279,240.252,263.669,241.033,263.669z"/>
					</g>
					<g>
						<path style="fill:#002850;" d="M135.406,272.748v3.124c0,2.148-1.367,3.222-4.198,3.222h-2.929
							c-2.733,0-2.441-3.807-1.952-6.443h-1.952c-1.464,4.1-0.488,8.298,3.905,8.298h2.929c3.612,0,6.345-1.562,6.345-5.076v-3.026
							c0-3.319,1.464-4.979,4.295-4.979h0.586v9.86h2.148v-11.715h-2.929C137.456,265.914,135.406,268.257,135.406,272.748z"/>
						<path style="fill:#002850;" d="M133.161,282.217c-0.879,0-1.269,0.488-1.269,1.367s0.39,1.367,1.269,1.367
							s1.269-0.488,1.269-1.367S134.039,282.217,133.161,282.217z"/>
						<path style="fill:#002850;" d="M151.514,265.231l-0.781,1.855c2.636,1.171,4.295,4.1,5.174,8.786h-8.103v1.855h10.055v-1.855
							C156.883,270.015,154.735,266.5,151.514,265.231z"/>
						<path style="fill:#002850;" d="M209.892,275.774h-3.222c-1.367,0-2.441-0.879-2.441-2.343v-7.517h-2.05v9.86
							c-0.195-0.098-4.1,0.683-4.1-2.636v-5.272h-2.05v8.005h-1.464c-1.562,0-2.636-1.074-2.636-2.636v-5.272h-2.05v8.005h-6.15
							c-0.879,0-1.757-0.195-2.636-0.488c1.367-0.879,2.441-2.148,3.222-3.71c0.781-1.562,1.171-3.222,1.171-4.881
							c-1.269-0.976-3.026-1.562-5.272-1.562c-2.441,0-5.076,1.074-6.638,3.124c0.195,1.367,0.683,2.636,1.464,3.905
							c0.781,1.269,1.66,2.343,2.733,3.026c-0.781,0.293-1.757,0.488-2.929,0.488h-4.491v-9.86h-3.124
							c-3.807,0-6.638,2.148-6.638,6.248c0,3.71,2.05,5.467,5.369,5.467h2.343v0.683c0,2.733-2.733,4.393-6.931,2.245l-0.976,1.66
							c3.514,2.245,9.957,1.855,9.957-4.003v-0.586h4.588c1.66,0,3.124-0.39,4.491-1.171c1.464,0.781,3.026,1.171,4.491,1.171h8.103
							v-1.367c0.488,0.879,1.367,1.367,2.733,1.367h3.514v-1.367c0.488,0.879,1.367,1.367,2.733,1.367h3.514v-1.367
							c0.39,0.781,1.171,1.269,2.343,1.367l0,0h5.467v-18.353h-2.148v16.401H209.892z M168.207,275.774h-2.245
							c-2.245,0-3.319-1.171-3.319-3.612c0-2.636,1.562-4.295,4.588-4.295h1.074v7.907H168.207z M179.336,274.212
							c-1.855-1.464-3.124-3.222-3.514-5.272c0.781-0.976,2.733-1.855,4.393-1.855c1.367,0,2.343,0.195,3.026,0.683
							C182.948,270.405,181.679,272.65,179.336,274.212z"/>
						<rect x="216.237" y="259.276" style="fill:#002850;" width="2.148" height="18.353"/>
						<path style="fill:#002850;" d="M129.549,282.217c-0.879,0-1.269,0.488-1.269,1.367s0.39,1.367,1.269,1.367
							c0.879,0,1.269-0.488,1.269-1.367C130.72,282.706,130.33,282.217,129.549,282.217z"/>
					</g>
					<g>
						<path style="fill:#002850;" d="M88.743,262.4c0,0.879,0.39,1.367,1.269,1.367s1.269-0.488,1.269-1.367
							c0-0.879-0.39-1.367-1.269-1.367C89.231,261.033,88.743,261.424,88.743,262.4z"/>
						<path style="fill:#002850;" d="M98.7,262.4c0,0.879,0.39,1.367,1.269,1.367c0.879,0,1.269-0.488,1.269-1.367
							c0-0.879-0.39-1.367-1.269-1.367C99.09,261.033,98.7,261.424,98.7,262.4z"/>
						<path style="fill:#002850;" d="M96.259,263.669c0.879,0,1.269-0.488,1.269-1.367s-0.39-1.367-1.269-1.367
							s-1.269,0.488-1.269,1.367C94.99,263.279,95.381,263.669,96.259,263.669z"/>
						<path style="fill:#002850;" d="M53.306,263.669c0.879,0,1.269-0.488,1.269-1.367s-0.39-1.367-1.269-1.367
							s-1.269,0.488-1.269,1.367C52.036,263.279,52.427,263.669,53.306,263.669z"/>
						<path style="fill:#002850;" d="M68.144,278.996c-0.879,0-1.269,0.488-1.269,1.367s0.39,1.367,1.269,1.367
							s1.269-0.488,1.269-1.367C69.413,279.386,68.925,278.996,68.144,278.996z"/>
						<path style="fill:#002850;" d="M64.435,278.996c-0.879,0-1.269,0.488-1.269,1.367s0.39,1.367,1.269,1.367
							c0.879,0,1.269-0.488,1.269-1.367C65.704,279.386,65.216,278.996,64.435,278.996z"/>
						<path style="fill:#002850;" d="M57.015,263.669c0.879,0,1.269-0.488,1.269-1.367s-0.39-1.367-1.269-1.367
							c-0.879,0-1.269,0.488-1.269,1.367C55.746,263.279,56.137,263.669,57.015,263.669z"/>
						<path style="fill:#002850;" d="M113.734,275.774h-3.71c-1.464,0-2.441-0.879-2.441-2.343v-14.155h-2.148v16.498h-3.71
							c-1.464,0-2.441-0.879-2.441-2.343v-7.517h-2.148v9.86c-1.464-0.39-6.15,1.171-6.15-2.343v-7.517H88.84v9.86h-7.029
							c1.269-0.879,1.952-2.733,1.952-4.295c0-3.807-2.343-5.857-5.564-5.857c-3.612,0-5.662,2.831-5.662,6.443
							c0,1.562,0.293,2.733,0.781,3.612h-3.514c-1.464,0-2.441-0.879-2.441-2.343v-7.517h-2.148v9.86h-5.76v-9.86h-3.612
							c-3.807,0-6.638,2.148-6.638,6.248c0,3.514,2.148,5.467,5.564,5.467h12.593v-1.367c0.488,0.879,1.367,1.367,2.733,1.367
							h20.891v-1.367c0.488,0.879,1.367,1.367,2.733,1.367h5.564v-1.367c0.488,0.879,1.367,1.367,2.733,1.367h5.564v-1.367
							c0.488,0.879,1.367,1.367,2.733,1.367h5.564v-18.353h-2.148V275.774L113.734,275.774z M57.601,275.774h-2.733
							c-2.245,0-3.319-1.171-3.319-3.612c0-2.636,1.562-4.295,4.588-4.295h1.562L57.601,275.774L57.601,275.774z M77.809,275.774
							h-2.245c-0.586-0.781-0.879-1.952-0.879-3.612c0-2.441,1.171-4.588,3.514-4.588c2.148,0,3.417,1.66,3.417,3.905
							C81.714,274.017,80.445,275.774,77.809,275.774z"/>
					</g>
				</g>
				<g>
					<g>
						<path style="fill:#002850;" d="M53.208,304.963c-1.074,0-2.343-0.195-3.417-0.586c-0.293-0.098-0.293-0.293-0.293-0.488
							l0.195-0.781c0.098-0.293,0.293-0.293,0.488-0.195c0.976,0.391,2.05,0.586,3.124,0.586c1.855,0,3.417-0.781,3.417-2.733
							c0-1.367-0.976-2.148-2.148-2.831l-2.733-1.562c-1.464-0.781-2.343-1.952-2.343-3.514c0-2.636,2.148-3.807,4.491-3.807
							c1.269,0,2.245,0.195,3.319,0.586c0.293,0.098,0.39,0.293,0.293,0.488l-0.195,0.586c-0.098,0.293-0.293,0.195-0.488,0.195
							c-0.879-0.39-1.855-0.586-2.733-0.586c-1.464,0-3.026,0.586-3.026,2.245c0,1.269,0.781,2.05,1.855,2.636l2.343,1.269
							c1.757,0.976,3.124,2.05,3.124,4.1C58.187,303.597,55.941,304.963,53.208,304.963z"/>
						<path style="fill:#002850;" d="M70.097,304.573c0,0.195-0.098,0.195-0.293,0.195H69.12c-0.586,0-0.781-0.098-1.074-0.293
							c-0.293-0.293-0.39-0.781-0.39-1.269v-0.293c-0.488,1.074-1.952,2.05-3.417,2.05c-3.026,0-4.393-2.636-4.393-5.369
							c0-3.612,2.148-5.76,4.686-5.76c1.074,0,2.343,0.488,3.026,1.367v-0.781c0-0.293,0.195-0.391,0.39-0.391h0.683
							c0.293,0,0.39,0.098,0.39,0.391v7.907c0,0.586,0,1.074,0.098,1.269c0.098,0.195,0.293,0.293,0.488,0.293h0.195
							c0.195,0,0.293,0,0.293,0.293V304.573z M67.754,296.763c-0.586-1.171-1.757-1.855-2.929-1.855
							c-1.952,0-3.319,1.757-3.319,4.588c0,2.831,1.367,4.295,3.026,4.295c1.66,0,2.831-1.367,3.319-2.733L67.754,296.763
							L67.754,296.763z"/>
						<path style="fill:#002850;" d="M80.64,304.378c0,0.293-0.098,0.391-0.39,0.391h-0.683c-0.293,0-0.39-0.098-0.39-0.391v-0.781
							c-1.074,0.879-2.245,1.367-3.514,1.367c-2.538,0-3.514-1.562-3.514-4.1v-6.541c0-0.293,0.098-0.391,0.39-0.391h0.683
							c0.293,0,0.39,0.098,0.39,0.391v6.345c0,4.1,3.71,3.514,5.564,1.66v-7.907c0-0.293,0.098-0.39,0.39-0.39h0.683
							c0.293,0,0.39,0.098,0.39,0.39C80.64,294.42,80.64,304.378,80.64,304.378z"/>
						<path style="fill:#002850;" d="M87.571,304.963c-3.222,0-4.491-2.636-4.491-5.564c0-3.417,2.05-5.662,4.881-5.662
							c1.074,0,2.343,0.488,3.026,1.367v-5.662c0-0.293,0.098-0.391,0.293-0.391l0.781-0.098c0.293,0,0.39,0,0.39,0.293v15.131
							c0,0.293-0.098,0.391-0.39,0.391h-0.586c-0.293,0-0.39-0.098-0.39-0.391v-0.976C90.207,304.378,88.938,304.963,87.571,304.963
							z M90.988,296.763c-0.488-0.976-1.66-1.855-2.929-1.855c-2.148,0-3.514,1.66-3.514,4.491c0,2.733,1.269,4.491,3.319,4.491
							c1.171,0,2.538-0.781,3.124-1.66C90.988,302.23,90.988,296.763,90.988,296.763z"/>
						<path style="fill:#002850;" d="M96.357,292.37c-0.488,0-0.879-0.293-0.879-0.879c0-0.586,0.39-0.879,0.879-0.879
							c0.488,0,0.976,0.293,0.976,0.879C97.236,292.077,96.845,292.37,96.357,292.37z M97.04,304.378
							c0,0.293-0.098,0.391-0.39,0.391h-0.683c-0.293,0-0.39-0.098-0.39-0.391v-9.957c0-0.293,0.098-0.391,0.39-0.391h0.683
							c0.293,0,0.39,0.098,0.39,0.391V304.378z"/>
					</g>
					<g>
						<path style="fill:#002850;" d="M105.924,296.08h5.369c0.293,0,0.293,0.098,0.293,0.293v0.586c0,0.195,0,0.293-0.293,0.293
							h-5.369v7.126c0,0.293-0.098,0.39-0.39,0.39h-0.781c-0.293,0-0.39-0.098-0.39-0.39v-14.546c0-0.293,0.098-0.391,0.39-0.391
							h7.419c0.293,0,0.39,0.098,0.293,0.293l-0.098,0.586c0,0.293-0.098,0.293-0.39,0.293h-6.15v5.467
							C105.826,296.08,105.924,296.08,105.924,296.08z"/>
						<path style="fill:#002850;" d="M122.325,304.378c0,0.293-0.098,0.391-0.39,0.391h-0.683c-0.293,0-0.39-0.098-0.39-0.391
							v-0.781c-1.074,0.879-2.245,1.367-3.514,1.367c-2.538,0-3.514-1.562-3.514-4.1v-6.541c0-0.293,0.098-0.391,0.39-0.391h0.683
							c0.293,0,0.39,0.098,0.39,0.391v6.345c0,4.1,3.71,3.514,5.564,1.66v-7.907c0-0.293,0.098-0.39,0.39-0.39h0.683
							c0.293,0,0.39,0.098,0.39,0.39V304.378z"/>
						<path style="fill:#002850;" d="M126.718,304.378c0,0.293-0.098,0.391-0.39,0.391h-0.683c-0.293,0-0.39-0.098-0.39-0.391
							v-9.957c0-0.293,0.098-0.391,0.39-0.391h0.683c0.293,0,0.39,0.098,0.39,0.391v0.781c1.074-0.879,2.441-1.367,3.71-1.367
							c2.636,0,3.514,1.562,3.514,4.003v6.541c0,0.293-0.098,0.391-0.391,0.391h-0.683c-0.293,0-0.39-0.098-0.39-0.391v-6.345
							c0-1.757-0.39-3.124-2.441-3.124c-1.074,0-2.538,0.683-3.319,1.464V304.378L126.718,304.378z"/>
						<path style="fill:#002850;" d="M140.971,304.963c-3.222,0-4.491-2.636-4.491-5.564c0-3.417,2.05-5.662,4.881-5.662
							c1.074,0,2.343,0.488,3.026,1.367v-5.662c0-0.293,0.098-0.391,0.293-0.391l0.781-0.098c0.293,0,0.39,0,0.39,0.293v15.131
							c0,0.293-0.098,0.391-0.39,0.391h-0.586c-0.293,0-0.39-0.098-0.39-0.391v-0.976
							C143.606,304.378,142.24,304.963,140.971,304.963z M144.29,296.763c-0.488-0.976-1.66-1.855-2.929-1.855
							c-2.148,0-3.514,1.66-3.514,4.491c0,2.733,1.269,4.491,3.319,4.491c1.171,0,2.538-0.781,3.124-1.66V296.763L144.29,296.763z"
							/>
					</g>
					<g>
						<path style="fill:#002850;" d="M158.835,294.03c0.195,0,0.293,0,0.293,0.195v0.586c0,0.195-0.098,0.195-0.293,0.195h-2.929
							v9.274c0,0.293-0.098,0.391-0.39,0.391h-0.683c-0.293,0-0.39-0.098-0.39-0.391v-9.274h-1.269c-0.195,0-0.293,0-0.293-0.195
							v-0.586c0-0.195,0.098-0.195,0.293-0.195h1.269v-0.293c0-0.879,0-1.367,0.098-1.757c0.195-1.952,1.367-3.124,3.319-3.124
							c0.586,0,1.367,0.098,1.855,0.293c0.195,0.098,0.293,0.195,0.195,0.391l-0.098,0.488c0,0.195-0.195,0.195-0.39,0.195
							c-0.586-0.195-0.976-0.293-1.464-0.293c-1.66,0-2.148,1.074-2.148,3.026v1.074C155.809,294.03,158.835,294.03,158.835,294.03z
							"/>
						<path style="fill:#002850;" d="M164.79,304.963c-3.319,0-4.783-2.441-4.783-5.564s1.757-5.564,4.979-5.564
							c3.319,0,4.881,2.343,4.881,5.564C169.769,302.523,168.012,304.963,164.79,304.963z M164.986,294.908
							c-2.636,0-3.514,2.343-3.514,4.393c0,2.148,0.781,4.588,3.319,4.588s3.514-2.245,3.514-4.491
							C168.305,297.154,167.524,294.908,164.986,294.908z"/>
						<path style="fill:#002850;" d="M176.212,293.737c0.098,0,0.39,0,0.586,0.098c0.195,0,0.195,0.195,0.195,0.293l-0.098,0.683
							c0,0.098-0.098,0.195-0.293,0.195s-0.39-0.098-0.683-0.098c-0.781,0-1.66,0.586-2.245,1.464v8.005
							c0,0.293-0.098,0.391-0.391,0.391H172.6c-0.293,0-0.39-0.098-0.39-0.391v-9.957c0-0.293,0.098-0.39,0.39-0.39h0.683
							c0.293,0,0.391,0.098,0.391,0.39v0.781C174.162,294.323,175.138,293.737,176.212,293.737z"/>
					</g>
					<g>
						<path style="fill:#002850;" d="M193.687,303.109c-1.269,1.171-3.222,1.562-5.467,1.562h-3.71c-0.293,0-0.39-0.098-0.39-0.391
							v-14.546c0-0.293,0.098-0.391,0.39-0.391h2.733c3.026,0,4.295,0.195,5.662,1.074c1.855,1.171,2.929,3.612,2.929,6.638
							C195.932,299.692,195.151,301.742,193.687,303.109z M192.222,291.784c-1.171-0.976-2.636-1.171-4.198-1.171h-2.343v12.886
							h1.952c2.245,0,3.71-0.195,4.783-1.269c1.171-1.171,1.757-3.026,1.757-5.076C194.272,294.908,193.589,292.858,192.222,291.784
							z"/>
						<path style="fill:#002850;" d="M204.035,303.792c0.976,0,2.05-0.195,2.733-0.488c0.195-0.098,0.293,0,0.39,0.195l0.195,0.488
							c0.098,0.195,0,0.293-0.195,0.39c-0.879,0.391-2.343,0.586-3.222,0.586c-3.417,0-5.076-2.343-5.076-5.564
							c0-3.124,1.855-5.564,4.979-5.564c2.636,0,4.1,2.05,4.1,4.588v0.488c0,0.488-0.098,0.586-0.586,0.586h-7.029
							C200.227,301.742,201.496,303.792,204.035,303.792z M206.573,298.032c0-1.757-0.879-3.124-2.733-3.124
							c-2.05,0-3.222,1.66-3.417,3.514h6.248L206.573,298.032L206.573,298.032z"/>
						<path style="fill:#002850;" d="M214.48,303.109l2.929-8.786c0.098-0.293,0.195-0.293,0.39-0.293h0.683
							c0.293,0,0.39,0.098,0.293,0.39l-3.612,10.055c-0.098,0.195-0.293,0.293-0.488,0.293h-0.781c-0.293,0-0.39-0.098-0.488-0.293
							l-3.514-10.055c-0.098-0.293,0-0.39,0.293-0.39h0.781c0.293,0,0.39,0.098,0.488,0.293L214.48,303.109L214.48,303.109z"/>
						<path style="fill:#002850;" d="M225.902,303.792c0.976,0,2.05-0.195,2.733-0.488c0.195-0.098,0.293,0,0.39,0.195l0.195,0.488
							c0.098,0.195,0,0.293-0.195,0.39c-0.879,0.391-2.343,0.586-3.222,0.586c-3.417,0-5.076-2.343-5.076-5.564
							c0-3.124,1.855-5.564,4.979-5.564c2.636,0,4.1,2.05,4.1,4.588v0.488c0,0.488-0.098,0.586-0.586,0.586h-7.029
							C222.192,301.742,223.364,303.792,225.902,303.792z M228.44,298.032c0-1.757-0.879-3.124-2.733-3.124
							c-2.05,0-3.222,1.66-3.417,3.514h6.248L228.44,298.032L228.44,298.032z"/>
						<path style="fill:#002850;" d="M234.395,304.378c0,0.293-0.098,0.391-0.39,0.391h-0.683c-0.293,0-0.39-0.098-0.39-0.391
							v-14.936c0-0.293,0-0.391,0.293-0.391l0.781-0.098c0.293,0,0.39,0,0.39,0.293L234.395,304.378L234.395,304.378z"/>
						<path style="fill:#002850;" d="M242.595,304.963c-3.319,0-4.783-2.441-4.783-5.564s1.757-5.564,4.979-5.564
							c3.319,0,4.881,2.343,4.881,5.564C247.574,302.523,245.817,304.963,242.595,304.963z M242.693,294.908
							c-2.636,0-3.514,2.343-3.514,4.393c0,2.148,0.781,4.588,3.319,4.588c2.538,0,3.514-2.245,3.514-4.491
							C246.11,297.154,245.231,294.908,242.693,294.908z"/>
						<path style="fill:#002850;" d="M255.384,304.963c-1.171,0-2.343-0.488-3.124-1.367v5.564c0,0.293-0.098,0.391-0.39,0.391
							h-0.683c-0.293,0-0.39-0.098-0.39-0.391v-14.839c0-0.293,0.098-0.391,0.39-0.391h0.488c0.293,0,0.488,0.098,0.488,0.391v0.879
							c0.781-0.879,2.148-1.464,3.417-1.464c2.636,0,4.491,1.855,4.491,5.564C260.167,302.328,258.508,304.963,255.384,304.963z
							 M255.384,294.908c-1.171,0-2.538,0.683-3.124,1.66v5.467c0.488,1.074,1.757,1.855,3.026,1.855
							c2.245,0,3.417-1.855,3.417-4.491C258.703,296.275,257.336,294.908,255.384,294.908z"/>
						<path style="fill:#002850;" d="M264.853,304.378c0,0.293-0.098,0.391-0.39,0.391h-0.683c-0.293,0-0.39-0.098-0.39-0.391
							v-9.957c0-0.293,0.098-0.391,0.39-0.391h0.683c0.293,0,0.39,0.098,0.39,0.391v0.781c0.976-0.879,2.245-1.367,3.417-1.367
							c1.074,0,2.245,0.391,2.929,1.269c1.269-0.976,2.538-1.269,3.71-1.269c2.636,0,3.612,1.562,3.612,4.003v6.541
							c0,0.293-0.098,0.391-0.391,0.391h-0.683c-0.293,0-0.39-0.098-0.39-0.391v-6.345c0-1.855-0.488-3.124-2.538-3.124
							c-0.976,0-2.148,0.488-2.929,1.074c0.195,0.488,0.195,1.074,0.195,1.855v6.541c0,0.293-0.098,0.391-0.39,0.391h-0.683
							c-0.293,0-0.39-0.098-0.39-0.391v-6.345c0-1.757-0.391-3.124-2.441-3.124c-1.074,0-2.245,0.586-3.124,1.464v8.005H264.853z"/>
						<path style="fill:#002850;" d="M287.111,303.792c0.976,0,2.05-0.195,2.733-0.488c0.195-0.098,0.293,0,0.39,0.195l0.195,0.488
							c0.098,0.195,0,0.293-0.195,0.39c-0.879,0.391-2.343,0.586-3.222,0.586c-3.417,0-5.076-2.343-5.076-5.564
							c0-3.124,1.855-5.564,4.979-5.564c2.636,0,4.1,2.05,4.1,4.588v0.488c0,0.488-0.098,0.586-0.586,0.586h-7.029
							C283.402,301.742,284.573,303.792,287.111,303.792z M289.649,298.032c0-1.757-0.879-3.124-2.733-3.124
							c-2.05,0-3.222,1.66-3.417,3.514h6.248v-0.39H289.649z"/>
						<path style="fill:#002850;" d="M295.702,304.378c0,0.293-0.098,0.391-0.39,0.391h-0.683c-0.293,0-0.391-0.098-0.391-0.391
							v-9.957c0-0.293,0.098-0.391,0.391-0.391h0.683c0.293,0,0.39,0.098,0.39,0.391v0.781c1.074-0.879,2.441-1.367,3.71-1.367
							c2.636,0,3.514,1.562,3.514,4.003v6.541c0,0.293-0.098,0.391-0.39,0.391h-0.683c-0.293,0-0.39-0.098-0.39-0.391v-6.345
							c0-1.757-0.39-3.124-2.441-3.124c-1.074,0-2.538,0.683-3.319,1.464L295.702,304.378L295.702,304.378z"/>
						<path style="fill:#002850;" d="M308.686,301.644c0,0.781,0.098,1.464,0.488,1.757c0.293,0.293,0.683,0.39,1.269,0.39
							c0.488,0,1.074-0.098,1.367-0.293c0.195-0.098,0.293,0,0.293,0.098l0.098,0.488c0,0.195,0,0.293-0.195,0.39
							c-0.391,0.195-1.171,0.293-1.855,0.293c-0.879,0-1.757-0.293-2.343-0.781c-0.586-0.683-0.683-1.562-0.683-2.831v-6.345h-1.269
							c-0.195,0-0.293,0-0.293-0.195v-0.586c0-0.195,0.098-0.195,0.293-0.195h1.269v-2.636c0-0.293,0-0.39,0.293-0.39l0.781-0.098
							c0.195,0,0.391,0.098,0.391,0.391v2.733h2.733c0.195,0,0.293,0,0.293,0.195v0.586c0,0.195-0.098,0.195-0.293,0.195h-2.733
							v6.834C308.588,301.644,308.686,301.644,308.686,301.644z"/>
					</g>
				</g>
			</g>
			<g>
				<path style="fill:#002850;" d="M207.451,252.833c-4.198,0-9.176-0.781-13.472-2.245c-1.269-0.488-1.367-1.171-1.074-2.245
					l1.464-4.588c0.39-1.171,1.171-1.367,2.343-0.879c3.319,1.171,6.931,2.148,10.446,2.148c3.807,0,8.103-1.855,8.103-6.248
					c0-3.222-2.441-4.979-5.174-6.345l-9.176-4.588c-4.979-2.441-8.298-6.638-8.298-12.105c0-8.591,8.493-13.277,16.303-13.277
					c4.686,0,8.493,0.683,12.593,2.441c1.367,0.586,1.66,1.171,1.171,2.343l-1.66,4.295c-0.39,1.171-1.171,1.269-2.343,0.781
					c-2.929-1.269-6.443-2.148-9.274-2.148c-3.319,0-7.126,1.367-7.126,5.369c0,2.929,2.636,4.588,4.979,5.662l7.81,3.807
					c5.564,2.636,9.372,6.443,9.372,12.886C224.535,247.561,216.53,252.833,207.451,252.833z"/>
				<path style="fill:#002850;" d="M263.096,203.241h-26.358c-1.171,0-1.66,0.586-1.66,1.757v5.564h6.736l-6.736,4.491V250.1
					c0,1.562,0.488,1.855,1.855,1.855h5.467c1.171,0,1.66-0.488,1.66-1.757v-18.255h12.691c1.367,0,1.952-0.195,2.148-1.464
					l0.488-4.198c0.098-1.074-0.293-1.66-1.66-1.66h-13.765v-14.058h17.963c1.367,0,1.952-0.195,2.148-1.464l0.488-4.198
					C264.853,203.827,264.463,203.241,263.096,203.241z"/>
				<path style="fill:#002850;" d="M302.243,206.853c-4.686-2.636-10.153-3.612-18.255-3.612h-8.786
					c-1.757,0-2.148,0.586-2.148,2.148v5.564h6.736l-6.736,4.491v34.558c0,1.66,0.586,1.952,2.05,1.952h12.105
					c6.931,0,13.081-1.66,17.474-5.272c4.783-4.1,7.712-10.446,7.712-18.841C312.298,217.396,308.588,210.465,302.243,206.853z
					 M298.143,240.63c-2.929,2.929-7.029,3.71-11.91,3.71h-4.1v-33.387h3.807c4.491,0,8.2,0.781,11.129,2.929
					c3.612,2.636,5.467,7.517,5.467,13.96C302.536,233.601,300.974,237.799,298.143,240.63z"/>
			</g>
			<g>
				
					<linearGradient id="SVGID_1_" gradientUnits="userSpaceOnUse" x1="53.1037" y1="7163.624" x2="154.1849" y2="7253.7773" gradientTransform="matrix(1 0 0 1 285.4313 -6946.0596)">
					<stop  offset="0" style="stop-color:#006E8C"/>
					<stop  offset="1" style="stop-color:#96E14B"/>
				</linearGradient>
				<path style="fill:url(#SVGID_1_);" d="M462.246,248.342c0,0.098-0.293,3.124-1.464,7.224c-0.781,2.733-1.757,5.564-3.026,8.298
					l0,0c-0.683,1.464-1.464,2.929-2.148,4.198l0,0c-1.074,1.855-2.245,3.71-3.514,5.369l0,0
					c-9.177,12.496-16.01,14.155-27.334,14.155c-10.153,0-24.698-2.831-41.978-15.424c-17.279-12.691-28.408-31.239-28.311-53.009
					l0,0c0-7.419,2.538-14.448,7.81-19.915c-6.931,6.541-10.446,15.424-10.446,24.991c0,22.551,17.963,56.816,53.399,68.629
					c19.232,6.345,30.458,3.612,34.07,2.831c0,0-7.907,3.612-21.184,3.612c-33.973,0-74.876-32.215-74.876-73.412
					c0-9.567,4.393-18.451,12.203-25.284c-9.567,6.834-14.155,19.232-14.155,30.849c0,38.951,40.025,73.51,73.412,76.536
					c0,0-3.319,0.293-4.979,0.293c-33.777,0-74.388-32.606-74.388-73.119c0-6.638,1.464-13.081,4.393-18.939
					c-4.881,6.736-6.541,14.643-6.541,22.551c0,31.434,25.772,63.65,57.597,75.169c-37.682-10.153-61.502-40.318-61.502-68.433
					c0-5.076,0.781-10.055,2.245-14.643c-2.636,6.541-3.71,11.227-3.71,18.158c0,21.867,13.179,46.664,37.78,61.795
					c-15.522-8.396-29.482-20.598-36.608-36.999c7.81,28.896,34.168,50.178,65.505,50.178c37.487,0,67.848-30.361,67.848-67.848
					C462.636,253.419,462.539,250.881,462.246,248.342z"/>
				<g>
					<path style="fill:#9AA1B0;" d="M416.851,254.883C416.851,254.883,416.949,254.786,416.851,254.883
						c0.098-0.195-1.367-0.879-2.733-1.269c-1.269-0.39-2.929-0.781-4.881-0.781c-3.417,0-6.443,0.976-9.372,2.733
						c-1.074,0.683-2.245,1.464-3.319,2.245c-0.586-3.417-0.781-6.638-0.781-9.469c0-3.319,0.195-6.15,0.39-8.005l0,0
						c0.098,0,1.855,0.976,1.855,4.295c0,1.952-0.488,3.222-0.488,3.222l0,0c0.098,0,1.952-2.148,1.952-5.272
						c0-2.343-0.976-3.905-0.976-3.905l0,0l0,0c1.855,1.562,2.636,3.612,2.636,5.955c0,0.683-0.098,1.269-0.098,1.269l0,0l0,0l0,0
						c0.488-0.976,0.781-2.148,0.781-3.417c0-1.952-0.781-3.807-2.343-5.369c-0.195-0.195-0.39-0.39-0.586-0.586l0,0l0,0
						c0.098,0,0.488,0.195,0.586,0.195c2.733,0.976,4.003,3.807,4.003,6.053l0,0l0,0c0.098,0,0.293-1.367,0.293-2.148
						c0-1.171-0.293-2.245-0.879-3.026c-0.781-1.269-2.148-2.245-3.514-2.636c-0.293-0.098-0.488-0.098-0.683-0.195l0,0l0,0
						c0.293,0,0.586,0,0.879,0c1.171,0,2.441,0.293,3.417,0.976c0.976,0.683,1.367,1.464,1.367,1.464l0,0
						c0-1.367-1.269-3.222-3.514-3.807c-0.488-0.098-1.074-0.195-1.562-0.195c-1.074,0-1.757,0.293-1.757,0.293l0,0
						c0-0.098,1.074-1.562,3.124-1.562c0.879,0,1.464,0.293,1.464,0.293l0,0c0-0.098-0.683-0.683-1.269-0.976
						c-0.488-0.293-0.976-0.39-1.464-0.488c-0.098,0-0.293,0-0.39,0c-2.05,0-3.124,1.757-3.124,1.757l0,0
						c-0.195-0.293-0.293-0.683-0.488-0.976c-0.586-1.367-0.781-2.733-0.781-2.733l0,0l0,0c0,0-0.293,1.952-1.269,3.71l0,0
						c0,0-1.074-1.757-3.124-1.757c-0.098,0-0.293,0-0.39,0c-0.488,0.098-0.976,0.195-1.464,0.488
						c-0.586,0.293-1.269,0.879-1.269,0.976l0,0c0,0,0.586-0.293,1.464-0.293c2.05,0,3.124,1.367,3.124,1.562l0,0
						c0,0-0.683-0.293-1.757-0.293c-0.488,0-0.976,0.098-1.562,0.195c-2.441,0.683-3.514,2.636-3.514,3.807l0,0
						c0,0,0.391-0.879,1.367-1.464c0.976-0.683,2.245-0.976,3.417-0.976c0.293,0,0.586,0,0.879,0l0,0l0,0
						c-0.195,0-0.488,0.098-0.683,0.195c-0.488,0.098-0.976,0.39-1.464,0.683c-0.781,0.488-1.464,1.074-2.05,1.952
						c-0.488,0.781-0.879,1.757-0.879,3.026c0,0.781,0.195,2.148,0.293,2.148l0,0c0,0,0,0,0-0.098c0-2.148,1.171-5.076,4.003-6.053
						c0.098,0,0.488-0.195,0.586-0.195l0,0l0,0c-1.757,1.562-2.929,3.612-2.929,5.955c0,1.269,0.293,2.538,0.781,3.417l0,0l0,0l0,0
						c0,0-0.098-0.683-0.098-1.269c0-2.441,0.781-4.393,2.636-5.955l0,0l0,0c0,0-0.976,1.562-0.976,3.905
						c0,3.026,1.855,5.272,1.952,5.272l0,0c0,0-0.488-1.269-0.488-3.222c0-3.124,1.66-4.295,1.855-4.295l0,0
						c0.195,1.855,0.39,4.588,0.39,8.005c0,2.831-0.195,6.15-0.781,9.469c-1.074-0.781-2.148-1.562-3.319-2.245
						c-2.929-1.757-5.955-2.733-9.372-2.733c-1.952,0-3.612,0.39-4.881,0.781c-1.367,0.391-2.733,1.171-2.733,1.269
						c0,0,0,0.098,0.098,0.098c0,0,1.269-0.39,2.733-0.586c0.976-0.195,1.855-0.195,2.733-0.195c5.662,0,10.543,2.831,14.839,6.443
						c-1.757,1.562-3.319,3.026-4.784,4.295c-0.781,0.683-1.464,1.269-2.05,1.66c-0.293,0.195-0.488,0.293-0.683,0.39
						c-0.293-0.39-0.781-0.683-1.367-0.683c-0.488,0-0.879,0.195-1.171,0.488c-0.293,0.293-0.488,0.781-0.488,1.171
						c0,0.879,0.781,1.757,1.952,1.757c1.757,0,3.71-1.757,5.272-3.222c1.269-1.171,4.588-4.295,4.881-4.588
						c0.293,0.293,3.612,3.417,4.881,4.588c1.952,1.855,3.71,3.222,5.272,3.222c1.269,0,1.952-0.879,1.952-1.855
						c0-0.488-0.195-0.879-0.488-1.171c-0.293-0.293-0.683-0.488-1.171-0.488c-0.586,0-1.074,0.293-1.367,0.683
						c-0.195-0.098-0.488-0.293-0.683-0.391c-0.586-0.391-1.269-0.976-2.05-1.66c-0.488-0.391-3.612-3.222-4.783-4.295
						c4.393-3.612,9.176-6.443,14.839-6.443c0.879,0,1.757,0.098,2.733,0.195C415.68,254.493,416.851,254.883,416.851,254.883z"/>
					
						<linearGradient id="SVGID_2_" gradientUnits="userSpaceOnUse" x1="80.0921" y1="7133.0864" x2="178.03" y2="7210.3066" gradientTransform="matrix(1 0 0 1 285.4313 -6946.0596)">
						<stop  offset="0" style="stop-color:#788296"/>
						<stop  offset="1" style="stop-color:#D0D3DA"/>
					</linearGradient>
					<path style="fill:url(#SVGID_2_);" d="M354.568,219.153c0.586-0.195,27.92-10.543,58.573,12.105
						c30.946,22.941,28.701,52.423,28.701,52.423v0.098l0,0c0.879-0.586,1.757-1.269,2.733-2.05
						c0.488-43.247-36.804-64.919-47.542-69.41c4.003,0.488,49.787,19.72,52.911,63.943c0.781-0.879,1.562-1.855,2.245-2.929
						c-1.952-37.292-31.239-57.109-37.877-62.088c10.348,5.564,36.804,23.429,41.294,56.621c0.781-1.367,1.464-2.733,2.148-4.198
						c-2.636-24.601-19.036-43.54-30.165-52.814c12.691,8.298,29.58,27.432,32.508,46.859c0.195-0.488,0.293-1.074,0.488-1.562
						c-1.269-13.765-10.153-30.946-19.427-40.904c12.886,12.789,19.524,26.553,20.598,36.12c0.293-1.367,0.488-2.929,0.488-3.222
						c-3.807-34.07-32.704-60.233-67.457-60.233C367.357,188.109,354.568,202.265,354.568,219.153z"/>
				</g>
			</g>
		</g>
	</g>
</g>
</svg>
